<svg width="25" height="20" viewBox="0 0 25 20" fill="none" xmlns="http://www.w3.org/2000/svg">
<path d="M0 20V17.5H12.5V20H0ZM3.75 16.25C3.0625 16.25 2.47396 16.0052 1.98438 15.5156C1.49479 15.026 1.25 14.4375 1.25 13.75V2.5C1.25 1.8125 1.49479 1.22396 1.98438 0.734375C2.47396 0.244792 3.0625 0 3.75 0H21.25C21.9375 0 22.526 0.244792 23.0156 0.734375C23.5052 1.22396 23.75 1.8125 23.75 2.5H3.75V13.75H12.5V16.25H3.75ZM22.5 17.5V7.5H17.5V17.5H22.5ZM16.875 20C16.3542 20 15.9115 19.8177 15.5469 19.4531C15.1823 19.0885 15 18.6458 15 18.125V6.875C15 6.35417 15.1823 5.91146 15.5469 5.54688C15.9115 5.18229 16.3542 5 16.875 5H23.125C23.6458 5 24.0885 5.18229 24.4531 5.54688C24.8177 5.91146 25 6.35417 25 6.875V18.125C25 18.6458 24.8177 19.0885 24.4531 19.4531C24.0885 19.8177 23.6458 20 23.125 20H16.875ZM20 10.625C20.2708 10.625 20.4948 10.5312 20.6719 10.3438C20.849 10.1562 20.9375 9.9375 20.9375 9.6875C20.9375 9.41667 20.849 9.19271 20.6719 9.01562C20.4948 8.83854 20.2708 8.75 20 8.75C19.75 8.75 19.5312 8.83854 19.3438 9.01562C19.1562 9.19271 19.0625 9.41667 19.0625 9.6875C19.0625 9.9375 19.1562 10.1562 19.3438 10.3438C19.5312 10.5312 19.75 10.625 20 10.625Z" fill="url(#paint0_linear_883_43)"/>
<defs>
<linearGradient id="paint0_linear_883_43" x1="0" y1="0" x2="3.54662" y2="23.2698" gradientUnits="userSpaceOnUse">
<stop offset="0.0865384" stop-color="#FF6B6B"/>
<stop offset="0.774038" stop-color="#BA2121"/>
<stop offset="1" stop-color="#670000"/>
</linearGradient>
</defs>
</svg>
