<svg width="35" height="48" viewBox="0 0 35 48" fill="none" xmlns="http://www.w3.org/2000/svg">
<path d="M17.5 47.5453C12.625 47.5453 8.48958 45.8473 5.09375 42.4515C1.69792 39.0557 0 34.9203 0 30.0453C0 26.1286 1.15625 22.6182 3.46875 19.514C5.78125 16.4098 8.8125 14.3161 12.5625 13.2328C11.7292 13.0244 10.9167 12.7223 10.125 12.3265C9.33333 11.9307 8.625 11.4203 8 10.7953C6.625 9.42026 5.73958 7.78484 5.34375 5.88901C4.94792 3.99318 4.85417 2.06609 5.0625 0.107759C7.02083 -0.100575 8.94792 -0.00682473 10.8438 0.389009C12.7396 0.784842 14.375 1.67026 15.75 3.04526C16.7083 4.00359 17.4062 5.08693 17.8438 6.29526C18.2812 7.50359 18.5625 8.77443 18.6875 10.1078C19.2292 8.81609 19.8854 7.59734 20.6562 6.45151C21.4271 5.30568 22.2917 4.25359 23.25 3.29526C23.7083 2.83693 24.2917 2.60776 25 2.60776C25.7083 2.60776 26.2917 2.83693 26.75 3.29526C27.2083 3.75359 27.4375 4.33693 27.4375 5.04526C27.4375 5.75359 27.2083 6.33693 26.75 6.79526C25.8333 7.71193 25.0208 8.72234 24.3125 9.82651C23.6042 10.9307 23.0833 12.1078 22.75 13.3578C26.4167 14.5244 29.375 16.639 31.625 19.7015C33.875 22.764 35 26.2119 35 30.0453C35 34.9203 33.3021 39.0557 29.9062 42.4515C26.5104 45.8473 22.375 47.5453 17.5 47.5453ZM17.5 42.5453C20.9583 42.5453 23.9062 41.3265 26.3438 38.889C28.7812 36.4515 30 33.5036 30 30.0453C30 26.5869 28.7812 23.639 26.3438 21.2015C23.9062 18.764 20.9583 17.5453 17.5 17.5453C14.0417 17.5453 11.0938 18.764 8.65625 21.2015C6.21875 23.639 5 26.5869 5 30.0453C5 33.5036 6.21875 36.4515 8.65625 38.889C11.0938 41.3265 14.0417 42.5453 17.5 42.5453Z" fill="white"/>
</svg>
