<svg width="64" height="64" viewBox="0 0 64 64" fill="none" xmlns="http://www.w3.org/2000/svg">
<rect width="64" height="64" rx="16" fill="#DBEAFE"/>
<path d="M41.4375 36.6875L39.5625 34.75C40.3958 34.5208 41.0729 34.0781 41.5938 33.4219C42.1146 32.7656 42.375 32 42.375 31.125C42.375 30.0833 42.0104 29.1979 41.2812 28.4688C40.5521 27.7396 39.6667 27.375 38.625 27.375H33.625V24.875H38.625C40.3542 24.875 41.8281 25.4844 43.0469 26.7031C44.2656 27.9219 44.875 29.3958 44.875 31.125C44.875 32.3125 44.5677 33.4062 43.9531 34.4062C43.3385 35.4062 42.5 36.1667 41.4375 36.6875ZM37.1875 32.375L34.6875 29.875H37.375V32.375H37.1875ZM42.125 44.375L19.125 21.375L20.875 19.625L43.875 42.625L42.125 44.375ZM31.125 37.375H26.125C24.3958 37.375 22.9219 36.7656 21.7031 35.5469C20.4844 34.3281 19.875 32.8542 19.875 31.125C19.875 29.6875 20.3125 28.4062 21.1875 27.2812C22.0625 26.1562 23.1875 25.4167 24.5625 25.0625L26.875 27.375H26.125C25.0833 27.375 24.1979 27.7396 23.4688 28.4688C22.7396 29.1979 22.375 30.0833 22.375 31.125C22.375 32.1667 22.7396 33.0521 23.4688 33.7812C24.1979 34.5104 25.0833 34.875 26.125 34.875H31.125V37.375ZM27.375 32.375V29.875H29.4062L31.875 32.375H27.375Z" fill="#3B82F6"/>
</svg>
