<svg width="64" height="64" viewBox="0 0 64 64" fill="none" xmlns="http://www.w3.org/2000/svg">
<rect width="64" height="64" rx="16" fill="#EC1313" fill-opacity="0.05"/>
<path d="M27.5 45.5V41H17V38H27.5C28.325 38 29.0312 38.2938 29.6187 38.8813C30.2062 39.4688 30.5 40.175 30.5 41V45.5H27.5ZM33.5 45.5V41C33.5 40.175 33.7938 39.4688 34.3813 38.8813C34.9688 38.2938 35.675 38 36.5 38H47V41H36.5V45.5H33.5ZM23 36.5C21.75 36.5 20.6875 36.0625 19.8125 35.1875C18.9375 34.3125 18.5 33.25 18.5 32V26H45.5V32C45.5 33.25 45.0625 34.3125 44.1875 35.1875C43.3125 36.0625 42.25 36.5 41 36.5H23ZM23 33.5H41C41.425 33.5 41.7812 33.3563 42.0688 33.0688C42.3563 32.7812 42.5 32.425 42.5 32V29H21.5V32C21.5 32.425 21.6438 32.7812 21.9313 33.0688C22.2188 33.3563 22.575 33.5 23 33.5ZM18.5 24.5V21.5H27.5V20C27.5 19.575 27.6437 19.2188 27.9312 18.9313C28.2188 18.6438 28.575 18.5 29 18.5H35C35.425 18.5 35.7812 18.6438 36.0688 18.9313C36.3563 19.2188 36.5 19.575 36.5 20V21.5H45.5V24.5H18.5ZM21.5 33.5C21.5 33.5 21.5 33.3563 21.5 33.0688C21.5 32.7812 21.5 32.425 21.5 32V29V32C21.5 32.425 21.5 32.7812 21.5 33.0688C21.5 33.3563 21.5 33.5 21.5 33.5Z" fill="url(#paint0_linear_553_3164)"/>
<defs>
<linearGradient id="paint0_linear_553_3164" x1="17" y1="18.5" x2="22.3541" y2="49.7259" gradientUnits="userSpaceOnUse">
<stop offset="0.0865384" stop-color="#FF6B6B"/>
<stop offset="0.774038" stop-color="#BA2121"/>
<stop offset="1" stop-color="#670000"/>
</linearGradient>
</defs>
</svg>
