<svg width="460" height="439" viewBox="0 0 460 439" fill="none" xmlns="http://www.w3.org/2000/svg">
<rect x="38.5" y="13.5" width="383" height="362" rx="23.5" fill="white"/>
<rect x="38.5" y="13.5" width="383" height="362" rx="23.5" stroke="#F1F5F9"/>
<g filter="url(#filter0_d_553_3567)">
<rect x="38" y="13" width="384" height="363" rx="24" fill="white" fill-opacity="0.01" shape-rendering="crispEdges"/>
</g>
<path d="M63 142C63 137.581 66.5817 134 71 134C75.4183 134 79 137.581 79 142V262H63V142Z" fill="#C41717" fill-opacity="0.1"/>
<path d="M142.5 77.9998C142.5 73.5815 146.082 69.9998 150.5 69.9998C154.918 69.9998 158.5 73.5815 158.5 77.9998V262H142.5V77.9998Z" fill="#C41717" fill-opacity="0.2"/>
<path d="M222 174C222 169.581 225.582 166 230 166C234.418 166 238 169.581 238 174V262H222V174Z" fill="#C41717" fill-opacity="0.4"/>
<path d="M301.5 110C301.5 105.581 305.082 102 309.5 102C313.918 102 317.5 105.581 317.5 110V262H301.5V110Z" fill="#C41717" fill-opacity="0.6"/>
<path d="M381 45.9998C381 41.5815 384.582 37.9998 389 37.9998C393.418 37.9998 397 41.5815 397 45.9998V262H381V45.9998Z" fill="url(#paint0_linear_553_3567)"/>
<mask id="path-8-inside-1_553_3567" fill="white">
<path d="M63 286H397V315H63V286Z"/>
</mask>
<path d="M397 315V314H63V315V316H397V315Z" fill="#F8FAFC" mask="url(#path-8-inside-1_553_3567)"/>
<path d="M66.976 302L63.154 291.57H64.316L67.676 301.006H67.452L70.798 291.57H71.974L68.152 302H66.976ZM73.206 302V294.496H74.256V302H73.206ZM73.206 293.11V291.57H74.256V293.11H73.206ZM79.8 302.168C79.1 302.168 78.47 301.997 77.91 301.657C77.35 301.316 76.909 300.849 76.587 300.257C76.265 299.664 76.104 298.994 76.104 298.248C76.104 297.492 76.265 296.82 76.587 296.232C76.909 295.644 77.3477 295.179 77.903 294.839C78.4583 294.498 79.0907 294.328 79.8 294.328C80.444 294.328 81.018 294.468 81.522 294.748C82.026 295.028 82.4227 295.406 82.712 295.882L82.544 296.176V291.402H83.594V302H82.544V300.32L82.712 300.474C82.4507 301.015 82.061 301.433 81.543 301.727C81.025 302.021 80.444 302.168 79.8 302.168ZM79.856 301.118C80.36 301.118 80.815 300.992 81.221 300.74C81.627 300.488 81.949 300.145 82.187 299.711C82.425 299.277 82.544 298.789 82.544 298.248C82.544 297.706 82.425 297.219 82.187 296.785C81.949 296.351 81.627 296.008 81.221 295.756C80.815 295.504 80.36 295.378 79.856 295.378C79.3613 295.378 78.9133 295.504 78.512 295.756C78.1107 296.008 77.7957 296.348 77.567 296.778C77.3383 297.207 77.224 297.697 77.224 298.248C77.224 298.789 77.3383 299.277 77.567 299.711C77.7957 300.145 78.1083 300.488 78.505 300.74C78.9017 300.992 79.352 301.118 79.856 301.118ZM89.166 302.168C88.466 302.168 87.8337 301.997 87.269 301.657C86.7043 301.316 86.2587 300.847 85.932 300.25C85.6053 299.652 85.442 298.976 85.442 298.22C85.442 297.464 85.6007 296.794 85.918 296.211C86.2353 295.627 86.667 295.168 87.213 294.832C87.759 294.496 88.3727 294.328 89.054 294.328C89.5953 294.328 90.0783 294.428 90.503 294.629C90.9277 294.829 91.2893 295.1 91.588 295.441C91.8867 295.781 92.1153 296.164 92.274 296.589C92.4327 297.013 92.512 297.45 92.512 297.898C92.512 297.991 92.5073 298.096 92.498 298.213C92.4887 298.329 92.4747 298.448 92.456 298.57H86.114V297.59H91.854L91.35 298.01C91.434 297.496 91.3757 297.037 91.175 296.631C90.9743 296.225 90.6873 295.903 90.314 295.665C89.9407 295.427 89.5207 295.308 89.054 295.308C88.5873 295.308 88.1557 295.429 87.759 295.672C87.3623 295.914 87.052 296.253 86.828 296.687C86.604 297.121 86.5153 297.636 86.562 298.234C86.5153 298.831 86.611 299.351 86.849 299.795C87.087 300.238 87.4137 300.581 87.829 300.824C88.2443 301.066 88.69 301.188 89.166 301.188C89.7167 301.188 90.1787 301.057 90.552 300.796C90.9253 300.534 91.2287 300.208 91.462 299.816L92.358 300.292C92.2087 300.628 91.98 300.938 91.672 301.223C91.364 301.507 90.9977 301.736 90.573 301.909C90.1483 302.081 89.6793 302.168 89.166 302.168ZM97.874 302.168C97.1647 302.168 96.5207 301.997 95.942 301.657C95.3633 301.316 94.9037 300.849 94.563 300.257C94.2223 299.664 94.052 298.99 94.052 298.234C94.052 297.487 94.22 296.82 94.556 296.232C94.892 295.644 95.347 295.179 95.921 294.839C96.495 294.498 97.146 294.328 97.874 294.328C98.602 294.328 99.253 294.496 99.827 294.832C100.401 295.168 100.854 295.63 101.185 296.218C101.516 296.806 101.682 297.478 101.682 298.234C101.682 298.999 101.509 299.678 101.164 300.271C100.819 300.863 100.359 301.328 99.785 301.664C99.211 302 98.574 302.168 97.874 302.168ZM97.874 301.118C98.378 301.118 98.833 300.992 99.239 300.74C99.645 300.488 99.967 300.142 100.205 299.704C100.443 299.265 100.562 298.775 100.562 298.234C100.562 297.692 100.443 297.207 100.205 296.778C99.967 296.348 99.645 296.008 99.239 295.756C98.833 295.504 98.378 295.378 97.874 295.378C97.37 295.378 96.915 295.504 96.509 295.756C96.103 296.008 95.7787 296.348 95.536 296.778C95.2933 297.207 95.172 297.692 95.172 298.234C95.172 298.775 95.2933 299.265 95.536 299.704C95.7787 300.142 96.103 300.488 96.509 300.74C96.915 300.992 97.37 301.118 97.874 301.118ZM110.824 302.168C110.087 302.168 109.41 302.035 108.794 301.769C108.178 301.503 107.644 301.129 107.191 300.649C106.738 300.168 106.386 299.601 106.134 298.948C105.882 298.294 105.756 297.576 105.756 296.792C105.756 296.008 105.882 295.289 106.134 294.636C106.386 293.982 106.738 293.413 107.191 292.928C107.644 292.442 108.178 292.067 108.794 291.801C109.41 291.535 110.087 291.402 110.824 291.402C111.533 291.402 112.17 291.528 112.735 291.78C113.3 292.032 113.776 292.356 114.163 292.753C114.55 293.149 114.828 293.567 114.996 294.006L113.946 294.468C113.685 293.861 113.286 293.373 112.749 293.005C112.212 292.636 111.571 292.452 110.824 292.452C110.059 292.452 109.377 292.634 108.78 292.998C108.183 293.362 107.716 293.868 107.38 294.517C107.044 295.165 106.876 295.924 106.876 296.792C106.876 297.65 107.044 298.406 107.38 299.06C107.716 299.713 108.183 300.219 108.78 300.579C109.377 300.938 110.059 301.118 110.824 301.118C111.571 301.118 112.212 300.936 112.749 300.572C113.286 300.208 113.685 299.722 113.946 299.116L114.996 299.578C114.828 300.007 114.55 300.42 114.163 300.817C113.776 301.213 113.3 301.538 112.735 301.79C112.17 302.042 111.533 302.168 110.824 302.168ZM120.218 302.168C119.509 302.168 118.865 301.997 118.286 301.657C117.707 301.316 117.248 300.849 116.907 300.257C116.566 299.664 116.396 298.99 116.396 298.234C116.396 297.487 116.564 296.82 116.9 296.232C117.236 295.644 117.691 295.179 118.265 294.839C118.839 294.498 119.49 294.328 120.218 294.328C120.946 294.328 121.597 294.496 122.171 294.832C122.745 295.168 123.198 295.63 123.529 296.218C123.86 296.806 124.026 297.478 124.026 298.234C124.026 298.999 123.853 299.678 123.508 300.271C123.163 300.863 122.703 301.328 122.129 301.664C121.555 302 120.918 302.168 120.218 302.168ZM120.218 301.118C120.722 301.118 121.177 300.992 121.583 300.74C121.989 300.488 122.311 300.142 122.549 299.704C122.787 299.265 122.906 298.775 122.906 298.234C122.906 297.692 122.787 297.207 122.549 296.778C122.311 296.348 121.989 296.008 121.583 295.756C121.177 295.504 120.722 295.378 120.218 295.378C119.714 295.378 119.259 295.504 118.853 295.756C118.447 296.008 118.123 296.348 117.88 296.778C117.637 297.207 117.516 297.692 117.516 298.234C117.516 298.775 117.637 299.265 117.88 299.704C118.123 300.142 118.447 300.488 118.853 300.74C119.259 300.992 119.714 301.118 120.218 301.118ZM125.874 302V294.496H126.924V295.924L126.756 295.714C126.961 295.275 127.267 294.934 127.673 294.692C128.079 294.449 128.525 294.328 129.01 294.328C129.589 294.328 130.111 294.491 130.578 294.818C131.045 295.144 131.376 295.569 131.572 296.092L131.278 296.106C131.465 295.527 131.789 295.086 132.251 294.783C132.713 294.479 133.224 294.328 133.784 294.328C134.288 294.328 134.752 294.449 135.177 294.692C135.602 294.934 135.942 295.268 136.199 295.693C136.456 296.117 136.584 296.596 136.584 297.128V302H135.534V297.534C135.534 297.076 135.452 296.689 135.289 296.372C135.126 296.054 134.904 295.809 134.624 295.637C134.344 295.464 134.022 295.378 133.658 295.378C133.303 295.378 132.981 295.464 132.692 295.637C132.403 295.809 132.174 296.057 132.006 296.379C131.838 296.701 131.754 297.086 131.754 297.534V302H130.704V297.534C130.704 297.076 130.622 296.689 130.459 296.372C130.296 296.054 130.074 295.809 129.794 295.637C129.514 295.464 129.192 295.378 128.828 295.378C128.464 295.378 128.14 295.464 127.855 295.637C127.57 295.809 127.344 296.057 127.176 296.379C127.008 296.701 126.924 297.086 126.924 297.534V302H125.874ZM138.586 304.8V294.496H139.636V296.176L139.468 295.882C139.767 295.406 140.166 295.028 140.665 294.748C141.164 294.468 141.736 294.328 142.38 294.328C143.089 294.328 143.722 294.498 144.277 294.839C144.832 295.179 145.271 295.644 145.593 296.232C145.915 296.82 146.076 297.492 146.076 298.248C146.076 298.994 145.915 299.664 145.593 300.257C145.271 300.849 144.832 301.316 144.277 301.657C143.722 301.997 143.089 302.168 142.38 302.168C141.736 302.168 141.155 302.021 140.637 301.727C140.119 301.433 139.729 301.015 139.468 300.474L139.636 300.32V304.8H138.586ZM142.324 301.118C142.828 301.118 143.278 300.992 143.675 300.74C144.072 300.488 144.384 300.145 144.613 299.711C144.842 299.277 144.956 298.789 144.956 298.248C144.956 297.697 144.842 297.207 144.613 296.778C144.384 296.348 144.072 296.008 143.675 295.756C143.278 295.504 142.828 295.378 142.324 295.378C141.82 295.378 141.365 295.504 140.959 295.756C140.553 296.008 140.231 296.351 139.993 296.785C139.755 297.219 139.636 297.706 139.636 298.248C139.636 298.789 139.755 299.277 139.993 299.711C140.231 300.145 140.553 300.488 140.959 300.74C141.365 300.992 141.82 301.118 142.324 301.118ZM147.924 302V291.402H148.974V302H147.924ZM154.546 302.168C153.846 302.168 153.214 301.997 152.649 301.657C152.084 301.316 151.639 300.847 151.312 300.25C150.985 299.652 150.822 298.976 150.822 298.22C150.822 297.464 150.981 296.794 151.298 296.211C151.615 295.627 152.047 295.168 152.593 294.832C153.139 294.496 153.753 294.328 154.434 294.328C154.975 294.328 155.458 294.428 155.883 294.629C156.308 294.829 156.669 295.1 156.968 295.441C157.267 295.781 157.495 296.164 157.654 296.589C157.813 297.013 157.892 297.45 157.892 297.898C157.892 297.991 157.887 298.096 157.878 298.213C157.869 298.329 157.855 298.448 157.836 298.57H151.494V297.59H157.234L156.73 298.01C156.814 297.496 156.756 297.037 156.555 296.631C156.354 296.225 156.067 295.903 155.694 295.665C155.321 295.427 154.901 295.308 154.434 295.308C153.967 295.308 153.536 295.429 153.139 295.672C152.742 295.914 152.432 296.253 152.208 296.687C151.984 297.121 151.895 297.636 151.942 298.234C151.895 298.831 151.991 299.351 152.229 299.795C152.467 300.238 152.794 300.581 153.209 300.824C153.624 301.066 154.07 301.188 154.546 301.188C155.097 301.188 155.559 301.057 155.932 300.796C156.305 300.534 156.609 300.208 156.842 299.816L157.738 300.292C157.589 300.628 157.36 300.938 157.052 301.223C156.744 301.507 156.378 301.736 155.953 301.909C155.528 302.081 155.059 302.168 154.546 302.168ZM162.61 302.084C161.938 302.084 161.42 301.888 161.056 301.496C160.692 301.104 160.51 300.544 160.51 299.816V295.546H159.124V294.496H159.474C159.791 294.496 160.043 294.391 160.23 294.181C160.417 293.971 160.51 293.707 160.51 293.39V292.76H161.56V294.496H163.212V295.546H161.56V299.816C161.56 300.068 161.597 300.289 161.672 300.481C161.747 300.672 161.875 300.824 162.057 300.936C162.239 301.048 162.484 301.104 162.792 301.104C162.867 301.104 162.955 301.099 163.058 301.09C163.161 301.08 163.249 301.071 163.324 301.062V302C163.212 302.028 163.086 302.049 162.946 302.063C162.806 302.077 162.694 302.084 162.61 302.084ZM165.172 302V294.496H166.222V302H165.172ZM165.172 293.11V291.57H166.222V293.11H165.172ZM171.892 302.168C171.183 302.168 170.539 301.997 169.96 301.657C169.381 301.316 168.922 300.849 168.581 300.257C168.24 299.664 168.07 298.99 168.07 298.234C168.07 297.487 168.238 296.82 168.574 296.232C168.91 295.644 169.365 295.179 169.939 294.839C170.513 294.498 171.164 294.328 171.892 294.328C172.62 294.328 173.271 294.496 173.845 294.832C174.419 295.168 174.872 295.63 175.203 296.218C175.534 296.806 175.7 297.478 175.7 298.234C175.7 298.999 175.527 299.678 175.182 300.271C174.837 300.863 174.377 301.328 173.803 301.664C173.229 302 172.592 302.168 171.892 302.168ZM171.892 301.118C172.396 301.118 172.851 300.992 173.257 300.74C173.663 300.488 173.985 300.142 174.223 299.704C174.461 299.265 174.58 298.775 174.58 298.234C174.58 297.692 174.461 297.207 174.223 296.778C173.985 296.348 173.663 296.008 173.257 295.756C172.851 295.504 172.396 295.378 171.892 295.378C171.388 295.378 170.933 295.504 170.527 295.756C170.121 296.008 169.797 296.348 169.554 296.778C169.311 297.207 169.19 297.692 169.19 298.234C169.19 298.775 169.311 299.265 169.554 299.704C169.797 300.142 170.121 300.488 170.527 300.74C170.933 300.992 171.388 301.118 171.892 301.118ZM177.548 302V294.496H178.598V295.952L178.36 295.896C178.547 295.41 178.852 295.028 179.277 294.748C179.702 294.468 180.194 294.328 180.754 294.328C181.286 294.328 181.764 294.449 182.189 294.692C182.614 294.934 182.95 295.268 183.197 295.693C183.444 296.117 183.568 296.596 183.568 297.128V302H182.518V297.534C182.518 297.076 182.436 296.689 182.273 296.372C182.11 296.054 181.881 295.809 181.587 295.637C181.293 295.464 180.955 295.378 180.572 295.378C180.189 295.378 179.849 295.464 179.55 295.637C179.251 295.809 179.018 296.057 178.85 296.379C178.682 296.701 178.598 297.086 178.598 297.534V302H177.548ZM188.104 302V291.57H191.688C192.369 291.57 192.967 291.703 193.48 291.969C193.993 292.235 194.392 292.608 194.677 293.089C194.962 293.569 195.104 294.127 195.104 294.762C195.104 295.499 194.91 296.129 194.523 296.652C194.136 297.174 193.611 297.543 192.948 297.758L195.384 302H194.068L191.52 297.506L192.276 297.94H189.224V302H188.104ZM189.224 296.89H191.744C192.192 296.89 192.584 296.803 192.92 296.631C193.256 296.458 193.517 296.211 193.704 295.889C193.891 295.567 193.984 295.186 193.984 294.748C193.984 294.309 193.891 293.931 193.704 293.614C193.517 293.296 193.256 293.051 192.92 292.879C192.584 292.706 192.192 292.62 191.744 292.62H189.224V296.89ZM199.094 302.168C198.618 302.168 198.193 302.077 197.82 301.895C197.447 301.713 197.153 301.463 196.938 301.146C196.723 300.828 196.616 300.464 196.616 300.054C196.616 299.662 196.7 299.305 196.868 298.983C197.036 298.661 197.297 298.388 197.652 298.164C198.007 297.94 198.459 297.781 199.01 297.688L201.95 297.198V298.15L199.262 298.598C198.721 298.691 198.331 298.864 198.093 299.116C197.855 299.368 197.736 299.666 197.736 300.012C197.736 300.348 197.869 300.632 198.135 300.866C198.401 301.099 198.744 301.216 199.164 301.216C199.677 301.216 200.125 301.106 200.508 300.887C200.891 300.667 201.189 300.371 201.404 299.998C201.619 299.624 201.726 299.209 201.726 298.752V296.848C201.726 296.4 201.563 296.036 201.236 295.756C200.909 295.476 200.485 295.336 199.962 295.336C199.505 295.336 199.103 295.45 198.758 295.679C198.413 295.907 198.156 296.204 197.988 296.568L197.036 296.05C197.176 295.732 197.398 295.443 197.701 295.182C198.004 294.92 198.352 294.713 198.744 294.559C199.136 294.405 199.542 294.328 199.962 294.328C200.513 294.328 201 294.435 201.425 294.65C201.85 294.864 202.181 295.161 202.419 295.539C202.657 295.917 202.776 296.353 202.776 296.848V302H201.726V300.502L201.88 300.656C201.749 300.936 201.546 301.19 201.271 301.419C200.996 301.647 200.674 301.829 200.305 301.965C199.936 302.1 199.533 302.168 199.094 302.168ZM207.662 302.084C206.99 302.084 206.472 301.888 206.108 301.496C205.744 301.104 205.562 300.544 205.562 299.816V295.546H204.176V294.496H204.526C204.843 294.496 205.095 294.391 205.282 294.181C205.469 293.971 205.562 293.707 205.562 293.39V292.76H206.612V294.496H208.264V295.546H206.612V299.816C206.612 300.068 206.649 300.289 206.724 300.481C206.799 300.672 206.927 300.824 207.109 300.936C207.291 301.048 207.536 301.104 207.844 301.104C207.919 301.104 208.007 301.099 208.11 301.09C208.213 301.08 208.301 301.071 208.376 301.062V302C208.264 302.028 208.138 302.049 207.998 302.063C207.858 302.077 207.746 302.084 207.662 302.084ZM213.36 302.168C212.66 302.168 212.028 301.997 211.463 301.657C210.898 301.316 210.453 300.847 210.126 300.25C209.799 299.652 209.636 298.976 209.636 298.22C209.636 297.464 209.795 296.794 210.112 296.211C210.429 295.627 210.861 295.168 211.407 294.832C211.953 294.496 212.567 294.328 213.248 294.328C213.789 294.328 214.272 294.428 214.697 294.629C215.122 294.829 215.483 295.1 215.782 295.441C216.081 295.781 216.309 296.164 216.468 296.589C216.627 297.013 216.706 297.45 216.706 297.898C216.706 297.991 216.701 298.096 216.692 298.213C216.683 298.329 216.669 298.448 216.65 298.57H210.308V297.59H216.048L215.544 298.01C215.628 297.496 215.57 297.037 215.369 296.631C215.168 296.225 214.881 295.903 214.508 295.665C214.135 295.427 213.715 295.308 213.248 295.308C212.781 295.308 212.35 295.429 211.953 295.672C211.556 295.914 211.246 296.253 211.022 296.687C210.798 297.121 210.709 297.636 210.756 298.234C210.709 298.831 210.805 299.351 211.043 299.795C211.281 300.238 211.608 300.581 212.023 300.824C212.438 301.066 212.884 301.188 213.36 301.188C213.911 301.188 214.373 301.057 214.746 300.796C215.119 300.534 215.423 300.208 215.656 299.816L216.552 300.292C216.403 300.628 216.174 300.938 215.866 301.223C215.558 301.507 215.192 301.736 214.767 301.909C214.342 302.081 213.873 302.168 213.36 302.168Z" fill="#64748B"/>
<path d="M366.876 302L370.418 297.443L370.733 297.779C370.6 297.877 370.466 297.958 370.332 298.022C370.198 298.086 370.058 298.132 369.911 298.16C369.764 298.188 369.607 298.202 369.442 298.202C368.807 298.202 368.242 298.058 367.746 297.77C367.25 297.482 366.86 297.088 366.575 296.589C366.29 296.089 366.148 295.525 366.148 294.895C366.148 294.218 366.304 293.618 366.615 293.096C366.927 292.573 367.356 292.16 367.903 291.857C368.45 291.553 369.073 291.402 369.771 291.402C370.48 291.402 371.106 291.552 371.648 291.853C372.191 292.154 372.617 292.564 372.928 293.082C373.238 293.6 373.393 294.191 373.393 294.856C373.393 295.195 373.357 295.532 373.286 295.868C373.215 296.204 373.084 296.561 372.893 296.941C372.701 297.32 372.425 297.746 372.063 298.22L369.155 302H366.876ZM369.771 296.617C370.097 296.617 370.388 296.543 370.644 296.395C370.899 296.246 371.103 296.041 371.256 295.779C371.409 295.516 371.486 295.214 371.486 294.874C371.486 294.524 371.409 294.218 371.255 293.955C371.101 293.693 370.896 293.487 370.64 293.339C370.385 293.191 370.095 293.117 369.771 293.117C369.453 293.117 369.165 293.191 368.906 293.339C368.647 293.487 368.441 293.693 368.287 293.955C368.133 294.218 368.056 294.524 368.056 294.874C368.056 295.214 368.132 295.516 368.285 295.779C368.438 296.041 368.644 296.246 368.904 296.395C369.164 296.543 369.453 296.617 369.771 296.617ZM374.632 302V300.565L377.46 297.6C378.015 297.017 378.445 296.55 378.748 296.199C379.051 295.847 379.265 295.546 379.39 295.294C379.515 295.042 379.578 294.786 379.578 294.527C379.578 294.084 379.439 293.738 379.163 293.49C378.886 293.241 378.532 293.117 378.101 293.117C377.657 293.117 377.27 293.243 376.94 293.497C376.61 293.75 376.374 294.124 376.232 294.618L374.559 294.1C374.673 293.552 374.903 293.076 375.248 292.672C375.593 292.269 376.015 291.956 376.512 291.734C377.009 291.513 377.537 291.402 378.097 291.402C378.771 291.402 379.363 291.524 379.872 291.769C380.38 292.014 380.776 292.356 381.06 292.795C381.343 293.233 381.485 293.744 381.485 294.328C381.485 294.706 381.416 295.075 381.277 295.436C381.138 295.796 380.928 296.167 380.647 296.549C380.366 296.93 380.003 297.352 379.56 297.814L377.103 300.39H381.629V302H374.632ZM384.488 302L392.944 291.57H394.901L386.445 302H384.488ZM386.119 296.862C385.601 296.862 385.135 296.738 384.721 296.491C384.307 296.243 383.978 295.914 383.734 295.504C383.49 295.093 383.368 294.636 383.368 294.132C383.368 293.628 383.49 293.168 383.734 292.753C383.978 292.337 384.307 292.008 384.721 291.766C385.135 291.523 385.601 291.402 386.119 291.402C386.637 291.402 387.101 291.523 387.512 291.766C387.923 292.008 388.249 292.337 388.492 292.753C388.735 293.168 388.856 293.628 388.856 294.132C388.856 294.636 388.735 295.093 388.492 295.504C388.249 295.914 387.923 296.243 387.512 296.491C387.101 296.738 386.637 296.862 386.119 296.862ZM386.115 295.455C386.388 295.455 386.619 295.391 386.807 295.262C386.995 295.134 387.138 294.968 387.237 294.766C387.336 294.563 387.386 294.351 387.386 294.13C387.386 293.903 387.336 293.69 387.237 293.491C387.138 293.293 386.995 293.13 386.807 293.001C386.619 292.873 386.388 292.809 386.115 292.809C385.849 292.809 385.621 292.873 385.431 293.001C385.241 293.13 385.095 293.293 384.992 293.492C384.889 293.691 384.838 293.904 384.838 294.131C384.838 294.351 384.889 294.562 384.992 294.765C385.095 294.968 385.241 295.134 385.431 295.262C385.621 295.391 385.849 295.455 386.115 295.455ZM393.228 302.168C392.71 302.168 392.243 302.044 391.829 301.797C391.415 301.549 391.086 301.22 390.842 300.81C390.598 300.399 390.477 299.942 390.477 299.438C390.477 298.934 390.598 298.474 390.842 298.059C391.086 297.643 391.415 297.314 391.829 297.072C392.243 296.829 392.71 296.708 393.228 296.708C393.746 296.708 394.21 296.829 394.621 297.072C395.031 297.314 395.358 297.643 395.601 298.059C395.843 298.474 395.965 298.934 395.965 299.438C395.965 299.942 395.843 300.399 395.601 300.81C395.358 301.22 395.031 301.549 394.621 301.797C394.21 302.044 393.746 302.168 393.228 302.168ZM393.229 300.761C393.499 300.761 393.727 300.697 393.915 300.568C394.103 300.44 394.247 300.274 394.346 300.072C394.445 299.869 394.495 299.657 394.495 299.436C394.495 299.209 394.445 298.996 394.346 298.797C394.247 298.599 394.103 298.436 393.915 298.307C393.727 298.179 393.499 298.115 393.229 298.115C392.967 298.115 392.739 298.179 392.545 298.307C392.351 298.436 392.203 298.599 392.101 298.798C391.998 298.997 391.947 299.21 391.947 299.437C391.947 299.657 391.998 299.868 392.101 300.071C392.203 300.274 392.351 300.44 392.545 300.568C392.739 300.697 392.967 300.761 393.229 300.761Z" fill="#0F172A"/>
<path d="M64.232 347V336.57H67.816C68.4973 336.57 69.0947 336.703 69.608 336.969C70.1213 337.235 70.5203 337.608 70.805 338.089C71.0897 338.569 71.232 339.127 71.232 339.762C71.232 340.499 71.0383 341.129 70.651 341.652C70.2637 342.174 69.7387 342.543 69.076 342.758L71.512 347H70.196L67.648 342.506L68.404 342.94H65.352V347H64.232ZM65.352 341.89H67.872C68.32 341.89 68.712 341.803 69.048 341.631C69.384 341.458 69.6453 341.211 69.832 340.889C70.0187 340.567 70.112 340.186 70.112 339.748C70.112 339.309 70.0187 338.931 69.832 338.614C69.6453 338.296 69.384 338.051 69.048 337.879C68.712 337.706 68.32 337.62 67.872 337.62H65.352V341.89ZM76.048 347.168C75.348 347.168 74.7157 346.997 74.151 346.657C73.5863 346.316 73.1407 345.847 72.814 345.25C72.4873 344.652 72.324 343.976 72.324 343.22C72.324 342.464 72.4827 341.794 72.8 341.211C73.1173 340.627 73.549 340.168 74.095 339.832C74.641 339.496 75.2547 339.328 75.936 339.328C76.4773 339.328 76.9603 339.428 77.385 339.629C77.8097 339.829 78.1713 340.1 78.47 340.441C78.7687 340.781 78.9973 341.164 79.156 341.589C79.3147 342.013 79.394 342.45 79.394 342.898C79.394 342.991 79.3893 343.096 79.38 343.213C79.3707 343.329 79.3567 343.448 79.338 343.57H72.996V342.59H78.736L78.232 343.01C78.316 342.496 78.2577 342.037 78.057 341.631C77.8563 341.225 77.5693 340.903 77.196 340.665C76.8227 340.427 76.4027 340.308 75.936 340.308C75.4693 340.308 75.0377 340.429 74.641 340.672C74.2443 340.914 73.934 341.253 73.71 341.687C73.486 342.121 73.3973 342.636 73.444 343.234C73.3973 343.831 73.493 344.351 73.731 344.795C73.969 345.238 74.2957 345.581 74.711 345.824C75.1263 346.066 75.572 346.188 76.048 346.188C76.5987 346.188 77.0607 346.057 77.434 345.796C77.8073 345.534 78.1107 345.208 78.344 344.816L79.24 345.292C79.0907 345.628 78.862 345.938 78.554 346.223C78.246 346.507 77.8797 346.736 77.455 346.909C77.0303 347.081 76.5613 347.168 76.048 347.168ZM81.242 349.8V339.496H82.292V341.176L82.124 340.882C82.4227 340.406 82.8217 340.028 83.321 339.748C83.8203 339.468 84.392 339.328 85.036 339.328C85.7453 339.328 86.3777 339.498 86.933 339.839C87.4883 340.179 87.927 340.644 88.249 341.232C88.571 341.82 88.732 342.492 88.732 343.248C88.732 343.994 88.571 344.664 88.249 345.257C87.927 345.849 87.4883 346.316 86.933 346.657C86.3777 346.997 85.7453 347.168 85.036 347.168C84.392 347.168 83.811 347.021 83.293 346.727C82.775 346.433 82.3853 346.015 82.124 345.474L82.292 345.32V349.8H81.242ZM84.98 346.118C85.484 346.118 85.9343 345.992 86.331 345.74C86.7277 345.488 87.0403 345.145 87.269 344.711C87.4977 344.277 87.612 343.789 87.612 343.248C87.612 342.697 87.4977 342.207 87.269 341.778C87.0403 341.348 86.7277 341.008 86.331 340.756C85.9343 340.504 85.484 340.378 84.98 340.378C84.476 340.378 84.021 340.504 83.615 340.756C83.209 341.008 82.887 341.351 82.649 341.785C82.411 342.219 82.292 342.706 82.292 343.248C82.292 343.789 82.411 344.277 82.649 344.711C82.887 345.145 83.209 345.488 83.615 345.74C84.021 345.992 84.476 346.118 84.98 346.118ZM93.996 347.168C93.296 347.168 92.6637 346.997 92.099 346.657C91.5343 346.316 91.0887 345.847 90.762 345.25C90.4353 344.652 90.272 343.976 90.272 343.22C90.272 342.464 90.4307 341.794 90.748 341.211C91.0653 340.627 91.497 340.168 92.043 339.832C92.589 339.496 93.2027 339.328 93.884 339.328C94.4253 339.328 94.9083 339.428 95.333 339.629C95.7577 339.829 96.1193 340.1 96.418 340.441C96.7167 340.781 96.9453 341.164 97.104 341.589C97.2627 342.013 97.342 342.45 97.342 342.898C97.342 342.991 97.3373 343.096 97.328 343.213C97.3187 343.329 97.3047 343.448 97.286 343.57H90.944V342.59H96.684L96.18 343.01C96.264 342.496 96.2057 342.037 96.005 341.631C95.8043 341.225 95.5173 340.903 95.144 340.665C94.7707 340.427 94.3507 340.308 93.884 340.308C93.4173 340.308 92.9857 340.429 92.589 340.672C92.1923 340.914 91.882 341.253 91.658 341.687C91.434 342.121 91.3453 342.636 91.392 343.234C91.3453 343.831 91.441 344.351 91.679 344.795C91.917 345.238 92.2437 345.581 92.659 345.824C93.0743 346.066 93.52 346.188 93.996 346.188C94.5467 346.188 95.0087 346.057 95.382 345.796C95.7553 345.534 96.0587 345.208 96.292 344.816L97.188 345.292C97.0387 345.628 96.81 345.938 96.502 346.223C96.194 346.507 95.8277 346.736 95.403 346.909C94.9783 347.081 94.5093 347.168 93.996 347.168ZM101.22 347.168C100.744 347.168 100.319 347.077 99.946 346.895C99.5727 346.713 99.2787 346.463 99.064 346.146C98.8493 345.828 98.742 345.464 98.742 345.054C98.742 344.662 98.826 344.305 98.994 343.983C99.162 343.661 99.4233 343.388 99.778 343.164C100.133 342.94 100.585 342.781 101.136 342.688L104.076 342.198V343.15L101.388 343.598C100.847 343.691 100.457 343.864 100.219 344.116C99.981 344.368 99.862 344.666 99.862 345.012C99.862 345.348 99.995 345.632 100.261 345.866C100.527 346.099 100.87 346.216 101.29 346.216C101.803 346.216 102.251 346.106 102.634 345.887C103.017 345.667 103.315 345.371 103.53 344.998C103.745 344.624 103.852 344.209 103.852 343.752V341.848C103.852 341.4 103.689 341.036 103.362 340.756C103.035 340.476 102.611 340.336 102.088 340.336C101.631 340.336 101.229 340.45 100.884 340.679C100.539 340.907 100.282 341.204 100.114 341.568L99.162 341.05C99.302 340.732 99.5237 340.443 99.827 340.182C100.13 339.92 100.478 339.713 100.87 339.559C101.262 339.405 101.668 339.328 102.088 339.328C102.639 339.328 103.126 339.435 103.551 339.65C103.976 339.864 104.307 340.161 104.545 340.539C104.783 340.917 104.902 341.353 104.902 341.848V347H103.852V345.502L104.006 345.656C103.875 345.936 103.672 346.19 103.397 346.419C103.122 346.647 102.8 346.829 102.431 346.965C102.062 347.1 101.659 347.168 101.22 347.168ZM109.788 347.084C109.116 347.084 108.598 346.888 108.234 346.496C107.87 346.104 107.688 345.544 107.688 344.816V340.546H106.302V339.496H106.652C106.969 339.496 107.221 339.391 107.408 339.181C107.595 338.971 107.688 338.707 107.688 338.39V337.76H108.738V339.496H110.39V340.546H108.738V344.816C108.738 345.068 108.775 345.289 108.85 345.481C108.925 345.672 109.053 345.824 109.235 345.936C109.417 346.048 109.662 346.104 109.97 346.104C110.045 346.104 110.133 346.099 110.236 346.09C110.339 346.08 110.427 346.071 110.502 346.062V347C110.39 347.028 110.264 347.049 110.124 347.063C109.984 347.077 109.872 347.084 109.788 347.084ZM119.644 347.168C118.907 347.168 118.23 347.035 117.614 346.769C116.998 346.503 116.464 346.129 116.011 345.649C115.558 345.168 115.206 344.601 114.954 343.948C114.702 343.294 114.576 342.576 114.576 341.792C114.576 341.008 114.702 340.289 114.954 339.636C115.206 338.982 115.558 338.413 116.011 337.928C116.464 337.442 116.998 337.067 117.614 336.801C118.23 336.535 118.907 336.402 119.644 336.402C120.353 336.402 120.99 336.528 121.555 336.78C122.12 337.032 122.596 337.356 122.983 337.753C123.37 338.149 123.648 338.567 123.816 339.006L122.766 339.468C122.505 338.861 122.106 338.373 121.569 338.005C121.032 337.636 120.391 337.452 119.644 337.452C118.879 337.452 118.197 337.634 117.6 337.998C117.003 338.362 116.536 338.868 116.2 339.517C115.864 340.165 115.696 340.924 115.696 341.792C115.696 342.65 115.864 343.406 116.2 344.06C116.536 344.713 117.003 345.219 117.6 345.579C118.197 345.938 118.879 346.118 119.644 346.118C120.391 346.118 121.032 345.936 121.569 345.572C122.106 345.208 122.505 344.722 122.766 344.116L123.816 344.578C123.648 345.007 123.37 345.42 122.983 345.817C122.596 346.213 122.12 346.538 121.555 346.79C120.99 347.042 120.353 347.168 119.644 347.168ZM128.324 347.168C127.801 347.168 127.325 347.044 126.896 346.797C126.467 346.549 126.128 346.204 125.881 345.761C125.634 345.317 125.51 344.806 125.51 344.228V339.496H126.56V344.102C126.56 344.503 126.642 344.855 126.805 345.159C126.968 345.462 127.197 345.698 127.491 345.866C127.785 346.034 128.123 346.118 128.506 346.118C128.889 346.118 129.229 346.031 129.528 345.859C129.827 345.686 130.06 345.439 130.228 345.117C130.396 344.795 130.48 344.41 130.48 343.962V339.496H131.53V347H130.48V345.544L130.718 345.6C130.541 346.085 130.237 346.468 129.808 346.748C129.379 347.028 128.884 347.168 128.324 347.168ZM136.29 347.168C135.571 347.168 134.941 346.986 134.4 346.622C133.859 346.258 133.467 345.763 133.224 345.138L134.106 344.718C134.321 345.175 134.622 345.539 135.009 345.81C135.396 346.08 135.823 346.216 136.29 346.216C136.738 346.216 137.116 346.106 137.424 345.887C137.732 345.667 137.886 345.38 137.886 345.026C137.886 344.764 137.811 344.557 137.662 344.403C137.513 344.249 137.34 344.13 137.144 344.046C136.948 343.962 136.775 343.901 136.626 343.864L135.548 343.556C134.857 343.36 134.358 343.084 134.05 342.73C133.742 342.375 133.588 341.964 133.588 341.498C133.588 341.059 133.7 340.676 133.924 340.35C134.148 340.023 134.451 339.771 134.834 339.594C135.217 339.416 135.641 339.328 136.108 339.328C136.743 339.328 137.319 339.493 137.837 339.825C138.355 340.156 138.721 340.616 138.936 341.204L138.04 341.624C137.853 341.204 137.585 340.875 137.235 340.637C136.885 340.399 136.495 340.28 136.066 340.28C135.646 340.28 135.31 340.387 135.058 340.602C134.806 340.816 134.68 341.087 134.68 341.414C134.68 341.666 134.745 341.866 134.876 342.016C135.007 342.165 135.158 342.277 135.331 342.352C135.504 342.426 135.655 342.482 135.786 342.52L137.032 342.884C137.639 343.061 138.112 343.336 138.453 343.71C138.794 344.083 138.964 344.522 138.964 345.026C138.964 345.436 138.85 345.805 138.621 346.132C138.392 346.458 138.077 346.713 137.676 346.895C137.275 347.077 136.813 347.168 136.29 347.168ZM143.682 347.084C143.01 347.084 142.492 346.888 142.128 346.496C141.764 346.104 141.582 345.544 141.582 344.816V340.546H140.196V339.496H140.546C140.863 339.496 141.115 339.391 141.302 339.181C141.489 338.971 141.582 338.707 141.582 338.39V337.76H142.632V339.496H144.284V340.546H142.632V344.816C142.632 345.068 142.669 345.289 142.744 345.481C142.819 345.672 142.947 345.824 143.129 345.936C143.311 346.048 143.556 346.104 143.864 346.104C143.939 346.104 144.027 346.099 144.13 346.09C144.233 346.08 144.321 346.071 144.396 346.062V347C144.284 347.028 144.158 347.049 144.018 347.063C143.878 347.077 143.766 347.084 143.682 347.084ZM149.478 347.168C148.769 347.168 148.125 346.997 147.546 346.657C146.967 346.316 146.508 345.849 146.167 345.257C145.826 344.664 145.656 343.99 145.656 343.234C145.656 342.487 145.824 341.82 146.16 341.232C146.496 340.644 146.951 340.179 147.525 339.839C148.099 339.498 148.75 339.328 149.478 339.328C150.206 339.328 150.857 339.496 151.431 339.832C152.005 340.168 152.458 340.63 152.789 341.218C153.12 341.806 153.286 342.478 153.286 343.234C153.286 343.999 153.113 344.678 152.768 345.271C152.423 345.863 151.963 346.328 151.389 346.664C150.815 347 150.178 347.168 149.478 347.168ZM149.478 346.118C149.982 346.118 150.437 345.992 150.843 345.74C151.249 345.488 151.571 345.142 151.809 344.704C152.047 344.265 152.166 343.775 152.166 343.234C152.166 342.692 152.047 342.207 151.809 341.778C151.571 341.348 151.249 341.008 150.843 340.756C150.437 340.504 149.982 340.378 149.478 340.378C148.974 340.378 148.519 340.504 148.113 340.756C147.707 341.008 147.383 341.348 147.14 341.778C146.897 342.207 146.776 342.692 146.776 343.234C146.776 343.775 146.897 344.265 147.14 344.704C147.383 345.142 147.707 345.488 148.113 345.74C148.519 345.992 148.974 346.118 149.478 346.118ZM155.134 347V339.496H156.184V340.924L156.016 340.714C156.221 340.275 156.527 339.934 156.933 339.692C157.339 339.449 157.785 339.328 158.27 339.328C158.849 339.328 159.371 339.491 159.838 339.818C160.305 340.144 160.636 340.569 160.832 341.092L160.538 341.106C160.725 340.527 161.049 340.086 161.511 339.783C161.973 339.479 162.484 339.328 163.044 339.328C163.548 339.328 164.012 339.449 164.437 339.692C164.862 339.934 165.202 340.268 165.459 340.693C165.716 341.117 165.844 341.596 165.844 342.128V347H164.794V342.534C164.794 342.076 164.712 341.689 164.549 341.372C164.386 341.054 164.164 340.809 163.884 340.637C163.604 340.464 163.282 340.378 162.918 340.378C162.563 340.378 162.241 340.464 161.952 340.637C161.663 340.809 161.434 341.057 161.266 341.379C161.098 341.701 161.014 342.086 161.014 342.534V347H159.964V342.534C159.964 342.076 159.882 341.689 159.719 341.372C159.556 341.054 159.334 340.809 159.054 340.637C158.774 340.464 158.452 340.378 158.088 340.378C157.724 340.378 157.4 340.464 157.115 340.637C156.83 340.809 156.604 341.057 156.436 341.379C156.268 341.701 156.184 342.086 156.184 342.534V347H155.134ZM171.262 347.168C170.562 347.168 169.93 346.997 169.365 346.657C168.8 346.316 168.355 345.847 168.028 345.25C167.701 344.652 167.538 343.976 167.538 343.22C167.538 342.464 167.697 341.794 168.014 341.211C168.331 340.627 168.763 340.168 169.309 339.832C169.855 339.496 170.469 339.328 171.15 339.328C171.691 339.328 172.174 339.428 172.599 339.629C173.024 339.829 173.385 340.1 173.684 340.441C173.983 340.781 174.211 341.164 174.37 341.589C174.529 342.013 174.608 342.45 174.608 342.898C174.608 342.991 174.603 343.096 174.594 343.213C174.585 343.329 174.571 343.448 174.552 343.57H168.21V342.59H173.95L173.446 343.01C173.53 342.496 173.472 342.037 173.271 341.631C173.07 341.225 172.783 340.903 172.41 340.665C172.037 340.427 171.617 340.308 171.15 340.308C170.683 340.308 170.252 340.429 169.855 340.672C169.458 340.914 169.148 341.253 168.924 341.687C168.7 342.121 168.611 342.636 168.658 343.234C168.611 343.831 168.707 344.351 168.945 344.795C169.183 345.238 169.51 345.581 169.925 345.824C170.34 346.066 170.786 346.188 171.262 346.188C171.813 346.188 172.275 346.057 172.648 345.796C173.021 345.534 173.325 345.208 173.558 344.816L174.454 345.292C174.305 345.628 174.076 345.938 173.768 346.223C173.46 346.507 173.094 346.736 172.669 346.909C172.244 347.081 171.775 347.168 171.262 347.168ZM176.456 347V339.496H177.506V340.728L177.366 340.546C177.543 340.191 177.812 339.911 178.171 339.706C178.53 339.5 178.967 339.398 179.48 339.398H179.956V340.448H179.298C178.757 340.448 178.323 340.616 177.996 340.952C177.669 341.288 177.506 341.764 177.506 342.38V347H176.456ZM183.792 347.168C183.073 347.168 182.443 346.986 181.902 346.622C181.361 346.258 180.969 345.763 180.726 345.138L181.608 344.718C181.823 345.175 182.124 345.539 182.511 345.81C182.898 346.08 183.325 346.216 183.792 346.216C184.24 346.216 184.618 346.106 184.926 345.887C185.234 345.667 185.388 345.38 185.388 345.026C185.388 344.764 185.313 344.557 185.164 344.403C185.015 344.249 184.842 344.13 184.646 344.046C184.45 343.962 184.277 343.901 184.128 343.864L183.05 343.556C182.359 343.36 181.86 343.084 181.552 342.73C181.244 342.375 181.09 341.964 181.09 341.498C181.09 341.059 181.202 340.676 181.426 340.35C181.65 340.023 181.953 339.771 182.336 339.594C182.719 339.416 183.143 339.328 183.61 339.328C184.245 339.328 184.821 339.493 185.339 339.825C185.857 340.156 186.223 340.616 186.438 341.204L185.542 341.624C185.355 341.204 185.087 340.875 184.737 340.637C184.387 340.399 183.997 340.28 183.568 340.28C183.148 340.28 182.812 340.387 182.56 340.602C182.308 340.816 182.182 341.087 182.182 341.414C182.182 341.666 182.247 341.866 182.378 342.016C182.509 342.165 182.66 342.277 182.833 342.352C183.006 342.426 183.157 342.482 183.288 342.52L184.534 342.884C185.141 343.061 185.614 343.336 185.955 343.71C186.296 344.083 186.466 344.522 186.466 345.026C186.466 345.436 186.352 345.805 186.123 346.132C185.894 346.458 185.579 346.713 185.178 346.895C184.777 347.077 184.315 347.168 183.792 347.168Z" fill="#64748B"/>
<path d="M369.319 347V344.704H364.527V343.111L369.214 336.57H371.191V343.111H372.717V344.704H371.191V347H369.319ZM365.927 343.801L365.591 343.111H369.319V338.071L369.816 338.222L365.927 343.801ZM378.475 347V344.704H373.683V343.111L378.37 336.57H380.347V343.111H381.873V344.704H380.347V347H378.475ZM375.083 343.801L374.747 343.111H378.475V338.071L378.972 338.222L375.083 343.801ZM384.484 347L392.94 336.57H394.897L386.441 347H384.484ZM386.115 341.862C385.597 341.862 385.131 341.738 384.717 341.491C384.303 341.243 383.974 340.914 383.73 340.504C383.486 340.093 383.364 339.636 383.364 339.132C383.364 338.628 383.486 338.168 383.73 337.753C383.974 337.337 384.303 337.008 384.717 336.766C385.131 336.523 385.597 336.402 386.115 336.402C386.633 336.402 387.097 336.523 387.508 336.766C387.919 337.008 388.245 337.337 388.488 337.753C388.731 338.168 388.852 338.628 388.852 339.132C388.852 339.636 388.731 340.093 388.488 340.504C388.245 340.914 387.919 341.243 387.508 341.491C387.097 341.738 386.633 341.862 386.115 341.862ZM386.111 340.455C386.384 340.455 386.615 340.391 386.803 340.262C386.991 340.134 387.134 339.968 387.233 339.766C387.332 339.563 387.382 339.351 387.382 339.13C387.382 338.903 387.332 338.69 387.233 338.491C387.134 338.293 386.991 338.13 386.803 338.001C386.615 337.873 386.384 337.809 386.111 337.809C385.845 337.809 385.617 337.873 385.427 338.001C385.237 338.13 385.091 338.293 384.988 338.492C384.885 338.691 384.834 338.904 384.834 339.131C384.834 339.351 384.885 339.562 384.988 339.765C385.091 339.968 385.237 340.134 385.427 340.262C385.617 340.391 385.845 340.455 386.111 340.455ZM393.224 347.168C392.706 347.168 392.239 347.044 391.825 346.797C391.411 346.549 391.082 346.22 390.838 345.81C390.594 345.399 390.473 344.942 390.473 344.438C390.473 343.934 390.594 343.474 390.838 343.059C391.082 342.643 391.411 342.314 391.825 342.072C392.239 341.829 392.706 341.708 393.224 341.708C393.742 341.708 394.206 341.829 394.617 342.072C395.027 342.314 395.354 342.643 395.597 343.059C395.839 343.474 395.961 343.934 395.961 344.438C395.961 344.942 395.839 345.399 395.597 345.81C395.354 346.22 395.027 346.549 394.617 346.797C394.206 347.044 393.742 347.168 393.224 347.168ZM393.225 345.761C393.495 345.761 393.723 345.697 393.911 345.568C394.099 345.44 394.243 345.274 394.342 345.072C394.441 344.869 394.491 344.657 394.491 344.436C394.491 344.209 394.441 343.996 394.342 343.797C394.243 343.599 394.099 343.436 393.911 343.307C393.723 343.179 393.495 343.115 393.225 343.115C392.963 343.115 392.735 343.179 392.541 343.307C392.347 343.436 392.199 343.599 392.097 343.798C391.994 343.997 391.943 344.21 391.943 344.437C391.943 344.657 391.994 344.868 392.097 345.071C392.199 345.274 392.347 345.44 392.541 345.568C392.735 345.697 392.963 345.761 393.225 345.761Z" fill="#0F172A"/>
<defs>
<filter id="filter0_d_553_3567" x="0" y="0" width="460" height="439" filterUnits="userSpaceOnUse" color-interpolation-filters="sRGB">
<feFlood flood-opacity="0" result="BackgroundImageFix"/>
<feColorMatrix in="SourceAlpha" type="matrix" values="0 0 0 0 0 0 0 0 0 0 0 0 0 0 0 0 0 0 127 0" result="hardAlpha"/>
<feMorphology radius="12" operator="erode" in="SourceAlpha" result="effect1_dropShadow_553_3567"/>
<feOffset dy="25"/>
<feGaussianBlur stdDeviation="25"/>
<feComposite in2="hardAlpha" operator="out"/>
<feColorMatrix type="matrix" values="0 0 0 0 0 0 0 0 0 0 0 0 0 0 0 0 0 0 0.25 0"/>
<feBlend mode="normal" in2="BackgroundImageFix" result="effect1_dropShadow_553_3567"/>
<feBlend mode="normal" in="SourceGraphic" in2="effect1_dropShadow_553_3567" result="shape"/>
</filter>
<linearGradient id="paint0_linear_553_3567" x1="381" y1="37.9998" x2="468.66" y2="70.8654" gradientUnits="userSpaceOnUse">
<stop offset="0.0865384" stop-color="#FF6B6B"/>
<stop offset="0.774038" stop-color="#BA2121"/>
<stop offset="1" stop-color="#670000"/>
</linearGradient>
</defs>
</svg>
