<svg width="64" height="64" viewBox="0 0 64 64" fill="none" xmlns="http://www.w3.org/2000/svg">
<rect width="64" height="64" rx="24" fill="#EF4444" fill-opacity="0.1"/>
<path d="M41 23H37.9766C37.9766 21.875 37.707 20.8672 37.168 19.9766C36.6289 19.0859 35.9141 18.3711 35.0234 17.832C34.1328 17.293 33.125 17.0234 32 17.0234C30.875 17.0234 29.8672 17.293 28.9766 17.832C28.0859 18.3711 27.3711 19.0859 26.832 19.9766C26.293 20.8672 26.0234 21.875 26.0234 23H23C22.1562 23 21.4414 23.293 20.8555 23.8789C20.2695 24.4648 19.9766 25.1797 19.9766 26.0234V44.0234C19.9766 44.8203 20.2695 45.5117 20.8555 46.0977C21.4414 46.6836 22.1562 46.9766 23 46.9766H41C41.8438 46.9766 42.5586 46.6836 43.1445 46.0977C43.7305 45.5117 44.0234 44.8203 44.0234 44.0234V26.0234C44.0234 25.1797 43.7305 24.4648 43.1445 23.8789C42.5586 23.293 41.8438 23 41 23ZM28.9766 28.9766C28.9766 29.3984 28.8359 29.7617 28.5547 30.0664C28.2734 30.3711 27.9219 30.5234 27.5 30.5234C27.0781 30.5234 26.7266 30.3711 26.4453 30.0664C26.1641 29.7617 26.0234 29.3984 26.0234 28.9766V26.0234H28.9766V28.9766ZM32 19.9766C32.8438 19.9766 33.5586 20.2695 34.1445 20.8555C34.7305 21.4414 35.0234 22.1562 35.0234 23H28.9766C28.9766 22.1562 29.2695 21.4414 29.8555 20.8555C30.4414 20.2695 31.1562 19.9766 32 19.9766ZM37.9766 28.9766C37.9766 29.3984 37.8359 29.7617 37.5547 30.0664C37.2734 30.3711 36.9219 30.5234 36.5 30.5234C36.0781 30.5234 35.7266 30.3711 35.4453 30.0664C35.1641 29.7617 35.0234 29.3984 35.0234 28.9766V26.0234H37.9766V28.9766Z" fill="url(#paint0_linear_553_4329)"/>
<defs>
<linearGradient id="paint0_linear_553_4329" x1="19.9766" y1="17.0234" x2="27.9878" y2="50.782" gradientUnits="userSpaceOnUse">
<stop offset="0.0865384" stop-color="#FF6B6B"/>
<stop offset="0.774038" stop-color="#BA2121"/>
<stop offset="1" stop-color="#670000"/>
</linearGradient>
</defs>
</svg>
