<svg width="282" height="61" viewBox="0 0 282 61" fill="none" xmlns="http://www.w3.org/2000/svg">
<path d="M7.875 2.09375C9.22917 2.63542 10.5312 3.04167 11.7812 3.3125C13.0521 3.5625 14.4583 3.6875 16 3.6875C18.7292 3.6875 21.7083 3.15625 24.9375 2.09375C23.4375 4.84375 22.6146 7.46875 22.4688 9.96875C20.4479 9.86458 18.6458 9.55208 17.0625 9.03125C15.4792 8.51042 14.0417 7.77083 12.75 6.8125C11.3542 5.77083 10.25 4.88542 9.4375 4.15625C8.64583 3.40625 8.10417 2.82292 7.8125 2.40625C7.35417 5.32292 7.01042 8.52083 6.78125 12C6.57292 15.4583 6.46875 19.25 6.46875 23.375V23.9375C12.2188 23.6458 17.1354 22.4688 21.2188 20.4062C20.7396 21.2812 20.3125 22.4062 19.9375 23.7812C19.5625 25.1562 19.2917 26.6562 19.125 28.2812L18.2812 28.0312C17.1146 27.6771 15.5938 27.4062 13.7188 27.2188C11.8438 27.0312 9.59375 26.9479 6.96875 26.9688H6.5C6.5625 31.4896 6.67708 35.2708 6.84375 38.3125C7.01042 41.3542 7.27083 43.6875 7.625 45.3125L7.875 46.4375C6.97917 46.5417 6.125 46.7083 5.3125 46.9375C4.52083 47.1458 3.78125 47.3854 3.09375 47.6562C2.42708 47.9271 1.82292 48.2083 1.28125 48.5C0.760417 48.7917 0.333333 49.0625 0 49.3125C0.458333 46.2083 0.791667 42.9271 1 39.4688C1.22917 35.9896 1.34375 32.2812 1.34375 28.3438C1.30208 22.8021 1.17708 18.1667 0.96875 14.4375C0.78125 10.6875 0.520833 7.85417 0.1875 5.9375L0 4.875C1.27083 4.72917 2.53125 4.4375 3.78125 4C5.05208 3.5625 6.41667 2.92708 7.875 2.09375ZM29.625 49.3125C30.0208 46.1667 30.3125 43.3125 30.5 40.75C30.7083 38.1667 30.8125 35.8333 30.8125 33.75C30.8125 32.0625 30.7917 30.4896 30.75 29.0312C30.7292 27.5521 30.6771 26.1562 30.5938 24.8438C30.5104 23.5104 30.3958 22.2292 30.25 21C30.125 19.7708 29.9688 18.5312 29.7812 17.2812L29.625 16.7812C30.8958 16.6354 32.1562 16.3438 33.4062 15.9062C34.6771 15.4479 35.9688 14.8542 37.2812 14.125L37.5 14C37.2917 14.6042 37.0729 15.2708 36.8438 16C36.6146 16.7083 36.3854 17.4583 36.1562 18.25L43 14C43.8333 14.2292 44.8646 14.6354 46.0938 15.2188C47.3438 15.7812 48.6042 16.5312 49.875 17.4688C51.1458 18.3854 52.3333 19.4792 53.4375 20.75C54.5625 22 55.4062 23.4167 55.9688 25L50.3125 27.3125C49.4583 25.75 48.4792 24.4375 47.375 23.375C46.2708 22.2917 45.1354 21.4167 43.9688 20.75C42.8021 20.0625 41.6562 19.5729 40.5312 19.2812C39.4062 18.9688 38.3958 18.8125 37.5 18.8125C37.0625 18.8125 36.625 18.8438 36.1875 18.9062H36.1562C36.0729 19.6771 36.0104 20.9062 35.9688 22.5938C35.9479 24.2604 35.9375 26.4062 35.9375 29.0312V30.125C35.9375 35.9792 36.375 41.0417 37.25 45.3125L37.5 46.4375C36.6875 46.5417 35.8854 46.6979 35.0938 46.9062C34.3021 47.1146 33.5521 47.3646 32.8438 47.6562C32.1562 47.9271 31.5312 48.2083 30.9688 48.5C30.4062 48.7917 29.9583 49.0625 29.625 49.3125ZM71.875 49.4375C70.6458 49.1458 69.1667 48.5417 67.4375 47.625C65.7083 46.6875 64.1458 45.5521 62.75 44.2188C60.9167 42.4479 59.6354 40.5208 58.9062 38.4375C58.1979 36.7083 57.75 34.5208 57.5625 31.875V31.75C57.5625 29.5208 58.0729 27.2188 59.0938 24.8438C59.8646 23.0312 60.8958 21.4167 62.1875 20C62.7292 19.4167 63.3542 18.8542 64.0625 18.3125L70.625 14C71.7292 14.375 73.6146 15.25 76.2812 16.625C78.2188 17.625 80.0938 19.125 81.9062 21.125C83.2396 23.2083 83.9062 25.1354 83.9062 26.9062C83.9062 26.9479 83.9062 27 83.9062 27.0625C83.5938 29.6042 82.4271 31.6458 80.4062 33.1875C76.9688 35.8125 72.6875 37.1458 67.5625 37.1875C74.0208 34.9792 77.8438 32.4271 79.0312 29.5312C79.2812 28.9271 79.4062 28.3333 79.4062 27.75C79.4062 27.7292 79.4062 27.7083 79.4062 27.6875C79.4062 27.6667 79.4062 27.6458 79.4062 27.625C79.4062 26.75 79.0417 25.8958 78.3125 25.0625C77.1667 23.7083 75.5208 22.5 73.375 21.4375C69.7083 19.625 66.7292 18.6042 64.4375 18.375C63.6458 19.6667 62.9271 21.625 62.2812 24.25C61.7812 26.2917 61.5312 28.0625 61.5312 29.5625C61.5312 30.2708 61.5833 30.9479 61.6875 31.5938C61.9792 33.4479 62.75 35.3125 64 37.1875C65.2917 39.1042 67.0938 40.6146 69.4062 41.7188C71.4062 42.6771 74.4792 43.625 78.625 44.5625L78.6562 44.5312C78.9896 44.0104 79.1562 43.1042 79.1562 41.8125C79.1562 41 79.0208 39.9375 78.75 38.625L83.1875 40.375C82.625 41.6458 81.7083 42.7917 80.4375 43.8125C79.4792 44.5833 79 44.9792 79 45L71.875 49.4375ZM103.156 49.5C101.51 48.8125 99.9896 48.1875 98.5938 47.625C97.7396 47.2917 96.8854 46.8854 96.0312 46.4062C95.1979 45.9062 94.4062 45.375 93.6562 44.8125C92.9062 44.25 92.2292 43.6667 91.625 43.0625C91.0208 42.4583 90.5417 41.8542 90.1875 41.25L95.7812 37.75C95.8229 38.1875 96.0938 38.6875 96.5938 39.25C97.0938 39.7917 97.8958 40.3646 99 40.9688C100.104 41.5729 101.531 42.1875 103.281 42.8125C105.052 43.4167 107.229 43.9896 109.812 44.5312C110.875 42.7188 111.406 41.0104 111.406 39.4062C111.406 37.2396 110.156 35.8125 107.656 35.125L106.875 34.9062C106.396 34.8229 105.833 34.7396 105.188 34.6562C104.562 34.5729 103.865 34.4792 103.094 34.375C101.094 34.125 99.3125 33.7812 97.75 33.3438C96.1875 32.9062 94.8646 32.3542 93.7812 31.6875C92.6979 31 91.8542 30.1979 91.25 29.2812C90.6458 28.3438 90.3125 27.2604 90.25 26.0312C90.2917 25.3854 90.3854 24.7917 90.5312 24.25C90.6979 23.7083 90.9583 23.1146 91.3125 22.4688C91.6875 21.8229 92.1875 21.1562 92.8125 20.4688C93.4375 19.7812 94.2396 19.0625 95.2188 18.3125L101.844 13.9688C103.385 14.5938 104.719 15.1562 105.844 15.6562C106.969 16.1562 107.958 16.6667 108.812 17.1875C109.667 17.6875 110.427 18.2292 111.094 18.8125C111.76 19.375 112.417 20.0312 113.062 20.7812L107.594 24.0938C106.865 23.2188 105.823 22.2917 104.469 21.3125C103.052 20.3125 100.031 19.3958 95.4062 18.5625L95.375 18.5938C94.8958 19.1146 94.5 19.7708 94.1875 20.5625C93.875 21.3333 93.7188 22.1875 93.7188 23.125C93.7188 24.0208 94.0208 24.7604 94.625 25.3438C95.2292 25.9271 96.0104 26.4062 96.9688 26.7812C97.9271 27.1562 98.9896 27.4479 100.156 27.6562C101.344 27.8646 102.5 28.0417 103.625 28.1875C109.917 28.8542 113.646 30.625 114.812 33.5C115.229 34.4792 115.438 35.5104 115.438 36.5938C115.438 37.0729 115.385 37.5625 115.281 38.0625C115.177 38.5417 114.979 39.0729 114.688 39.6562C114.396 40.2396 113.979 40.875 113.438 41.5625C112.917 42.25 112.229 43.0208 111.375 43.875C111.167 44.0833 110.698 44.4375 109.969 44.9375L103.156 49.5ZM123.25 49.3125C123.708 46.1667 124.042 42.8542 124.25 39.375C124.479 35.8958 124.594 32.2083 124.594 28.3125C124.573 22.8125 124.458 18.1979 124.25 14.4688C124.062 10.7396 123.792 7.89583 123.438 5.9375L123.25 4.875C124.5 4.72917 125.76 4.4375 127.031 4C128.302 3.54167 129.594 2.94792 130.906 2.21875L131.125 2.09375C130.771 4.42708 130.479 6.92708 130.25 9.59375C130.021 12.2604 129.865 15.1458 129.781 18.25L136.625 14C137.208 14.1458 137.875 14.375 138.625 14.6875C139.396 15 140.198 15.3958 141.031 15.875C141.865 16.3333 142.708 16.875 143.562 17.5C144.438 18.125 145.25 18.8229 146 19.5938C146.771 20.3438 147.469 21.1771 148.094 22.0938C148.719 22.9896 149.219 23.9583 149.594 25C150.406 27 150.844 29.1875 150.906 31.5625C151.01 34.6042 151.156 37.2708 151.344 39.5625C151.531 41.8333 151.771 43.75 152.062 45.3125L152.312 46.4375C151.438 46.5417 150.594 46.7083 149.781 46.9375C148.99 47.1458 148.25 47.3854 147.562 47.6562C146.896 47.9271 146.292 48.2083 145.75 48.5C145.208 48.7917 144.771 49.0625 144.438 49.3125C145.25 43.8542 145.656 38.5729 145.656 33.4688C145.615 32.5729 145.573 31.7708 145.531 31.0625C145.51 30.3542 145.458 29.7188 145.375 29.1562C145.312 28.5729 145.208 28.0521 145.062 27.5938C144.938 27.1146 144.75 26.6667 144.5 26.25C143.896 25.3542 143.198 24.5521 142.406 23.8438C141.635 23.1354 140.677 22.5 139.531 21.9375C138.385 21.3542 137.021 20.8229 135.438 20.3438C133.875 19.8438 132 19.3646 129.812 18.9062H129.781C129.76 19.6771 129.74 20.4583 129.719 21.25C129.719 22.0208 129.719 22.8021 129.719 23.5938V24.6875C129.74 29.7083 129.833 33.9271 130 37.3438C130.167 40.7604 130.458 43.4167 130.875 45.3125L131.125 46.4375C130.229 46.5417 129.375 46.7083 128.562 46.9375C127.771 47.1458 127.031 47.3854 126.344 47.6562C125.677 47.9271 125.073 48.2083 124.531 48.5C124.01 48.7917 123.583 49.0625 123.25 49.3125ZM161.625 49.3125C162.083 46.125 162.427 43.1146 162.656 40.2812C162.885 37.4479 163 34.7708 163 32.25C163 29.1875 162.875 26.3229 162.625 23.6562C162.396 20.9896 162.125 18.5417 161.812 16.3125L161.625 15.25C162.896 15.1042 164.156 14.8125 165.406 14.375C166.677 13.9167 167.969 13.3229 169.281 12.5938L169.5 12.4688C169.021 15.6354 168.656 18.4792 168.406 21C168.177 23.5 168.062 25.7292 168.062 27.6875C168.062 27.9583 168.062 28.2188 168.062 28.4688C168.062 28.7188 168.073 28.9583 168.094 29.1875C168.302 33.5625 168.479 37.0521 168.625 39.6562C168.792 42.2604 168.948 44.0208 169.094 44.9375L170.531 45.6562C172.594 46.1979 174.51 46.4688 176.281 46.4688C178.135 46.4688 179.854 46.1875 181.438 45.625C183.021 45.0625 184.479 44.2292 185.812 43.125C186.625 41.9375 187.219 40.7812 187.594 39.6562C187.99 38.5104 188.188 37.375 188.188 36.25C188.188 33.8958 187.583 31.9375 186.375 30.375C185.167 28.8125 183.417 27.7812 181.125 27.2812C180.604 27.1771 180.094 27.125 179.594 27.125C177.094 27.125 173.729 28.2083 169.5 30.375L174.094 22.4062C178.406 20.4479 180.562 17.3229 180.562 13.0312C180.562 11.5312 180 10.2917 178.875 9.3125C177.771 8.33333 176.115 7.84375 173.906 7.84375C172.865 7.86458 171.708 8 170.438 8.25C169.167 8.47917 167.844 8.83333 166.469 9.3125C165.115 9.79167 163.729 10.3958 162.312 11.125C160.917 11.8542 159.562 12.7188 158.25 13.7188L160.312 5.53125C161.812 4.92708 162.979 4.46875 163.812 4.15625C164.646 3.82292 165.177 3.61458 165.406 3.53125C166.906 3.05208 168.396 2.6875 169.875 2.4375C171.354 2.16667 172.812 2.03125 174.25 2.03125C175.708 2.03125 176.979 2.16667 178.062 2.4375C179.146 2.70833 180.052 3.08333 180.781 3.5625C182.344 4.625 183.51 5.8125 184.281 7.125C185.052 8.4375 185.438 9.84375 185.438 11.3438C185.417 12.5104 185.167 13.6354 184.688 14.7188C184.229 15.7812 183.635 16.7604 182.906 17.6562C182.177 18.5521 181.365 19.3438 180.469 20.0312C179.594 20.6979 178.729 21.1979 177.875 21.5312C178.229 21.4896 178.583 21.4583 178.938 21.4375C179.292 21.3958 179.635 21.375 179.969 21.375C181.573 21.375 183.031 21.5833 184.344 22C185.677 22.4167 186.865 22.9688 187.906 23.6562C188.948 24.3438 189.854 25.1458 190.625 26.0625C191.396 26.9583 192.031 27.8958 192.531 28.875C193.031 29.8542 193.406 30.8333 193.656 31.8125C193.906 32.7917 194.031 33.7083 194.031 34.5625C194.031 35.625 193.938 36.5938 193.75 37.4688C193.562 38.3438 193.385 39.0208 193.219 39.5C192.615 41.3125 191.812 42.8542 190.812 44.125C189.833 45.3958 188.729 46.4271 187.5 47.2188C186.292 48.0104 184.979 48.5833 183.562 48.9375C182.167 49.2917 180.74 49.4688 179.281 49.4688C178.406 49.4688 177.698 49.4479 177.156 49.4062C176.615 49.3646 176.312 49.3333 176.25 49.3125L169.5 46.4375C168.625 46.5417 167.781 46.7083 166.969 46.9375C166.177 47.1458 165.438 47.3854 164.75 47.6562C164.083 47.9271 163.479 48.2083 162.938 48.5C162.396 48.7917 161.958 49.0625 161.625 49.3125ZM202.438 49.3125C202.896 46.1667 203.229 42.8542 203.438 39.375C203.667 35.8958 203.781 32.2083 203.781 28.3125C203.76 22.8125 203.646 18.1979 203.438 14.4688C203.25 10.7396 202.979 7.89583 202.625 5.9375L202.438 4.875C203.688 4.72917 204.948 4.4375 206.219 4C207.49 3.54167 208.781 2.94792 210.094 2.21875L210.312 2.09375C209.958 4.42708 209.667 6.92708 209.438 9.59375C209.208 12.2604 209.052 15.1458 208.969 18.25L215.812 14C216.396 14.1458 217.062 14.375 217.812 14.6875C218.583 15 219.385 15.3958 220.219 15.875C221.052 16.3333 221.896 16.875 222.75 17.5C223.625 18.125 224.438 18.8229 225.188 19.5938C225.958 20.3438 226.656 21.1771 227.281 22.0938C227.906 22.9896 228.406 23.9583 228.781 25C229.594 27 230.031 29.1875 230.094 31.5625C230.198 34.6042 230.344 37.2708 230.531 39.5625C230.719 41.8333 230.958 43.75 231.25 45.3125L231.5 46.4375C230.625 46.5417 229.781 46.7083 228.969 46.9375C228.177 47.1458 227.438 47.3854 226.75 47.6562C226.083 47.9271 225.479 48.2083 224.938 48.5C224.396 48.7917 223.958 49.0625 223.625 49.3125C224.438 43.8542 224.844 38.5729 224.844 33.4688C224.802 32.5729 224.76 31.7708 224.719 31.0625C224.698 30.3542 224.646 29.7188 224.562 29.1562C224.5 28.5729 224.396 28.0521 224.25 27.5938C224.125 27.1146 223.938 26.6667 223.688 26.25C223.083 25.3542 222.385 24.5521 221.594 23.8438C220.823 23.1354 219.865 22.5 218.719 21.9375C217.573 21.3542 216.208 20.8229 214.625 20.3438C213.062 19.8438 211.188 19.3646 209 18.9062H208.969C208.948 19.6771 208.927 20.4583 208.906 21.25C208.906 22.0208 208.906 22.8021 208.906 23.5938V24.6875C208.927 29.7083 209.021 33.9271 209.188 37.3438C209.354 40.7604 209.646 43.4167 210.062 45.3125L210.312 46.4375C209.417 46.5417 208.562 46.7083 207.75 46.9375C206.958 47.1458 206.219 47.3854 205.531 47.6562C204.865 47.9271 204.26 48.2083 203.719 48.5C203.198 48.7917 202.771 49.0625 202.438 49.3125ZM244.438 18.5625L244.406 18.5938C243.802 19.7188 243.156 21.6042 242.469 24.25C241.969 26.1458 241.719 27.9167 241.719 29.5625C241.719 30.2083 241.771 30.8854 241.875 31.5938C242.146 33.4271 242.917 35.2917 244.188 37.1875C245.5 39.1667 247.302 40.6771 249.594 41.7188C251.74 42.6979 254.812 43.6458 258.812 44.5625L258.844 44.5312C259.344 43.4062 259.938 41.3438 260.625 38.3438C261.042 36.5312 261.25 34.8854 261.25 33.4062C261.25 32.6146 261.198 31.9167 261.094 31.3125C260.781 29.4792 260.01 27.6146 258.781 25.7188C257.781 24.1771 255.979 22.6771 253.375 21.2188C251.333 20.0729 248.354 19.1875 244.438 18.5625ZM252.062 49.4375C250.812 49.125 249.333 48.5208 247.625 47.625C245.938 46.7292 244.375 45.5938 242.938 44.2188C241.104 42.4479 239.823 40.5208 239.094 38.4375C238.198 36.3125 237.75 34.125 237.75 31.875C237.75 31.8125 237.75 31.7708 237.75 31.75C237.75 29.5208 238.26 27.2188 239.281 24.8438C240.094 22.9479 241.125 21.3333 242.375 20C242.958 19.375 243.583 18.8125 244.25 18.3125L250.875 13.9688C251.896 14.2396 253.385 14.875 255.344 15.875C256.802 16.625 258.354 17.75 260 19.25C261.854 21.0417 263.156 23.0312 263.906 25.2188C264.74 27.5521 265.167 29.7188 265.188 31.7188V31.8438C265.188 34.7188 264.729 37 263.812 38.6875C262.396 41.2917 261.208 43.0208 260.25 43.875C259.729 44.3333 259.375 44.7083 259.188 45L252.062 49.4375ZM273 12.3125C273.396 10.6042 273.594 8.8125 273.594 6.9375C273.594 6.375 273.573 5.8125 273.531 5.25C273.51 4.6875 273.458 4.125 273.375 3.5625L273.188 2.90625C275.875 2.63542 278.594 1.70833 281.344 0.125L281.562 0C281.229 1.1875 281.062 2.88542 281.062 5.09375C281.062 5.67708 281.083 6.32292 281.125 7.03125C281.188 7.71875 281.271 8.47917 281.375 9.3125C280.521 9.41667 279.667 9.58333 278.812 9.8125C277.979 10.0208 277.188 10.2708 276.438 10.5625C275.708 10.8333 275.042 11.125 274.438 11.4375C273.854 11.75 273.375 12.0417 273 12.3125ZM267.938 60.8438C270.771 57.0729 272.833 52.9896 274.125 48.5938C274.562 47.1354 274.781 43.2708 274.781 37V36.2188C274.781 33.3021 274.688 30.3229 274.5 27.2812C274.312 24.2396 274.042 21.0938 273.688 17.8438L273.5 16.7812C274.771 16.6354 276.031 16.3438 277.281 15.9062C278.552 15.4479 279.844 14.8542 281.156 14.125L281.375 14C280.896 16.9792 280.531 19.9896 280.281 23.0312C280.052 26.0521 279.938 29.1354 279.938 32.2812C279.938 35.1354 280 37.5625 280.125 39.5625C280.271 41.5417 280.458 43 280.688 43.9375C280.688 43.9792 280.573 44.2917 280.344 44.875C280.115 45.4375 279.781 46.1771 279.344 47.0938C278.906 47.9896 278.375 48.9896 277.75 50.0938C277.125 51.1979 276.417 52.2917 275.625 53.375C272.917 57.0625 270.469 59.5833 268.281 60.9375L267.938 60.8438Z" fill="white"/>
</svg>
