<svg width="421" height="74" viewBox="0 0 421 74" fill="none" xmlns="http://www.w3.org/2000/svg">
<path d="M12.5625 8.78125C13.9167 9.32292 15.2188 9.72917 16.4688 10C17.7396 10.25 19.1458 10.375 20.6875 10.375C23.4167 10.375 26.3958 9.84375 29.625 8.78125C28.125 11.5312 27.3021 14.1562 27.1562 16.6562C25.1354 16.5521 23.3333 16.2396 21.75 15.7188C20.1667 15.1979 18.7292 14.4583 17.4375 13.5C16.0417 12.4583 14.9375 11.5729 14.125 10.8438C13.3333 10.0938 12.7917 9.51042 12.5 9.09375C12.0417 12.0104 11.6979 15.2083 11.4688 18.6875C11.2604 22.1458 11.1562 25.9375 11.1562 30.0625V30.625C16.9062 30.3333 21.8229 29.1562 25.9062 27.0938C25.4271 27.9688 25 29.0938 24.625 30.4688C24.25 31.8438 23.9792 33.3438 23.8125 34.9688L22.9688 34.7188C21.8021 34.3646 20.2812 34.0938 18.4062 33.9062C16.5312 33.7188 14.2812 33.6354 11.6562 33.6562H11.1875C11.25 38.1771 11.3646 41.9583 11.5312 45C11.6979 48.0417 11.9583 50.375 12.3125 52L12.5625 53.125C11.6667 53.2292 10.8125 53.3958 10 53.625C9.20833 53.8333 8.46875 54.0729 7.78125 54.3438C7.11458 54.6146 6.51042 54.8958 5.96875 55.1875C5.44792 55.4792 5.02083 55.75 4.6875 56C5.14583 52.8958 5.47917 49.6146 5.6875 46.1562C5.91667 42.6771 6.03125 38.9688 6.03125 35.0312C5.98958 29.4896 5.86458 24.8542 5.65625 21.125C5.46875 17.375 5.20833 14.5417 4.875 12.625L4.6875 11.5625C5.95833 11.4167 7.21875 11.125 8.46875 10.6875C9.73958 10.25 11.1042 9.61458 12.5625 8.78125ZM34.3125 56C34.7083 52.8542 35 50 35.1875 47.4375C35.3958 44.8542 35.5 42.5208 35.5 40.4375C35.5 38.75 35.4792 37.1771 35.4375 35.7188C35.4167 34.2396 35.3646 32.8438 35.2812 31.5312C35.1979 30.1979 35.0833 28.9167 34.9375 27.6875C34.8125 26.4583 34.6562 25.2188 34.4688 23.9688L34.3125 23.4688C35.5833 23.3229 36.8438 23.0312 38.0938 22.5938C39.3646 22.1354 40.6562 21.5417 41.9688 20.8125L42.1875 20.6875C41.9792 21.2917 41.7604 21.9583 41.5312 22.6875C41.3021 23.3958 41.0729 24.1458 40.8438 24.9375L47.6875 20.6875C48.5208 20.9167 49.5521 21.3229 50.7812 21.9062C52.0312 22.4688 53.2917 23.2188 54.5625 24.1562C55.8333 25.0729 57.0208 26.1667 58.125 27.4375C59.25 28.6875 60.0938 30.1042 60.6562 31.6875L55 34C54.1458 32.4375 53.1667 31.125 52.0625 30.0625C50.9583 28.9792 49.8229 28.1042 48.6562 27.4375C47.4896 26.75 46.3438 26.2604 45.2188 25.9688C44.0938 25.6562 43.0833 25.5 42.1875 25.5C41.75 25.5 41.3125 25.5312 40.875 25.5938H40.8438C40.7604 26.3646 40.6979 27.5938 40.6562 29.2812C40.6354 30.9479 40.625 33.0938 40.625 35.7188V36.8125C40.625 42.6667 41.0625 47.7292 41.9375 52L42.1875 53.125C41.375 53.2292 40.5729 53.3854 39.7812 53.5938C38.9896 53.8021 38.2396 54.0521 37.5312 54.3438C36.8438 54.6146 36.2188 54.8958 35.6562 55.1875C35.0938 55.4792 34.6458 55.75 34.3125 56ZM76.5625 56.125C75.3333 55.8333 73.8542 55.2292 72.125 54.3125C70.3958 53.375 68.8333 52.2396 67.4375 50.9062C65.6042 49.1354 64.3229 47.2083 63.5938 45.125C62.8854 43.3958 62.4375 41.2083 62.25 38.5625V38.4375C62.25 36.2083 62.7604 33.9062 63.7812 31.5312C64.5521 29.7188 65.5833 28.1042 66.875 26.6875C67.4167 26.1042 68.0417 25.5417 68.75 25L75.3125 20.6875C76.4167 21.0625 78.3021 21.9375 80.9688 23.3125C82.9062 24.3125 84.7812 25.8125 86.5938 27.8125C87.9271 29.8958 88.5938 31.8229 88.5938 33.5938C88.5938 33.6354 88.5938 33.6875 88.5938 33.75C88.2812 36.2917 87.1146 38.3333 85.0938 39.875C81.6562 42.5 77.375 43.8333 72.25 43.875C78.7083 41.6667 82.5312 39.1146 83.7188 36.2188C83.9688 35.6146 84.0938 35.0208 84.0938 34.4375C84.0938 34.4167 84.0938 34.3958 84.0938 34.375C84.0938 34.3542 84.0938 34.3333 84.0938 34.3125C84.0938 33.4375 83.7292 32.5833 83 31.75C81.8542 30.3958 80.2083 29.1875 78.0625 28.125C74.3958 26.3125 71.4167 25.2917 69.125 25.0625C68.3333 26.3542 67.6146 28.3125 66.9688 30.9375C66.4688 32.9792 66.2188 34.75 66.2188 36.25C66.2188 36.9583 66.2708 37.6354 66.375 38.2812C66.6667 40.1354 67.4375 42 68.6875 43.875C69.9792 45.7917 71.7812 47.3021 74.0938 48.4062C76.0938 49.3646 79.1667 50.3125 83.3125 51.25L83.3438 51.2188C83.6771 50.6979 83.8438 49.7917 83.8438 48.5C83.8438 47.6875 83.7083 46.625 83.4375 45.3125L87.875 47.0625C87.3125 48.3333 86.3958 49.4792 85.125 50.5C84.1667 51.2708 83.6875 51.6667 83.6875 51.6875L76.5625 56.125ZM107.844 56.1875C106.198 55.5 104.677 54.875 103.281 54.3125C102.427 53.9792 101.573 53.5729 100.719 53.0938C99.8854 52.5938 99.0938 52.0625 98.3438 51.5C97.5938 50.9375 96.9167 50.3542 96.3125 49.75C95.7083 49.1458 95.2292 48.5417 94.875 47.9375L100.469 44.4375C100.51 44.875 100.781 45.375 101.281 45.9375C101.781 46.4792 102.583 47.0521 103.688 47.6562C104.792 48.2604 106.219 48.875 107.969 49.5C109.74 50.1042 111.917 50.6771 114.5 51.2188C115.562 49.4062 116.094 47.6979 116.094 46.0938C116.094 43.9271 114.844 42.5 112.344 41.8125L111.562 41.5938C111.083 41.5104 110.521 41.4271 109.875 41.3438C109.25 41.2604 108.552 41.1667 107.781 41.0625C105.781 40.8125 104 40.4688 102.438 40.0312C100.875 39.5938 99.5521 39.0417 98.4688 38.375C97.3854 37.6875 96.5417 36.8854 95.9375 35.9688C95.3333 35.0312 95 33.9479 94.9375 32.7188C94.9792 32.0729 95.0729 31.4792 95.2188 30.9375C95.3854 30.3958 95.6458 29.8021 96 29.1562C96.375 28.5104 96.875 27.8438 97.5 27.1562C98.125 26.4688 98.9271 25.75 99.9062 25L106.531 20.6562C108.073 21.2812 109.406 21.8438 110.531 22.3438C111.656 22.8438 112.646 23.3542 113.5 23.875C114.354 24.375 115.115 24.9167 115.781 25.5C116.448 26.0625 117.104 26.7188 117.75 27.4688L112.281 30.7812C111.552 29.9062 110.51 28.9792 109.156 28C107.74 27 104.719 26.0833 100.094 25.25L100.062 25.2812C99.5833 25.8021 99.1875 26.4583 98.875 27.25C98.5625 28.0208 98.4062 28.875 98.4062 29.8125C98.4062 30.7083 98.7083 31.4479 99.3125 32.0312C99.9167 32.6146 100.698 33.0938 101.656 33.4688C102.615 33.8438 103.677 34.1354 104.844 34.3438C106.031 34.5521 107.188 34.7292 108.312 34.875C114.604 35.5417 118.333 37.3125 119.5 40.1875C119.917 41.1667 120.125 42.1979 120.125 43.2812C120.125 43.7604 120.073 44.25 119.969 44.75C119.865 45.2292 119.667 45.7604 119.375 46.3438C119.083 46.9271 118.667 47.5625 118.125 48.25C117.604 48.9375 116.917 49.7083 116.062 50.5625C115.854 50.7708 115.385 51.125 114.656 51.625L107.844 56.1875ZM127.938 56C128.396 52.8542 128.729 49.5417 128.938 46.0625C129.167 42.5833 129.281 38.8958 129.281 35C129.26 29.5 129.146 24.8854 128.938 21.1562C128.75 17.4271 128.479 14.5833 128.125 12.625L127.938 11.5625C129.188 11.4167 130.448 11.125 131.719 10.6875C132.99 10.2292 134.281 9.63542 135.594 8.90625L135.812 8.78125C135.458 11.1146 135.167 13.6146 134.938 16.2812C134.708 18.9479 134.552 21.8333 134.469 24.9375L141.312 20.6875C141.896 20.8333 142.562 21.0625 143.312 21.375C144.083 21.6875 144.885 22.0833 145.719 22.5625C146.552 23.0208 147.396 23.5625 148.25 24.1875C149.125 24.8125 149.938 25.5104 150.688 26.2812C151.458 27.0312 152.156 27.8646 152.781 28.7812C153.406 29.6771 153.906 30.6458 154.281 31.6875C155.094 33.6875 155.531 35.875 155.594 38.25C155.698 41.2917 155.844 43.9583 156.031 46.25C156.219 48.5208 156.458 50.4375 156.75 52L157 53.125C156.125 53.2292 155.281 53.3958 154.469 53.625C153.677 53.8333 152.938 54.0729 152.25 54.3438C151.583 54.6146 150.979 54.8958 150.438 55.1875C149.896 55.4792 149.458 55.75 149.125 56C149.938 50.5417 150.344 45.2604 150.344 40.1562C150.302 39.2604 150.26 38.4583 150.219 37.75C150.198 37.0417 150.146 36.4062 150.062 35.8438C150 35.2604 149.896 34.7396 149.75 34.2812C149.625 33.8021 149.438 33.3542 149.188 32.9375C148.583 32.0417 147.885 31.2396 147.094 30.5312C146.323 29.8229 145.365 29.1875 144.219 28.625C143.073 28.0417 141.708 27.5104 140.125 27.0312C138.562 26.5312 136.688 26.0521 134.5 25.5938H134.469C134.448 26.3646 134.427 27.1458 134.406 27.9375C134.406 28.7083 134.406 29.4896 134.406 30.2812V31.375C134.427 36.3958 134.521 40.6146 134.688 44.0312C134.854 47.4479 135.146 50.1042 135.562 52L135.812 53.125C134.917 53.2292 134.062 53.3958 133.25 53.625C132.458 53.8333 131.719 54.0729 131.031 54.3438C130.365 54.6146 129.76 54.8958 129.219 55.1875C128.698 55.4792 128.271 55.75 127.938 56ZM166.312 56C166.771 52.8125 167.115 49.8021 167.344 46.9688C167.573 44.1354 167.688 41.4583 167.688 38.9375C167.688 35.875 167.562 33.0104 167.312 30.3438C167.083 27.6771 166.812 25.2292 166.5 23L166.312 21.9375C167.583 21.7917 168.844 21.5 170.094 21.0625C171.365 20.6042 172.656 20.0104 173.969 19.2812L174.188 19.1562C173.708 22.3229 173.344 25.1667 173.094 27.6875C172.865 30.1875 172.75 32.4167 172.75 34.375C172.75 34.6458 172.75 34.9062 172.75 35.1562C172.75 35.4062 172.76 35.6458 172.781 35.875C172.99 40.25 173.167 43.7396 173.312 46.3438C173.479 48.9479 173.635 50.7083 173.781 51.625L175.219 52.3438C177.281 52.8854 179.198 53.1562 180.969 53.1562C182.823 53.1562 184.542 52.875 186.125 52.3125C187.708 51.75 189.167 50.9167 190.5 49.8125C191.312 48.625 191.906 47.4688 192.281 46.3438C192.677 45.1979 192.875 44.0625 192.875 42.9375C192.875 40.5833 192.271 38.625 191.062 37.0625C189.854 35.5 188.104 34.4688 185.812 33.9688C185.292 33.8646 184.781 33.8125 184.281 33.8125C181.781 33.8125 178.417 34.8958 174.188 37.0625L178.781 29.0938C183.094 27.1354 185.25 24.0104 185.25 19.7188C185.25 18.2188 184.688 16.9792 183.562 16C182.458 15.0208 180.802 14.5312 178.594 14.5312C177.552 14.5521 176.396 14.6875 175.125 14.9375C173.854 15.1667 172.531 15.5208 171.156 16C169.802 16.4792 168.417 17.0833 167 17.8125C165.604 18.5417 164.25 19.4062 162.938 20.4062L165 12.2188C166.5 11.6146 167.667 11.1562 168.5 10.8438C169.333 10.5104 169.865 10.3021 170.094 10.2188C171.594 9.73958 173.083 9.375 174.562 9.125C176.042 8.85417 177.5 8.71875 178.938 8.71875C180.396 8.71875 181.667 8.85417 182.75 9.125C183.833 9.39583 184.74 9.77083 185.469 10.25C187.031 11.3125 188.198 12.5 188.969 13.8125C189.74 15.125 190.125 16.5312 190.125 18.0312C190.104 19.1979 189.854 20.3229 189.375 21.4062C188.917 22.4688 188.323 23.4479 187.594 24.3438C186.865 25.2396 186.052 26.0312 185.156 26.7188C184.281 27.3854 183.417 27.8854 182.562 28.2188C182.917 28.1771 183.271 28.1458 183.625 28.125C183.979 28.0833 184.323 28.0625 184.656 28.0625C186.26 28.0625 187.719 28.2708 189.031 28.6875C190.365 29.1042 191.552 29.6562 192.594 30.3438C193.635 31.0312 194.542 31.8333 195.312 32.75C196.083 33.6458 196.719 34.5833 197.219 35.5625C197.719 36.5417 198.094 37.5208 198.344 38.5C198.594 39.4792 198.719 40.3958 198.719 41.25C198.719 42.3125 198.625 43.2812 198.438 44.1562C198.25 45.0312 198.073 45.7083 197.906 46.1875C197.302 48 196.5 49.5417 195.5 50.8125C194.521 52.0833 193.417 53.1146 192.188 53.9062C190.979 54.6979 189.667 55.2708 188.25 55.625C186.854 55.9792 185.427 56.1562 183.969 56.1562C183.094 56.1562 182.385 56.1354 181.844 56.0938C181.302 56.0521 181 56.0208 180.938 56L174.188 53.125C173.312 53.2292 172.469 53.3958 171.656 53.625C170.865 53.8333 170.125 54.0729 169.438 54.3438C168.771 54.6146 168.167 54.8958 167.625 55.1875C167.083 55.4792 166.646 55.75 166.312 56ZM207.125 56C207.583 52.8542 207.917 49.5417 208.125 46.0625C208.354 42.5833 208.469 38.8958 208.469 35C208.448 29.5 208.333 24.8854 208.125 21.1562C207.938 17.4271 207.667 14.5833 207.312 12.625L207.125 11.5625C208.375 11.4167 209.635 11.125 210.906 10.6875C212.177 10.2292 213.469 9.63542 214.781 8.90625L215 8.78125C214.646 11.1146 214.354 13.6146 214.125 16.2812C213.896 18.9479 213.74 21.8333 213.656 24.9375L220.5 20.6875C221.083 20.8333 221.75 21.0625 222.5 21.375C223.271 21.6875 224.073 22.0833 224.906 22.5625C225.74 23.0208 226.583 23.5625 227.438 24.1875C228.312 24.8125 229.125 25.5104 229.875 26.2812C230.646 27.0312 231.344 27.8646 231.969 28.7812C232.594 29.6771 233.094 30.6458 233.469 31.6875C234.281 33.6875 234.719 35.875 234.781 38.25C234.885 41.2917 235.031 43.9583 235.219 46.25C235.406 48.5208 235.646 50.4375 235.938 52L236.188 53.125C235.312 53.2292 234.469 53.3958 233.656 53.625C232.865 53.8333 232.125 54.0729 231.438 54.3438C230.771 54.6146 230.167 54.8958 229.625 55.1875C229.083 55.4792 228.646 55.75 228.312 56C229.125 50.5417 229.531 45.2604 229.531 40.1562C229.49 39.2604 229.448 38.4583 229.406 37.75C229.385 37.0417 229.333 36.4062 229.25 35.8438C229.188 35.2604 229.083 34.7396 228.938 34.2812C228.812 33.8021 228.625 33.3542 228.375 32.9375C227.771 32.0417 227.073 31.2396 226.281 30.5312C225.51 29.8229 224.552 29.1875 223.406 28.625C222.26 28.0417 220.896 27.5104 219.312 27.0312C217.75 26.5312 215.875 26.0521 213.688 25.5938H213.656C213.635 26.3646 213.615 27.1458 213.594 27.9375C213.594 28.7083 213.594 29.4896 213.594 30.2812V31.375C213.615 36.3958 213.708 40.6146 213.875 44.0312C214.042 47.4479 214.333 50.1042 214.75 52L215 53.125C214.104 53.2292 213.25 53.3958 212.438 53.625C211.646 53.8333 210.906 54.0729 210.219 54.3438C209.552 54.6146 208.948 54.8958 208.406 55.1875C207.885 55.4792 207.458 55.75 207.125 56ZM249.125 25.25L249.094 25.2812C248.49 26.4062 247.844 28.2917 247.156 30.9375C246.656 32.8333 246.406 34.6042 246.406 36.25C246.406 36.8958 246.458 37.5729 246.562 38.2812C246.833 40.1146 247.604 41.9792 248.875 43.875C250.188 45.8542 251.99 47.3646 254.281 48.4062C256.427 49.3854 259.5 50.3333 263.5 51.25L263.531 51.2188C264.031 50.0938 264.625 48.0312 265.312 45.0312C265.729 43.2188 265.938 41.5729 265.938 40.0938C265.938 39.3021 265.885 38.6042 265.781 38C265.469 36.1667 264.698 34.3021 263.469 32.4062C262.469 30.8646 260.667 29.3646 258.062 27.9062C256.021 26.7604 253.042 25.875 249.125 25.25ZM256.75 56.125C255.5 55.8125 254.021 55.2083 252.312 54.3125C250.625 53.4167 249.062 52.2812 247.625 50.9062C245.792 49.1354 244.51 47.2083 243.781 45.125C242.885 43 242.438 40.8125 242.438 38.5625C242.438 38.5 242.438 38.4583 242.438 38.4375C242.438 36.2083 242.948 33.9062 243.969 31.5312C244.781 29.6354 245.812 28.0208 247.062 26.6875C247.646 26.0625 248.271 25.5 248.938 25L255.562 20.6562C256.583 20.9271 258.073 21.5625 260.031 22.5625C261.49 23.3125 263.042 24.4375 264.688 25.9375C266.542 27.7292 267.844 29.7188 268.594 31.9062C269.427 34.2396 269.854 36.4062 269.875 38.4062V38.5312C269.875 41.4062 269.417 43.6875 268.5 45.375C267.083 47.9792 265.896 49.7083 264.938 50.5625C264.417 51.0208 264.062 51.3958 263.875 51.6875L256.75 56.125ZM277.688 19C278.083 17.2917 278.281 15.5 278.281 13.625C278.281 13.0625 278.26 12.5 278.219 11.9375C278.198 11.375 278.146 10.8125 278.062 10.25L277.875 9.59375C280.562 9.32292 283.281 8.39583 286.031 6.8125L286.25 6.6875C285.917 7.875 285.75 9.57292 285.75 11.7812C285.75 12.3646 285.771 13.0104 285.812 13.7188C285.875 14.4062 285.958 15.1667 286.062 16C285.208 16.1042 284.354 16.2708 283.5 16.5C282.667 16.7083 281.875 16.9583 281.125 17.25C280.396 17.5208 279.729 17.8125 279.125 18.125C278.542 18.4375 278.062 18.7292 277.688 19ZM272.625 67.5312C275.458 63.7604 277.521 59.6771 278.812 55.2812C279.25 53.8229 279.469 49.9583 279.469 43.6875V42.9062C279.469 39.9896 279.375 37.0104 279.188 33.9688C279 30.9271 278.729 27.7812 278.375 24.5312L278.188 23.4688C279.458 23.3229 280.719 23.0312 281.969 22.5938C283.24 22.1354 284.531 21.5417 285.844 20.8125L286.062 20.6875C285.583 23.6667 285.219 26.6771 284.969 29.7188C284.74 32.7396 284.625 35.8229 284.625 38.9688C284.625 41.8229 284.688 44.25 284.812 46.25C284.958 48.2292 285.146 49.6875 285.375 50.625C285.375 50.6667 285.26 50.9792 285.031 51.5625C284.802 52.125 284.469 52.8646 284.031 53.7812C283.594 54.6771 283.062 55.6771 282.438 56.7812C281.812 57.8854 281.104 58.9792 280.312 60.0625C277.604 63.75 275.156 66.2708 272.969 67.625L272.625 67.5312Z" fill="url(#paint0_linear_553_4412)"/>
<defs>
<linearGradient id="paint0_linear_553_4412" x1="0" y1="19" x2="0.698033" y2="61.8472" gradientUnits="userSpaceOnUse">
<stop offset="0.0865384" stop-color="#FF6B6B"/>
<stop offset="0.774038" stop-color="#BA2121"/>
<stop offset="1" stop-color="#670000"/>
</linearGradient>
</defs>
</svg>
