<svg width="287" height="61" viewBox="0 0 287 61" fill="none" xmlns="http://www.w3.org/2000/svg">
<path d="M12.5625 2.09375C13.9167 2.63542 15.2188 3.04167 16.4688 3.3125C17.7396 3.5625 19.1458 3.6875 20.6875 3.6875C23.4167 3.6875 26.3958 3.15625 29.625 2.09375C28.125 4.84375 27.3021 7.46875 27.1562 9.96875C25.1354 9.86458 23.3333 9.55208 21.75 9.03125C20.1667 8.51042 18.7292 7.77083 17.4375 6.8125C16.0417 5.77083 14.9375 4.88542 14.125 4.15625C13.3333 3.40625 12.7917 2.82292 12.5 2.40625C12.0417 5.32292 11.6979 8.52083 11.4688 12C11.2604 15.4583 11.1562 19.25 11.1562 23.375V23.9375C16.9062 23.6458 21.8229 22.4688 25.9062 20.4062C25.4271 21.2812 25 22.4062 24.625 23.7812C24.25 25.1562 23.9792 26.6562 23.8125 28.2812L22.9688 28.0312C21.8021 27.6771 20.2812 27.4062 18.4062 27.2188C16.5312 27.0312 14.2812 26.9479 11.6562 26.9688H11.1875C11.25 31.4896 11.3646 35.2708 11.5312 38.3125C11.6979 41.3542 11.9583 43.6875 12.3125 45.3125L12.5625 46.4375C11.6667 46.5417 10.8125 46.7083 10 46.9375C9.20833 47.1458 8.46875 47.3854 7.78125 47.6562C7.11458 47.9271 6.51042 48.2083 5.96875 48.5C5.44792 48.7917 5.02083 49.0625 4.6875 49.3125C5.14583 46.2083 5.47917 42.9271 5.6875 39.4688C5.91667 35.9896 6.03125 32.2812 6.03125 28.3438C5.98958 22.8021 5.86458 18.1667 5.65625 14.4375C5.46875 10.6875 5.20833 7.85417 4.875 5.9375L4.6875 4.875C5.95833 4.72917 7.21875 4.4375 8.46875 4C9.73958 3.5625 11.1042 2.92708 12.5625 2.09375ZM34.3125 49.3125C34.7083 46.1667 35 43.3125 35.1875 40.75C35.3958 38.1667 35.5 35.8333 35.5 33.75C35.5 32.0625 35.4792 30.4896 35.4375 29.0312C35.4167 27.5521 35.3646 26.1562 35.2812 24.8438C35.1979 23.5104 35.0833 22.2292 34.9375 21C34.8125 19.7708 34.6562 18.5312 34.4688 17.2812L34.3125 16.7812C35.5833 16.6354 36.8438 16.3438 38.0938 15.9062C39.3646 15.4479 40.6562 14.8542 41.9688 14.125L42.1875 14C41.9792 14.6042 41.7604 15.2708 41.5312 16C41.3021 16.7083 41.0729 17.4583 40.8438 18.25L47.6875 14C48.5208 14.2292 49.5521 14.6354 50.7812 15.2188C52.0312 15.7812 53.2917 16.5312 54.5625 17.4688C55.8333 18.3854 57.0208 19.4792 58.125 20.75C59.25 22 60.0938 23.4167 60.6562 25L55 27.3125C54.1458 25.75 53.1667 24.4375 52.0625 23.375C50.9583 22.2917 49.8229 21.4167 48.6562 20.75C47.4896 20.0625 46.3438 19.5729 45.2188 19.2812C44.0938 18.9688 43.0833 18.8125 42.1875 18.8125C41.75 18.8125 41.3125 18.8438 40.875 18.9062H40.8438C40.7604 19.6771 40.6979 20.9062 40.6562 22.5938C40.6354 24.2604 40.625 26.4062 40.625 29.0312V30.125C40.625 35.9792 41.0625 41.0417 41.9375 45.3125L42.1875 46.4375C41.375 46.5417 40.5729 46.6979 39.7812 46.9062C38.9896 47.1146 38.2396 47.3646 37.5312 47.6562C36.8438 47.9271 36.2188 48.2083 35.6562 48.5C35.0938 48.7917 34.6458 49.0625 34.3125 49.3125ZM76.5625 49.4375C75.3333 49.1458 73.8542 48.5417 72.125 47.625C70.3958 46.6875 68.8333 45.5521 67.4375 44.2188C65.6042 42.4479 64.3229 40.5208 63.5938 38.4375C62.8854 36.7083 62.4375 34.5208 62.25 31.875V31.75C62.25 29.5208 62.7604 27.2188 63.7812 24.8438C64.5521 23.0312 65.5833 21.4167 66.875 20C67.4167 19.4167 68.0417 18.8542 68.75 18.3125L75.3125 14C76.4167 14.375 78.3021 15.25 80.9688 16.625C82.9062 17.625 84.7812 19.125 86.5938 21.125C87.9271 23.2083 88.5938 25.1354 88.5938 26.9062C88.5938 26.9479 88.5938 27 88.5938 27.0625C88.2812 29.6042 87.1146 31.6458 85.0938 33.1875C81.6562 35.8125 77.375 37.1458 72.25 37.1875C78.7083 34.9792 82.5312 32.4271 83.7188 29.5312C83.9688 28.9271 84.0938 28.3333 84.0938 27.75C84.0938 27.7292 84.0938 27.7083 84.0938 27.6875C84.0938 27.6667 84.0938 27.6458 84.0938 27.625C84.0938 26.75 83.7292 25.8958 83 25.0625C81.8542 23.7083 80.2083 22.5 78.0625 21.4375C74.3958 19.625 71.4167 18.6042 69.125 18.375C68.3333 19.6667 67.6146 21.625 66.9688 24.25C66.4688 26.2917 66.2188 28.0625 66.2188 29.5625C66.2188 30.2708 66.2708 30.9479 66.375 31.5938C66.6667 33.4479 67.4375 35.3125 68.6875 37.1875C69.9792 39.1042 71.7812 40.6146 74.0938 41.7188C76.0938 42.6771 79.1667 43.625 83.3125 44.5625L83.3438 44.5312C83.6771 44.0104 83.8438 43.1042 83.8438 41.8125C83.8438 41 83.7083 39.9375 83.4375 38.625L87.875 40.375C87.3125 41.6458 86.3958 42.7917 85.125 43.8125C84.1667 44.5833 83.6875 44.9792 83.6875 45L76.5625 49.4375ZM107.844 49.5C106.198 48.8125 104.677 48.1875 103.281 47.625C102.427 47.2917 101.573 46.8854 100.719 46.4062C99.8854 45.9062 99.0938 45.375 98.3438 44.8125C97.5938 44.25 96.9167 43.6667 96.3125 43.0625C95.7083 42.4583 95.2292 41.8542 94.875 41.25L100.469 37.75C100.51 38.1875 100.781 38.6875 101.281 39.25C101.781 39.7917 102.583 40.3646 103.688 40.9688C104.792 41.5729 106.219 42.1875 107.969 42.8125C109.74 43.4167 111.917 43.9896 114.5 44.5312C115.562 42.7188 116.094 41.0104 116.094 39.4062C116.094 37.2396 114.844 35.8125 112.344 35.125L111.562 34.9062C111.083 34.8229 110.521 34.7396 109.875 34.6562C109.25 34.5729 108.552 34.4792 107.781 34.375C105.781 34.125 104 33.7812 102.438 33.3438C100.875 32.9062 99.5521 32.3542 98.4688 31.6875C97.3854 31 96.5417 30.1979 95.9375 29.2812C95.3333 28.3438 95 27.2604 94.9375 26.0312C94.9792 25.3854 95.0729 24.7917 95.2188 24.25C95.3854 23.7083 95.6458 23.1146 96 22.4688C96.375 21.8229 96.875 21.1562 97.5 20.4688C98.125 19.7812 98.9271 19.0625 99.9062 18.3125L106.531 13.9688C108.073 14.5938 109.406 15.1562 110.531 15.6562C111.656 16.1562 112.646 16.6667 113.5 17.1875C114.354 17.6875 115.115 18.2292 115.781 18.8125C116.448 19.375 117.104 20.0312 117.75 20.7812L112.281 24.0938C111.552 23.2188 110.51 22.2917 109.156 21.3125C107.74 20.3125 104.719 19.3958 100.094 18.5625L100.062 18.5938C99.5833 19.1146 99.1875 19.7708 98.875 20.5625C98.5625 21.3333 98.4062 22.1875 98.4062 23.125C98.4062 24.0208 98.7083 24.7604 99.3125 25.3438C99.9167 25.9271 100.698 26.4062 101.656 26.7812C102.615 27.1562 103.677 27.4479 104.844 27.6562C106.031 27.8646 107.188 28.0417 108.312 28.1875C114.604 28.8542 118.333 30.625 119.5 33.5C119.917 34.4792 120.125 35.5104 120.125 36.5938C120.125 37.0729 120.073 37.5625 119.969 38.0625C119.865 38.5417 119.667 39.0729 119.375 39.6562C119.083 40.2396 118.667 40.875 118.125 41.5625C117.604 42.25 116.917 43.0208 116.062 43.875C115.854 44.0833 115.385 44.4375 114.656 44.9375L107.844 49.5ZM127.938 49.3125C128.396 46.1667 128.729 42.8542 128.938 39.375C129.167 35.8958 129.281 32.2083 129.281 28.3125C129.26 22.8125 129.146 18.1979 128.938 14.4688C128.75 10.7396 128.479 7.89583 128.125 5.9375L127.938 4.875C129.188 4.72917 130.448 4.4375 131.719 4C132.99 3.54167 134.281 2.94792 135.594 2.21875L135.812 2.09375C135.458 4.42708 135.167 6.92708 134.938 9.59375C134.708 12.2604 134.552 15.1458 134.469 18.25L141.312 14C141.896 14.1458 142.562 14.375 143.312 14.6875C144.083 15 144.885 15.3958 145.719 15.875C146.552 16.3333 147.396 16.875 148.25 17.5C149.125 18.125 149.938 18.8229 150.688 19.5938C151.458 20.3438 152.156 21.1771 152.781 22.0938C153.406 22.9896 153.906 23.9583 154.281 25C155.094 27 155.531 29.1875 155.594 31.5625C155.698 34.6042 155.844 37.2708 156.031 39.5625C156.219 41.8333 156.458 43.75 156.75 45.3125L157 46.4375C156.125 46.5417 155.281 46.7083 154.469 46.9375C153.677 47.1458 152.938 47.3854 152.25 47.6562C151.583 47.9271 150.979 48.2083 150.438 48.5C149.896 48.7917 149.458 49.0625 149.125 49.3125C149.938 43.8542 150.344 38.5729 150.344 33.4688C150.302 32.5729 150.26 31.7708 150.219 31.0625C150.198 30.3542 150.146 29.7188 150.062 29.1562C150 28.5729 149.896 28.0521 149.75 27.5938C149.625 27.1146 149.438 26.6667 149.188 26.25C148.583 25.3542 147.885 24.5521 147.094 23.8438C146.323 23.1354 145.365 22.5 144.219 21.9375C143.073 21.3542 141.708 20.8229 140.125 20.3438C138.562 19.8438 136.688 19.3646 134.5 18.9062H134.469C134.448 19.6771 134.427 20.4583 134.406 21.25C134.406 22.0208 134.406 22.8021 134.406 23.5938V24.6875C134.427 29.7083 134.521 33.9271 134.688 37.3438C134.854 40.7604 135.146 43.4167 135.562 45.3125L135.812 46.4375C134.917 46.5417 134.062 46.7083 133.25 46.9375C132.458 47.1458 131.719 47.3854 131.031 47.6562C130.365 47.9271 129.76 48.2083 129.219 48.5C128.698 48.7917 128.271 49.0625 127.938 49.3125ZM166.312 49.3125C166.771 46.125 167.115 43.1146 167.344 40.2812C167.573 37.4479 167.688 34.7708 167.688 32.25C167.688 29.1875 167.562 26.3229 167.312 23.6562C167.083 20.9896 166.812 18.5417 166.5 16.3125L166.312 15.25C167.583 15.1042 168.844 14.8125 170.094 14.375C171.365 13.9167 172.656 13.3229 173.969 12.5938L174.188 12.4688C173.708 15.6354 173.344 18.4792 173.094 21C172.865 23.5 172.75 25.7292 172.75 27.6875C172.75 27.9583 172.75 28.2188 172.75 28.4688C172.75 28.7188 172.76 28.9583 172.781 29.1875C172.99 33.5625 173.167 37.0521 173.312 39.6562C173.479 42.2604 173.635 44.0208 173.781 44.9375L175.219 45.6562C177.281 46.1979 179.198 46.4688 180.969 46.4688C182.823 46.4688 184.542 46.1875 186.125 45.625C187.708 45.0625 189.167 44.2292 190.5 43.125C191.312 41.9375 191.906 40.7812 192.281 39.6562C192.677 38.5104 192.875 37.375 192.875 36.25C192.875 33.8958 192.271 31.9375 191.062 30.375C189.854 28.8125 188.104 27.7812 185.812 27.2812C185.292 27.1771 184.781 27.125 184.281 27.125C181.781 27.125 178.417 28.2083 174.188 30.375L178.781 22.4062C183.094 20.4479 185.25 17.3229 185.25 13.0312C185.25 11.5312 184.688 10.2917 183.562 9.3125C182.458 8.33333 180.802 7.84375 178.594 7.84375C177.552 7.86458 176.396 8 175.125 8.25C173.854 8.47917 172.531 8.83333 171.156 9.3125C169.802 9.79167 168.417 10.3958 167 11.125C165.604 11.8542 164.25 12.7188 162.938 13.7188L165 5.53125C166.5 4.92708 167.667 4.46875 168.5 4.15625C169.333 3.82292 169.865 3.61458 170.094 3.53125C171.594 3.05208 173.083 2.6875 174.562 2.4375C176.042 2.16667 177.5 2.03125 178.938 2.03125C180.396 2.03125 181.667 2.16667 182.75 2.4375C183.833 2.70833 184.74 3.08333 185.469 3.5625C187.031 4.625 188.198 5.8125 188.969 7.125C189.74 8.4375 190.125 9.84375 190.125 11.3438C190.104 12.5104 189.854 13.6354 189.375 14.7188C188.917 15.7812 188.323 16.7604 187.594 17.6562C186.865 18.5521 186.052 19.3438 185.156 20.0312C184.281 20.6979 183.417 21.1979 182.562 21.5312C182.917 21.4896 183.271 21.4583 183.625 21.4375C183.979 21.3958 184.323 21.375 184.656 21.375C186.26 21.375 187.719 21.5833 189.031 22C190.365 22.4167 191.552 22.9688 192.594 23.6562C193.635 24.3438 194.542 25.1458 195.312 26.0625C196.083 26.9583 196.719 27.8958 197.219 28.875C197.719 29.8542 198.094 30.8333 198.344 31.8125C198.594 32.7917 198.719 33.7083 198.719 34.5625C198.719 35.625 198.625 36.5938 198.438 37.4688C198.25 38.3438 198.073 39.0208 197.906 39.5C197.302 41.3125 196.5 42.8542 195.5 44.125C194.521 45.3958 193.417 46.4271 192.188 47.2188C190.979 48.0104 189.667 48.5833 188.25 48.9375C186.854 49.2917 185.427 49.4688 183.969 49.4688C183.094 49.4688 182.385 49.4479 181.844 49.4062C181.302 49.3646 181 49.3333 180.938 49.3125L174.188 46.4375C173.312 46.5417 172.469 46.7083 171.656 46.9375C170.865 47.1458 170.125 47.3854 169.438 47.6562C168.771 47.9271 168.167 48.2083 167.625 48.5C167.083 48.7917 166.646 49.0625 166.312 49.3125ZM207.125 49.3125C207.583 46.1667 207.917 42.8542 208.125 39.375C208.354 35.8958 208.469 32.2083 208.469 28.3125C208.448 22.8125 208.333 18.1979 208.125 14.4688C207.938 10.7396 207.667 7.89583 207.312 5.9375L207.125 4.875C208.375 4.72917 209.635 4.4375 210.906 4C212.177 3.54167 213.469 2.94792 214.781 2.21875L215 2.09375C214.646 4.42708 214.354 6.92708 214.125 9.59375C213.896 12.2604 213.74 15.1458 213.656 18.25L220.5 14C221.083 14.1458 221.75 14.375 222.5 14.6875C223.271 15 224.073 15.3958 224.906 15.875C225.74 16.3333 226.583 16.875 227.438 17.5C228.312 18.125 229.125 18.8229 229.875 19.5938C230.646 20.3438 231.344 21.1771 231.969 22.0938C232.594 22.9896 233.094 23.9583 233.469 25C234.281 27 234.719 29.1875 234.781 31.5625C234.885 34.6042 235.031 37.2708 235.219 39.5625C235.406 41.8333 235.646 43.75 235.938 45.3125L236.188 46.4375C235.312 46.5417 234.469 46.7083 233.656 46.9375C232.865 47.1458 232.125 47.3854 231.438 47.6562C230.771 47.9271 230.167 48.2083 229.625 48.5C229.083 48.7917 228.646 49.0625 228.312 49.3125C229.125 43.8542 229.531 38.5729 229.531 33.4688C229.49 32.5729 229.448 31.7708 229.406 31.0625C229.385 30.3542 229.333 29.7188 229.25 29.1562C229.188 28.5729 229.083 28.0521 228.938 27.5938C228.812 27.1146 228.625 26.6667 228.375 26.25C227.771 25.3542 227.073 24.5521 226.281 23.8438C225.51 23.1354 224.552 22.5 223.406 21.9375C222.26 21.3542 220.896 20.8229 219.312 20.3438C217.75 19.8438 215.875 19.3646 213.688 18.9062H213.656C213.635 19.6771 213.615 20.4583 213.594 21.25C213.594 22.0208 213.594 22.8021 213.594 23.5938V24.6875C213.615 29.7083 213.708 33.9271 213.875 37.3438C214.042 40.7604 214.333 43.4167 214.75 45.3125L215 46.4375C214.104 46.5417 213.25 46.7083 212.438 46.9375C211.646 47.1458 210.906 47.3854 210.219 47.6562C209.552 47.9271 208.948 48.2083 208.406 48.5C207.885 48.7917 207.458 49.0625 207.125 49.3125ZM249.125 18.5625L249.094 18.5938C248.49 19.7188 247.844 21.6042 247.156 24.25C246.656 26.1458 246.406 27.9167 246.406 29.5625C246.406 30.2083 246.458 30.8854 246.562 31.5938C246.833 33.4271 247.604 35.2917 248.875 37.1875C250.188 39.1667 251.99 40.6771 254.281 41.7188C256.427 42.6979 259.5 43.6458 263.5 44.5625L263.531 44.5312C264.031 43.4062 264.625 41.3438 265.312 38.3438C265.729 36.5312 265.938 34.8854 265.938 33.4062C265.938 32.6146 265.885 31.9167 265.781 31.3125C265.469 29.4792 264.698 27.6146 263.469 25.7188C262.469 24.1771 260.667 22.6771 258.062 21.2188C256.021 20.0729 253.042 19.1875 249.125 18.5625ZM256.75 49.4375C255.5 49.125 254.021 48.5208 252.312 47.625C250.625 46.7292 249.062 45.5938 247.625 44.2188C245.792 42.4479 244.51 40.5208 243.781 38.4375C242.885 36.3125 242.438 34.125 242.438 31.875C242.438 31.8125 242.438 31.7708 242.438 31.75C242.438 29.5208 242.948 27.2188 243.969 24.8438C244.781 22.9479 245.812 21.3333 247.062 20C247.646 19.375 248.271 18.8125 248.938 18.3125L255.562 13.9688C256.583 14.2396 258.073 14.875 260.031 15.875C261.49 16.625 263.042 17.75 264.688 19.25C266.542 21.0417 267.844 23.0312 268.594 25.2188C269.427 27.5521 269.854 29.7188 269.875 31.7188V31.8438C269.875 34.7188 269.417 37 268.5 38.6875C267.083 41.2917 265.896 43.0208 264.938 43.875C264.417 44.3333 264.062 44.7083 263.875 45L256.75 49.4375ZM277.688 12.3125C278.083 10.6042 278.281 8.8125 278.281 6.9375C278.281 6.375 278.26 5.8125 278.219 5.25C278.198 4.6875 278.146 4.125 278.062 3.5625L277.875 2.90625C280.562 2.63542 283.281 1.70833 286.031 0.125L286.25 0C285.917 1.1875 285.75 2.88542 285.75 5.09375C285.75 5.67708 285.771 6.32292 285.812 7.03125C285.875 7.71875 285.958 8.47917 286.062 9.3125C285.208 9.41667 284.354 9.58333 283.5 9.8125C282.667 10.0208 281.875 10.2708 281.125 10.5625C280.396 10.8333 279.729 11.125 279.125 11.4375C278.542 11.75 278.062 12.0417 277.688 12.3125ZM272.625 60.8438C275.458 57.0729 277.521 52.9896 278.812 48.5938C279.25 47.1354 279.469 43.2708 279.469 37V36.2188C279.469 33.3021 279.375 30.3229 279.188 27.2812C279 24.2396 278.729 21.0938 278.375 17.8438L278.188 16.7812C279.458 16.6354 280.719 16.3438 281.969 15.9062C283.24 15.4479 284.531 14.8542 285.844 14.125L286.062 14C285.583 16.9792 285.219 19.9896 284.969 23.0312C284.74 26.0521 284.625 29.1354 284.625 32.2812C284.625 35.1354 284.688 37.5625 284.812 39.5625C284.958 41.5417 285.146 43 285.375 43.9375C285.375 43.9792 285.26 44.2917 285.031 44.875C284.802 45.4375 284.469 46.1771 284.031 47.0938C283.594 47.9896 283.062 48.9896 282.438 50.0938C281.812 51.1979 281.104 52.2917 280.312 53.375C277.604 57.0625 275.156 59.5833 272.969 60.9375L272.625 60.8438Z" fill="url(#paint0_linear_553_4413)"/>
<defs>
<linearGradient id="paint0_linear_553_4413" x1="0" y1="12.3125" x2="0.698033" y2="55.1597" gradientUnits="userSpaceOnUse">
<stop offset="0.0865384" stop-color="#FF6B6B"/>
<stop offset="0.774038" stop-color="#BA2121"/>
<stop offset="1" stop-color="#670000"/>
</linearGradient>
</defs>
</svg>
