<svg width="64" height="64" viewBox="0 0 64 64" fill="none" xmlns="http://www.w3.org/2000/svg">
<rect width="64" height="64" rx="16" fill="#EC1313" fill-opacity="0.05"/>
<path d="M20 45.5L17 42.5H47L44 45.5H20ZM18.5 41C18.65 40.55 18.85 40.125 19.1 39.725C19.35 39.325 19.65 38.95 20 38.6V27.5H18.5V25.25H20V24.125H18.5V21.875H20V20.75H18.5V18.5H29C29.825 18.5 30.5312 18.7938 31.1187 19.3813C31.7062 19.9688 32 20.675 32 21.5V21.875H45.5V24.125H32V24.5C32 25.325 31.7062 26.0312 31.1187 26.6187C30.5312 27.2062 29.825 27.5 29 27.5H26V36.65C26.35 36.7 26.7 36.775 27.05 36.875C27.4 36.975 27.725 37.125 28.025 37.325C28.675 35.7 29.7125 34.4062 31.1375 33.4438C32.5625 32.4813 34.1375 32 35.8625 32C38.1125 32 40.0312 32.7687 41.6187 34.3062C43.2062 35.8438 44 37.725 44 39.95V41H18.5ZM31.025 38H40.475C40.05 37.1 39.425 36.375 38.6 35.825C37.775 35.275 36.8625 35 35.8625 35C34.8125 35 33.85 35.2625 32.975 35.7875C32.1 36.3125 31.45 37.05 31.025 38ZM26 21.875H29V20.75H26V21.875ZM26 25.25H29V24.125H26V25.25ZM22.25 21.875H23.75V20.75H22.25V21.875ZM22.25 25.25H23.75V24.125H22.25V25.25ZM22.25 37.025C22.5 36.9 22.7437 36.8062 22.9812 36.7437C23.2188 36.6812 23.475 36.625 23.75 36.575V27.5H22.25V37.025Z" fill="url(#paint0_linear_553_3195)"/>
<defs>
<linearGradient id="paint0_linear_553_3195" x1="17" y1="18.5" x2="22.3541" y2="49.7259" gradientUnits="userSpaceOnUse">
<stop offset="0.0865384" stop-color="#FF6B6B"/>
<stop offset="0.774038" stop-color="#BA2121"/>
<stop offset="1" stop-color="#670000"/>
</linearGradient>
</defs>
</svg>
