<svg width="70" height="70" viewBox="0 0 70 70" fill="none" xmlns="http://www.w3.org/2000/svg">
<g clip-path="url(#clip0_908_173)">
<rect width="70" height="70" rx="24" fill="url(#paint0_linear_908_173)"/>
<path d="M19.4219 17.5859C20.4375 17.9922 21.4141 18.2969 22.3516 18.5C23.3047 18.6875 24.3594 18.7812 25.5156 18.7812C27.5625 18.7812 29.7969 18.3828 32.2188 17.5859C31.0938 19.6484 30.4766 21.6172 30.3672 23.4922C28.8516 23.4141 27.5 23.1797 26.3125 22.7891C25.125 22.3984 24.0469 21.8438 23.0781 21.125C22.0312 20.3438 21.2031 19.6797 20.5938 19.1328C20 18.5703 19.5938 18.1328 19.375 17.8203C19.0312 20.0078 18.7734 22.4062 18.6016 25.0156C18.4453 27.6094 18.3672 30.4531 18.3672 33.5469V33.9688C22.6797 33.75 26.3672 32.8672 29.4297 31.3203C29.0703 31.9766 28.75 32.8203 28.4688 33.8516C28.1875 34.8828 27.9844 36.0078 27.8594 37.2266L27.2266 37.0391C26.3516 36.7734 25.2109 36.5703 23.8047 36.4297C22.3984 36.2891 20.7109 36.2266 18.7422 36.2422H18.3906C18.4375 39.6328 18.5234 42.4688 18.6484 44.75C18.7734 47.0312 18.9688 48.7812 19.2344 50L19.4219 50.8438C18.75 50.9219 18.1094 51.0469 17.5 51.2188C16.9062 51.375 16.3516 51.5547 15.8359 51.7578C15.3359 51.9609 14.8828 52.1719 14.4766 52.3906C14.0859 52.6094 13.7656 52.8125 13.5156 53C13.8594 50.6719 14.1094 48.2109 14.2656 45.6172C14.4375 43.0078 14.5234 40.2266 14.5234 37.2734C14.4922 33.1172 14.3984 29.6406 14.2422 26.8438C14.1016 24.0312 13.9062 21.9062 13.6562 20.4688L13.5156 19.6719C14.4688 19.5625 15.4141 19.3438 16.3516 19.0156C17.3047 18.6875 18.3281 18.2109 19.4219 17.5859ZM36.8594 53C37.2031 50.6094 37.4609 48.3516 37.6328 46.2266C37.8047 44.1016 37.8906 42.0938 37.8906 40.2031C37.8906 37.9062 37.7969 35.7578 37.6094 33.7578C37.4375 31.7578 37.2344 29.9219 37 28.25L36.8594 27.4531C37.8125 27.3438 38.7578 27.125 39.6953 26.7969C40.6484 26.4531 41.6172 26.0078 42.6016 25.4609L42.7656 25.3672C42.4062 27.7422 42.1328 29.875 41.9453 31.7656C41.7734 33.6406 41.6875 35.3125 41.6875 36.7812C41.6875 36.9844 41.6875 37.1797 41.6875 37.3672C41.6875 37.5547 41.6953 37.7344 41.7109 37.9062C41.8672 41.1875 42 43.8047 42.1094 45.7578C42.2344 47.7109 42.3516 49.0312 42.4609 49.7188L43.5391 50.2578C45.0859 50.6641 46.5234 50.8672 47.8516 50.8672C49.2422 50.8672 50.5312 50.6562 51.7188 50.2344C52.9062 49.8125 54 49.1875 55 48.3594C55.6094 47.4688 56.0547 46.6016 56.3359 45.7578C56.6328 44.8984 56.7812 44.0469 56.7812 43.2031C56.7812 41.4375 56.3281 39.9688 55.4219 38.7969C54.5156 37.625 53.2031 36.8516 51.4844 36.4766C51.0938 36.3984 50.7109 36.3594 50.3359 36.3594C48.4609 36.3594 45.9375 37.1719 42.7656 38.7969L46.2109 32.8203C49.4453 31.3516 51.0625 29.0078 51.0625 25.7891C51.0625 24.6641 50.6406 23.7344 49.7969 23C48.9688 22.2656 47.7266 21.8984 46.0703 21.8984C45.2891 21.9141 44.4219 22.0156 43.4688 22.2031C42.5156 22.375 41.5234 22.6406 40.4922 23C39.4766 23.3594 38.4375 23.8125 37.375 24.3594C36.3281 24.9062 35.3125 25.5547 34.3281 26.3047L35.875 20.1641C37 19.7109 37.875 19.3672 38.5 19.1328C39.125 18.8828 39.5234 18.7266 39.6953 18.6641C40.8203 18.3047 41.9375 18.0312 43.0469 17.8438C44.1562 17.6406 45.25 17.5391 46.3281 17.5391C47.4219 17.5391 48.375 17.6406 49.1875 17.8438C50 18.0469 50.6797 18.3281 51.2266 18.6875C52.3984 19.4844 53.2734 20.375 53.8516 21.3594C54.4297 22.3438 54.7188 23.3984 54.7188 24.5234C54.7031 25.3984 54.5156 26.2422 54.1562 27.0547C53.8125 27.8516 53.3672 28.5859 52.8203 29.2578C52.2734 29.9297 51.6641 30.5234 50.9922 31.0391C50.3359 31.5391 49.6875 31.9141 49.0469 32.1641C49.3125 32.1328 49.5781 32.1094 49.8438 32.0938C50.1094 32.0625 50.3672 32.0469 50.6172 32.0469C51.8203 32.0469 52.9141 32.2031 53.8984 32.5156C54.8984 32.8281 55.7891 33.2422 56.5703 33.7578C57.3516 34.2734 58.0312 34.875 58.6094 35.5625C59.1875 36.2344 59.6641 36.9375 60.0391 37.6719C60.4141 38.4062 60.6953 39.1406 60.8828 39.875C61.0703 40.6094 61.1641 41.2969 61.1641 41.9375C61.1641 42.7344 61.0938 43.4609 60.9531 44.1172C60.8125 44.7734 60.6797 45.2812 60.5547 45.6406C60.1016 47 59.5 48.1562 58.75 49.1094C58.0156 50.0625 57.1875 50.8359 56.2656 51.4297C55.3594 52.0234 54.375 52.4531 53.3125 52.7188C52.2656 52.9844 51.1953 53.1172 50.1016 53.1172C49.4453 53.1172 48.9141 53.1016 48.5078 53.0703C48.1016 53.0391 47.875 53.0156 47.8281 53L42.7656 50.8438C42.1094 50.9219 41.4766 51.0469 40.8672 51.2188C40.2734 51.375 39.7188 51.5547 39.2031 51.7578C38.7031 51.9609 38.25 52.1719 37.8438 52.3906C37.4375 52.6094 37.1094 52.8125 36.8594 53Z" fill="white"/>
</g>
<rect x="0.5" y="0.5" width="69" height="69" rx="23.5" stroke="white" stroke-opacity="0.2"/>
<defs>
<linearGradient id="paint0_linear_908_173" x1="0" y1="0" x2="15.3208" y2="80.4173" gradientUnits="userSpaceOnUse">
<stop offset="0.0865384" stop-color="#FF6B6B"/>
<stop offset="0.774038" stop-color="#BA2121"/>
<stop offset="1" stop-color="#670000"/>
</linearGradient>
<clipPath id="clip0_908_173">
<rect width="70" height="70" rx="24" fill="white"/>
</clipPath>
</defs>
</svg>
