<svg width="64" height="64" viewBox="0 0 64 64" fill="none" xmlns="http://www.w3.org/2000/svg">
<rect width="64" height="64" rx="16" fill="#FFEDD5"/>
<path d="M37.125 32.75L35.3125 30.9375C35.5 29.9583 35.2188 29.0417 34.4688 28.1875C33.7188 27.3333 32.75 27 31.5625 27.1875L29.75 25.375C30.1042 25.2083 30.4635 25.0833 30.8281 25C31.1927 24.9167 31.5833 24.875 32 24.875C33.5625 24.875 34.8906 25.4219 35.9844 26.5156C37.0781 27.6094 37.625 28.9375 37.625 30.5C37.625 30.9167 37.5833 31.3073 37.5 31.6719C37.4167 32.0365 37.2917 32.3958 37.125 32.75ZM41.125 36.6875L39.3125 34.9375C40.1042 34.3333 40.8073 33.6719 41.4219 32.9531C42.0365 32.2344 42.5625 31.4167 43 30.5C41.9583 28.3958 40.4635 26.724 38.5156 25.4844C36.5677 24.2448 34.3958 23.625 32 23.625C31.3958 23.625 30.8021 23.6667 30.2188 23.75C29.6354 23.8333 29.0625 23.9583 28.5 24.125L26.5625 22.1875C27.4167 21.8333 28.2917 21.5677 29.1875 21.3906C30.0833 21.2135 31.0208 21.125 32 21.125C35.1458 21.125 37.9479 21.9948 40.4062 23.7344C42.8646 25.474 44.6458 27.7292 45.75 30.5C45.2708 31.7292 44.6406 32.8698 43.8594 33.9219C43.0781 34.974 42.1667 35.8958 41.125 36.6875ZM41.75 44.375L36.5 39.1875C35.7708 39.4167 35.0365 39.5885 34.2969 39.7031C33.5573 39.8177 32.7917 39.875 32 39.875C28.8542 39.875 26.0521 39.0052 23.5938 37.2656C21.1354 35.526 19.3542 33.2708 18.25 30.5C18.6875 29.3958 19.2396 28.3698 19.9062 27.4219C20.5729 26.474 21.3333 25.625 22.1875 24.875L18.75 21.375L20.5 19.625L43.5 42.625L41.75 44.375ZM23.9375 26.625C23.3333 27.1667 22.7812 27.7604 22.2812 28.4062C21.7812 29.0521 21.3542 29.75 21 30.5C22.0417 32.6042 23.5365 34.276 25.4844 35.5156C27.4323 36.7552 29.6042 37.375 32 37.375C32.4167 37.375 32.8229 37.349 33.2188 37.2969C33.6146 37.2448 34.0208 37.1875 34.4375 37.125L33.3125 35.9375C33.0833 36 32.8646 36.0469 32.6562 36.0781C32.4479 36.1094 32.2292 36.125 32 36.125C30.4375 36.125 29.1094 35.5781 28.0156 34.4844C26.9219 33.3906 26.375 32.0625 26.375 30.5C26.375 30.2708 26.3906 30.0521 26.4219 29.8438C26.4531 29.6354 26.5 29.4167 26.5625 29.1875L23.9375 26.625Z" fill="#F97316"/>
</svg>
