<svg width="23" height="28" viewBox="0 0 23 28" fill="none" xmlns="http://www.w3.org/2000/svg">
<path d="M4.0625 27.5V22.5H3.125C2.25 22.5 1.51042 22.1979 0.90625 21.5938C0.302083 20.9896 0 20.25 0 19.375C0 18.5 0.302083 17.7604 0.90625 17.1562C1.51042 16.5521 2.25 16.25 3.125 16.25H4.0625V15H0V8.75H4.0625V7.5H3.125C2.25 7.5 1.51042 7.19792 0.90625 6.59375C0.302083 5.98958 0 5.25 0 4.375C0 3.5 0.302083 2.76042 0.90625 2.15625C1.51042 1.55208 2.25 1.25 3.125 1.25H4.0625V0H5.9375V1.25H6.875C7.75 1.25 8.48958 1.55208 9.09375 2.15625C9.69792 2.76042 10 3.5 10 4.375C10 5.25 9.69792 5.98958 9.09375 6.59375C8.48958 7.19792 7.75 7.5 6.875 7.5H5.9375V8.75H10V15H5.9375V16.25H6.875C7.75 16.25 8.48958 16.5521 9.09375 17.1562C9.69792 17.7604 10 18.5 10 19.375C10 20.25 9.69792 20.9896 9.09375 21.5938C8.48958 22.1979 7.75 22.5 6.875 22.5H5.9375V27.5H4.0625ZM16.5625 27.5V22.5H15.625C14.75 22.5 14.0104 22.1979 13.4062 21.5938C12.8021 20.9896 12.5 20.25 12.5 19.375C12.5 18.5 12.8021 17.7604 13.4062 17.1562C14.0104 16.5521 14.75 16.25 15.625 16.25H16.5625V15H12.5V8.75H16.5625V7.5H15.625C14.75 7.5 14.0104 7.19792 13.4062 6.59375C12.8021 5.98958 12.5 5.25 12.5 4.375C12.5 3.5 12.8021 2.76042 13.4062 2.15625C14.0104 1.55208 14.75 1.25 15.625 1.25H16.5625V0H18.4375V1.25H19.375C20.25 1.25 20.9896 1.55208 21.5938 2.15625C22.1979 2.76042 22.5 3.5 22.5 4.375C22.5 5.25 22.1979 5.98958 21.5938 6.59375C20.9896 7.19792 20.25 7.5 19.375 7.5H18.4375V8.75H22.5V15H18.4375V16.25H19.375C20.25 16.25 20.9896 16.5521 21.5938 17.1562C22.1979 17.7604 22.5 18.5 22.5 19.375C22.5 20.25 22.1979 20.9896 21.5938 21.5938C20.9896 22.1979 20.25 22.5 19.375 22.5H18.4375V27.5H16.5625ZM3.125 5H6.875C7.04167 5 7.1875 4.9375 7.3125 4.8125C7.4375 4.6875 7.5 4.54167 7.5 4.375C7.5 4.20833 7.4375 4.0625 7.3125 3.9375C7.1875 3.8125 7.04167 3.75 6.875 3.75H3.125C2.95833 3.75 2.8125 3.8125 2.6875 3.9375C2.5625 4.0625 2.5 4.20833 2.5 4.375C2.5 4.54167 2.5625 4.6875 2.6875 4.8125C2.8125 4.9375 2.95833 5 3.125 5ZM15.625 5H19.375C19.5417 5 19.6875 4.9375 19.8125 4.8125C19.9375 4.6875 20 4.54167 20 4.375C20 4.20833 19.9375 4.0625 19.8125 3.9375C19.6875 3.8125 19.5417 3.75 19.375 3.75H15.625C15.4583 3.75 15.3125 3.8125 15.1875 3.9375C15.0625 4.0625 15 4.20833 15 4.375C15 4.54167 15.0625 4.6875 15.1875 4.8125C15.3125 4.9375 15.4583 5 15.625 5ZM2.5 12.5H7.5V11.25H2.5V12.5ZM15 12.5H20V11.25H15V12.5ZM3.125 20H6.875C7.04167 20 7.1875 19.9375 7.3125 19.8125C7.4375 19.6875 7.5 19.5417 7.5 19.375C7.5 19.2083 7.4375 19.0625 7.3125 18.9375C7.1875 18.8125 7.04167 18.75 6.875 18.75H3.125C2.95833 18.75 2.8125 18.8125 2.6875 18.9375C2.5625 19.0625 2.5 19.2083 2.5 19.375C2.5 19.5417 2.5625 19.6875 2.6875 19.8125C2.8125 19.9375 2.95833 20 3.125 20ZM15.625 20H19.375C19.5417 20 19.6875 19.9375 19.8125 19.8125C19.9375 19.6875 20 19.5417 20 19.375C20 19.2083 19.9375 19.0625 19.8125 18.9375C19.6875 18.8125 19.5417 18.75 19.375 18.75H15.625C15.4583 18.75 15.3125 18.8125 15.1875 18.9375C15.0625 19.0625 15 19.2083 15 19.375C15 19.5417 15.0625 19.6875 15.1875 19.8125C15.3125 19.9375 15.4583 20 15.625 20ZM2.5 5C2.5 5 2.5 4.9375 2.5 4.8125C2.5 4.6875 2.5 4.54167 2.5 4.375C2.5 4.20833 2.5 4.0625 2.5 3.9375C2.5 3.8125 2.5 3.75 2.5 3.75C2.5 3.75 2.5 3.8125 2.5 3.9375C2.5 4.0625 2.5 4.20833 2.5 4.375C2.5 4.54167 2.5 4.6875 2.5 4.8125C2.5 4.9375 2.5 5 2.5 5ZM15 5C15 5 15 4.9375 15 4.8125C15 4.6875 15 4.54167 15 4.375C15 4.20833 15 4.0625 15 3.9375C15 3.8125 15 3.75 15 3.75C15 3.75 15 3.8125 15 3.9375C15 4.0625 15 4.20833 15 4.375C15 4.54167 15 4.6875 15 4.8125C15 4.9375 15 5 15 5ZM2.5 12.5V11.25V12.5ZM15 12.5V11.25V12.5ZM2.5 20C2.5 20 2.5 19.9375 2.5 19.8125C2.5 19.6875 2.5 19.5417 2.5 19.375C2.5 19.2083 2.5 19.0625 2.5 18.9375C2.5 18.8125 2.5 18.75 2.5 18.75C2.5 18.75 2.5 18.8125 2.5 18.9375C2.5 19.0625 2.5 19.2083 2.5 19.375C2.5 19.5417 2.5 19.6875 2.5 19.8125C2.5 19.9375 2.5 20 2.5 20ZM15 20C15 20 15 19.9375 15 19.8125C15 19.6875 15 19.5417 15 19.375C15 19.2083 15 19.0625 15 18.9375C15 18.8125 15 18.75 15 18.75C15 18.75 15 18.8125 15 18.9375C15 19.0625 15 19.2083 15 19.375C15 19.5417 15 19.6875 15 19.8125C15 19.9375 15 20 15 20Z" fill="#EF4444"/>
</svg>
