<svg width="18" height="18" viewBox="0 0 18 18" fill="none" xmlns="http://www.w3.org/2000/svg">
<path d="M0 17.0833L4.16667 5.41667L11.6667 12.9167L0 17.0833ZM2.75 14.3333L8.625 12.25L4.83333 8.45833L2.75 14.3333ZM10.4583 9.20833L9.58333 8.33333L14.25 3.66667C14.6944 3.22222 15.2292 3 15.8542 3C16.4792 3 17.0139 3.22222 17.4583 3.66667L17.9583 4.16667L17.0833 5.04167L16.5833 4.54167C16.3889 4.34722 16.1458 4.25 15.8542 4.25C15.5625 4.25 15.3194 4.34722 15.125 4.54167L10.4583 9.20833ZM7.125 5.875L6.25 5L6.75 4.5C6.94444 4.30556 7.04167 4.06944 7.04167 3.79167C7.04167 3.51389 6.94444 3.27778 6.75 3.08333L6.20833 2.54167L7.08333 1.66667L7.625 2.20833C8.06944 2.65278 8.29167 3.18056 8.29167 3.79167C8.29167 4.40278 8.06944 4.93056 7.625 5.375L7.125 5.875ZM8.79167 7.54167L7.91667 6.66667L10.9167 3.66667C11.1111 3.47222 11.2083 3.22917 11.2083 2.9375C11.2083 2.64583 11.1111 2.40278 10.9167 2.20833L9.58333 0.875L10.4583 0L11.7917 1.33333C12.2361 1.77778 12.4583 2.3125 12.4583 2.9375C12.4583 3.5625 12.2361 4.09722 11.7917 4.54167L8.79167 7.54167ZM12.125 10.875L11.25 10L12.5833 8.66667C13.0278 8.22222 13.5625 8 14.1875 8C14.8125 8 15.3472 8.22222 15.7917 8.66667L17.125 10L16.25 10.875L14.9167 9.54167C14.7222 9.34722 14.4792 9.25 14.1875 9.25C13.8958 9.25 13.6528 9.34722 13.4583 9.54167L12.125 10.875Z" fill="url(#paint0_linear_553_6193)"/>
<defs>
<linearGradient id="paint0_linear_553_6193" x1="0" y1="0" x2="3.56872" y2="19.6912" gradientUnits="userSpaceOnUse">
<stop offset="0.0865384" stop-color="#FF6B6B"/>
<stop offset="0.774038" stop-color="#BA2121"/>
<stop offset="1" stop-color="#670000"/>
</linearGradient>
</defs>
</svg>
