<svg width="64" height="64" viewBox="0 0 64 64" fill="none" xmlns="http://www.w3.org/2000/svg">
<rect width="64" height="64" rx="24" fill="white" fill-opacity="0.2"/>
<path d="M37.9766 23C37.9766 21.5938 38.7383 20.2461 40.2617 18.957C41.7852 17.668 43.5312 17.0234 45.5 17.0234V46.9766H41.7734V35.0234H37.9766V23ZM30.5234 27.5V17.0234H33.4766V27.5C33.4766 29.0938 32.9375 30.4648 31.8594 31.6133C30.7812 32.7617 29.4453 33.3828 27.8516 33.4766V46.9766H24.125V33.4766C22.5312 33.3828 21.1953 32.7617 20.1172 31.6133C19.0391 30.4648 18.5 29.0938 18.5 27.5V17.0234H21.5234V27.5H24.4766V17.0234H27.5V27.5H30.5234Z" fill="white"/>
</svg>
