<svg width="30" height="26" viewBox="0 0 30 26" fill="none" xmlns="http://www.w3.org/2000/svg">
<path d="M6.25 25.625C4.52083 25.625 3.04688 25.0156 1.82812 23.7969C0.609375 22.5781 0 21.1042 0 19.375C0 17.6458 0.609375 16.1719 1.82812 14.9531C3.04688 13.7344 4.52083 13.125 6.25 13.125C7.97917 13.125 9.45312 13.7344 10.6719 14.9531C11.8906 16.1719 12.5 17.6458 12.5 19.375C12.5 21.1042 11.8906 22.5781 10.6719 23.7969C9.45312 25.0156 7.97917 25.625 6.25 25.625ZM6.25 23.125C7.29167 23.125 8.17708 22.7604 8.90625 22.0312C9.63542 21.3021 10 20.4167 10 19.375C10 18.3333 9.63542 17.4479 8.90625 16.7188C8.17708 15.9896 7.29167 15.625 6.25 15.625C5.20833 15.625 4.32292 15.9896 3.59375 16.7188C2.86458 17.4479 2.5 18.3333 2.5 19.375C2.5 20.4167 2.86458 21.3021 3.59375 22.0312C4.32292 22.7604 5.20833 23.125 6.25 23.125ZM13.75 21.875V15.625L9.75 12.125C9.5 11.8958 9.3125 11.6302 9.1875 11.3281C9.0625 11.026 9 10.7083 9 10.375C9 10.0417 9.06771 9.72396 9.20312 9.42188C9.33854 9.11979 9.52083 8.85417 9.75 8.625L13.25 5.125C13.5 4.875 13.7865 4.6875 14.1094 4.5625C14.4323 4.4375 14.7708 4.375 15.125 4.375C15.4792 4.375 15.8177 4.4375 16.1406 4.5625C16.4635 4.6875 16.75 4.875 17 5.125L19.375 7.5C19.9583 8.08333 20.625 8.54167 21.375 8.875C22.125 9.20833 22.9167 9.375 23.75 9.375V11.875C22.5625 11.875 21.4323 11.6458 20.3594 11.1875C19.2865 10.7292 18.3333 10.0833 17.5 9.25L16.5 8.25L13.5 11.25L16.25 14.125V21.875H13.75ZM19.375 5C18.6875 5 18.099 4.75521 17.6094 4.26562C17.1198 3.77604 16.875 3.1875 16.875 2.5C16.875 1.8125 17.1198 1.22396 17.6094 0.734375C18.099 0.244792 18.6875 0 19.375 0C20.0625 0 20.651 0.244792 21.1406 0.734375C21.6302 1.22396 21.875 1.8125 21.875 2.5C21.875 3.1875 21.6302 3.77604 21.1406 4.26562C20.651 4.75521 20.0625 5 19.375 5ZM23.75 25.625C22.0208 25.625 20.5469 25.0156 19.3281 23.7969C18.1094 22.5781 17.5 21.1042 17.5 19.375C17.5 17.6458 18.1094 16.1719 19.3281 14.9531C20.5469 13.7344 22.0208 13.125 23.75 13.125C25.4792 13.125 26.9531 13.7344 28.1719 14.9531C29.3906 16.1719 30 17.6458 30 19.375C30 21.1042 29.3906 22.5781 28.1719 23.7969C26.9531 25.0156 25.4792 25.625 23.75 25.625ZM23.75 23.125C24.7917 23.125 25.6771 22.7604 26.4062 22.0312C27.1354 21.3021 27.5 20.4167 27.5 19.375C27.5 18.3333 27.1354 17.4479 26.4062 16.7188C25.6771 15.9896 24.7917 15.625 23.75 15.625C22.7083 15.625 21.8229 15.9896 21.0938 16.7188C20.3646 17.4479 20 18.3333 20 19.375C20 20.4167 20.3646 21.3021 21.0938 22.0312C21.8229 22.7604 22.7083 23.125 23.75 23.125Z" fill="url(#paint0_linear_553_5885)"/>
<defs>
<linearGradient id="paint0_linear_553_5885" x1="0" y1="0" x2="4.83641" y2="29.7199" gradientUnits="userSpaceOnUse">
<stop offset="0.0865384" stop-color="#FF6B6B"/>
<stop offset="0.774038" stop-color="#BA2121"/>
<stop offset="1" stop-color="#670000"/>
</linearGradient>
</defs>
</svg>
