<svg width="64" height="64" viewBox="0 0 64 64" fill="none" xmlns="http://www.w3.org/2000/svg">
<rect width="64" height="64" rx="16" fill="#EC1313" fill-opacity="0.05"/>
<path d="M45.5 30.575V42.5C45.5 43.325 45.2062 44.0312 44.6187 44.6187C44.0312 45.2062 43.325 45.5 42.5 45.5H21.5C20.675 45.5 19.9687 45.2062 19.3812 44.6187C18.7937 44.0312 18.5 43.325 18.5 42.5V30.575C17.925 30.05 17.4812 29.375 17.1687 28.55C16.8562 27.725 16.85 26.825 17.15 25.85L18.725 20.75C18.925 20.1 19.2812 19.5625 19.7937 19.1375C20.3062 18.7125 20.9 18.5 21.575 18.5H42.425C43.1 18.5 43.6875 18.7062 44.1875 19.1187C44.6875 19.5312 45.05 20.075 45.275 20.75L46.85 25.85C47.15 26.825 47.1437 27.7125 46.8312 28.5125C46.5187 29.3125 46.075 30 45.5 30.575ZM35.3 29C35.975 29 36.4875 28.7687 36.8375 28.3062C37.1875 27.8438 37.325 27.325 37.25 26.75L36.425 21.5H33.5V27.05C33.5 27.575 33.675 28.0312 34.025 28.4187C34.375 28.8062 34.8 29 35.3 29ZM28.55 29C29.125 29 29.5937 28.8062 29.9562 28.4187C30.3187 28.0312 30.5 27.575 30.5 27.05V21.5H27.575L26.75 26.75C26.65 27.35 26.7812 27.875 27.1437 28.325C27.5062 28.775 27.975 29 28.55 29ZM21.875 29C22.325 29 22.7187 28.8375 23.0562 28.5125C23.3937 28.1875 23.6 27.775 23.675 27.275L24.5 21.5H21.575L20.075 26.525C19.925 27.025 20.0062 27.5625 20.3187 28.1375C20.6312 28.7125 21.15 29 21.875 29ZM42.125 29C42.85 29 43.375 28.7125 43.7 28.1375C44.025 27.5625 44.1 27.025 43.925 26.525L42.35 21.5H39.5L40.325 27.275C40.4 27.775 40.6062 28.1875 40.9437 28.5125C41.2812 28.8375 41.675 29 42.125 29ZM21.5 42.5H42.5V31.925C42.375 31.975 42.2937 32 42.2562 32C42.2187 32 42.175 32 42.125 32C41.45 32 40.8562 31.8875 40.3437 31.6625C39.8312 31.4375 39.325 31.075 38.825 30.575C38.375 31.025 37.8625 31.375 37.2875 31.625C36.7125 31.875 36.1 32 35.45 32C34.775 32 34.1437 31.875 33.5562 31.625C32.9687 31.375 32.45 31.025 32 30.575C31.575 31.025 31.0812 31.375 30.5187 31.625C29.9562 31.875 29.35 32 28.7 32C27.975 32 27.3187 31.875 26.7312 31.625C26.1437 31.375 25.625 31.025 25.175 30.575C24.65 31.1 24.1312 31.4688 23.6187 31.6812C23.1062 31.8937 22.525 32 21.875 32C21.825 32 21.7687 32 21.7062 32C21.6437 32 21.575 31.975 21.5 31.925V42.5ZM42.5 42.5H21.5C21.575 42.5 21.6437 42.5 21.7062 42.5C21.7687 42.5 21.825 42.5 21.875 42.5C22.525 42.5 23.1062 42.5 23.6187 42.5C24.1312 42.5 24.65 42.5 25.175 42.5C25.4 42.5 25.6437 42.5 25.9062 42.5C26.1687 42.5 26.45 42.5 26.75 42.5C27.05 42.5 27.3625 42.5 27.6875 42.5C28.0125 42.5 28.35 42.5 28.7 42.5C29.025 42.5 29.3375 42.5 29.6375 42.5C29.9375 42.5 30.2312 42.5 30.5187 42.5C30.8062 42.5 31.075 42.5 31.325 42.5C31.575 42.5 31.8 42.5 32 42.5C32.45 42.5 32.9687 42.5 33.5562 42.5C34.1437 42.5 34.775 42.5 35.45 42.5C35.775 42.5 36.0875 42.5 36.3875 42.5C36.6875 42.5 36.9812 42.5 37.2687 42.5C37.5562 42.5 37.8312 42.5 38.0937 42.5C38.3562 42.5 38.6 42.5 38.825 42.5C39.325 42.5 39.8312 42.5 40.3437 42.5C40.8562 42.5 41.45 42.5 42.125 42.5C42.175 42.5 42.2187 42.5 42.2562 42.5C42.2937 42.5 42.375 42.5 42.5 42.5Z" fill="url(#paint0_linear_553_3180)"/>
<defs>
<linearGradient id="paint0_linear_553_3180" x1="16.9296" y1="18.5" x2="22.2601" y2="49.7342" gradientUnits="userSpaceOnUse">
<stop offset="0.0865384" stop-color="#FF6B6B"/>
<stop offset="0.774038" stop-color="#BA2121"/>
<stop offset="1" stop-color="#670000"/>
</linearGradient>
</defs>
</svg>
