<svg width="64" height="64" viewBox="0 0 64 64" fill="none" xmlns="http://www.w3.org/2000/svg">
<rect width="64" height="64" rx="16" fill="#EC1313" fill-opacity="0.05"/>
<path d="M21.5 47C20.675 47 19.9688 46.7062 19.3812 46.1187C18.7937 45.5312 18.5 44.825 18.5 44V27.0875C18.05 26.8125 17.6875 26.4563 17.4125 26.0188C17.1375 25.5813 17 25.075 17 24.5V20C17 19.175 17.2938 18.4688 17.8813 17.8813C18.4688 17.2938 19.175 17 20 17H44C44.825 17 45.5312 17.2938 46.1187 17.8813C46.7062 18.4688 47 19.175 47 20V24.5C47 25.075 46.8625 25.5813 46.5875 26.0188C46.3125 26.4563 45.95 26.8125 45.5 27.0875V44C45.5 44.825 45.2062 45.5312 44.6187 46.1187C44.0312 46.7062 43.325 47 42.5 47H21.5ZM21.5 27.5V44H42.5V27.5H21.5ZM20 24.5H44V20H20V24.5ZM27.5 35H36.5V32H27.5V35Z" fill="url(#paint0_linear_553_3148)"/>
<defs>
<linearGradient id="paint0_linear_553_3148" x1="17" y1="17" x2="23.5661" y2="51.4646" gradientUnits="userSpaceOnUse">
<stop offset="0.0865384" stop-color="#FF6B6B"/>
<stop offset="0.774038" stop-color="#BA2121"/>
<stop offset="1" stop-color="#670000"/>
</linearGradient>
</defs>
</svg>
