<svg width="515" height="336" viewBox="0 0 515 336" fill="none" xmlns="http://www.w3.org/2000/svg">
<rect x="38.5" y="13.5" width="438" height="258.72" rx="23.5" fill="white"/>
<rect x="38.5" y="13.5" width="438" height="258.72" rx="23.5" stroke="#F1F5F9"/>
<g filter="url(#filter0_d_553_3588)">
<rect x="38" y="13" width="439" height="259.72" rx="24" fill="white" fill-opacity="0.01" shape-rendering="crispEdges"/>
</g>
<path d="M67.196 57V51.716L63.176 45.08H65.656L68.728 50.26H67.844L70.9 45.08H73.38L69.376 51.704V57H67.196ZM77.312 57.192C76.4613 57.192 75.6873 56.9953 74.99 56.602C74.2927 56.2087 73.7373 55.6693 73.324 54.984C72.9107 54.2987 72.704 53.52 72.704 52.648C72.704 51.7707 72.91 50.992 73.322 50.312C73.734 49.632 74.288 49.0953 74.984 48.702C75.68 48.3087 76.456 48.112 77.312 48.112C78.168 48.112 78.942 48.308 79.634 48.7C80.326 49.092 80.8773 49.628 81.288 50.308C81.6987 50.988 81.904 51.768 81.904 52.648C81.904 53.5227 81.6967 54.3027 81.282 54.988C80.8673 55.6733 80.314 56.212 79.622 56.604C78.93 56.996 78.16 57.192 77.312 57.192ZM77.312 55.272C77.784 55.272 78.2 55.16 78.56 54.936C78.92 54.712 79.204 54.4013 79.412 54.004C79.62 53.6067 79.724 53.1547 79.724 52.648C79.724 52.1413 79.62 51.6927 79.412 51.302C79.204 50.9113 78.92 50.602 78.56 50.374C78.2 50.146 77.784 50.032 77.312 50.032C76.84 50.032 76.422 50.146 76.058 50.374C75.694 50.602 75.4073 50.9113 75.198 51.302C74.9887 51.6927 74.884 52.1413 74.884 52.648C74.884 53.1547 74.9887 53.6067 75.198 54.004C75.4073 54.4013 75.694 54.712 76.058 54.936C76.422 55.16 76.84 55.272 77.312 55.272ZM86.6 57.192C85.9227 57.192 85.3367 57.0427 84.842 56.744C84.3473 56.4453 83.9687 56.0287 83.706 55.494C83.4433 54.9593 83.312 54.3373 83.312 53.628V48.304H85.412V53.448C85.412 53.8107 85.4853 54.1293 85.632 54.404C85.7787 54.6787 85.986 54.892 86.254 55.044C86.522 55.196 86.8267 55.272 87.168 55.272C87.5173 55.272 87.8247 55.1953 88.09 55.042C88.3553 54.8887 88.562 54.672 88.71 54.392C88.858 54.112 88.932 53.784 88.932 53.408V48.304H91.032V57H89.052V55.288L89.216 55.592C89.0133 56.1227 88.6807 56.522 88.218 56.79C87.7553 57.058 87.216 57.192 86.6 57.192ZM92.976 57V48.304H94.956V50.228L94.796 49.948C94.9907 49.2947 95.3053 48.8407 95.74 48.586C96.1747 48.3313 96.6933 48.204 97.296 48.204H97.816V50.064H97.064C96.4693 50.064 95.9893 50.246 95.624 50.61C95.2587 50.974 95.076 51.488 95.076 52.152V57H92.976ZM104.108 57V47H101.016V45.08H109.336V47H106.288V57H104.108ZM110.48 57V48.304H112.58V57H110.48ZM110.48 47.32V45.08H112.58V47.32H110.48ZM115.524 57V50.164H113.992V48.304H115.524V48.016C115.524 47.3467 115.659 46.7807 115.93 46.318C116.201 45.8553 116.583 45.5013 117.076 45.256C117.569 45.0107 118.151 44.888 118.82 44.888C118.951 44.888 119.093 44.896 119.248 44.912C119.403 44.928 119.531 44.9467 119.632 44.968V46.776C119.533 46.7547 119.438 46.7413 119.346 46.736C119.254 46.7307 119.169 46.728 119.092 46.728C118.628 46.728 118.267 46.8327 118.01 47.042C117.753 47.2513 117.624 47.576 117.624 48.016V48.304H121.432V50.164H117.624V57H115.524ZM126.984 57V48.304H129.084V57H126.984ZM121.856 57V50.164H120.324V48.304H121.856V48.016C121.856 47.3467 121.991 46.7807 122.262 46.318C122.533 45.8553 122.915 45.5013 123.408 45.256C123.901 45.0107 124.483 44.888 125.152 44.888C125.283 44.888 125.425 44.896 125.58 44.912C125.735 44.928 125.863 44.9467 125.964 44.968V46.776C125.865 46.7547 125.77 46.7413 125.678 46.736C125.586 46.7307 125.501 46.728 125.424 46.728C124.96 46.728 124.599 46.8327 124.342 47.042C124.085 47.2513 123.956 47.576 123.956 48.016V48.304H127.764V50.164H123.956V57H121.856ZM130.832 57V48.304H132.812V50.016L132.648 49.712C132.853 49.1813 133.187 48.782 133.648 48.514C134.109 48.246 134.648 48.112 135.264 48.112C135.912 48.112 136.483 48.2507 136.976 48.528C137.469 48.8053 137.855 49.1907 138.134 49.684C138.413 50.1773 138.552 50.7492 138.552 51.3996V57H136.452V51.896C136.452 51.5093 136.379 51.1787 136.232 50.904C136.085 50.6293 135.88 50.4153 135.615 50.262C135.35 50.1087 135.045 50.032 134.701 50.032C134.356 50.032 134.049 50.1087 133.78 50.262C133.511 50.4153 133.302 50.63 133.154 50.906C133.006 51.182 132.932 51.512 132.932 51.896V57H130.832ZM147.6 57.192C146.851 57.192 146.153 57.054 145.506 56.778C144.859 56.502 144.305 56.1153 143.842 55.618C143.379 55.1207 143.037 54.5427 142.816 53.884L144.628 53.092C144.921 53.7827 145.339 54.3207 145.882 54.706C146.425 55.0913 147.037 55.284 147.72 55.284C148.104 55.284 148.437 55.2233 148.718 55.102C148.999 54.9807 149.219 54.8127 149.376 54.598C149.533 54.3833 149.612 54.1307 149.612 53.84C149.612 53.4853 149.508 53.194 149.3 52.966C149.092 52.738 148.777 52.5587 148.356 52.428L146.068 51.692C145.145 51.3987 144.447 50.966 143.974 50.394C143.501 49.822 143.264 49.144 143.264 48.36C143.264 47.6747 143.433 47.0713 143.77 46.55C144.107 46.0287 144.577 45.6213 145.18 45.328C145.783 45.0347 146.473 44.888 147.252 44.888C147.967 44.888 148.623 45.0127 149.222 45.262C149.821 45.5113 150.335 45.8573 150.766 46.3C151.197 46.7427 151.517 47.2653 151.728 47.868L149.936 48.664C149.704 48.072 149.353 47.6127 148.882 47.286C148.411 46.9593 147.869 46.796 147.256 46.796C146.893 46.796 146.573 46.856 146.294 46.976C146.015 47.096 145.8 47.2673 145.648 47.49C145.496 47.7127 145.42 47.9707 145.42 48.264C145.42 48.5947 145.527 48.8867 145.74 49.14C145.953 49.3933 146.276 49.588 146.708 49.724L148.896 50.416C149.851 50.7173 150.566 51.1413 151.042 51.688C151.518 52.2347 151.756 52.9067 151.756 53.704C151.756 54.384 151.579 54.9867 151.226 55.512C150.873 56.0373 150.385 56.4487 149.764 56.746C149.143 57.0433 148.421 57.192 147.6 57.192ZM157.716 57.192C156.849 57.192 156.074 56.9927 155.39 56.594C154.706 56.1953 154.165 55.6513 153.766 54.962C153.367 54.2727 153.168 53.4973 153.168 52.636C153.168 51.7747 153.365 51.002 153.76 50.318C154.155 49.634 154.696 49.0953 155.384 48.702C156.072 48.3087 156.849 48.112 157.716 48.112C158.337 48.112 158.915 48.22 159.448 48.436C159.981 48.652 160.441 48.9507 160.828 49.332C161.215 49.7133 161.495 50.1613 161.668 50.676L159.836 51.488C159.671 51.0453 159.399 50.692 159.022 50.428C158.645 50.164 158.209 50.032 157.716 50.032C157.263 50.032 156.857 50.1433 156.5 50.366C156.143 50.5887 155.861 50.898 155.656 51.294C155.451 51.69 155.348 52.1427 155.348 52.652C155.348 53.1587 155.451 53.61 155.656 54.006C155.861 54.402 156.143 54.712 156.5 54.936C156.857 55.16 157.263 55.272 157.716 55.272C158.217 55.272 158.654 55.14 159.026 54.876C159.398 54.612 159.668 54.256 159.836 53.808L161.668 54.64C161.503 55.128 161.227 55.5653 160.84 55.952C160.453 56.3387 159.993 56.642 159.46 56.862C158.927 57.082 158.345 57.192 157.716 57.192ZM163.248 57V44.888H165.348V50.016L165.064 49.712C165.269 49.1813 165.603 48.782 166.064 48.514C166.525 48.246 167.064 48.112 167.68 48.112C168.328 48.112 168.899 48.2507 169.392 48.528C169.885 48.8053 170.271 49.1907 170.55 49.684C170.829 50.1773 170.968 50.748 170.968 51.396V57H168.868V51.896C168.868 51.5093 168.794 51.1787 168.646 50.904C168.498 50.6293 168.292 50.4153 168.028 50.262C167.764 50.1087 167.459 50.032 167.112 50.032C166.773 50.032 166.469 50.1087 166.2 50.262C165.931 50.4153 165.721 50.63 165.572 50.906C165.423 51.182 165.348 51.512 165.348 51.896V57H163.248ZM176.868 57.192C175.972 57.192 175.187 56.9893 174.514 56.584C173.841 56.1787 173.317 55.6307 172.944 54.94C172.571 54.2493 172.384 53.48 172.384 52.632C172.384 51.76 172.575 50.9847 172.958 50.306C173.341 49.6273 173.858 49.092 174.51 48.7C175.162 48.308 175.897 48.112 176.716 48.112C177.391 48.112 177.989 48.2227 178.51 48.444C179.031 48.6653 179.473 48.9727 179.834 49.366C180.195 49.7593 180.471 50.2107 180.66 50.72C180.849 51.2293 180.944 51.776 180.944 52.36C180.944 52.5147 180.937 52.6707 180.922 52.828C180.907 52.9853 180.881 53.1253 180.844 53.248H174.124V51.648H179.652L178.656 52.392C178.76 51.9013 178.739 51.464 178.594 51.08C178.449 50.696 178.213 50.392 177.886 50.168C177.559 49.944 177.169 49.832 176.716 49.832C176.271 49.832 175.879 49.9427 175.542 50.164C175.205 50.3853 174.948 50.706 174.772 51.126C174.596 51.546 174.527 52.0533 174.564 52.648C174.519 53.1867 174.59 53.6593 174.778 54.066C174.966 54.4727 175.243 54.7887 175.61 55.014C175.977 55.2393 176.404 55.352 176.892 55.352C177.369 55.352 177.775 55.2507 178.11 55.048C178.445 54.8453 178.709 54.576 178.904 54.24L180.6 55.06C180.429 55.476 180.162 55.8447 179.798 56.166C179.434 56.4873 179.003 56.7387 178.506 56.92C178.009 57.1013 177.463 57.192 176.868 57.192ZM186.58 57.192C185.74 57.192 184.988 56.9913 184.324 56.59C183.66 56.1887 183.136 55.6433 182.752 54.954C182.368 54.2647 182.176 53.4973 182.176 52.652C182.176 51.796 182.37 51.026 182.758 50.342C183.146 49.658 183.671 49.1153 184.334 48.714C184.997 48.3127 185.741 48.112 186.568 48.112C187.232 48.112 187.822 48.242 188.338 48.502C188.854 48.762 189.261 49.124 189.56 49.588L189.236 50.032V44.888H191.336V57H189.356V55.32L189.572 55.736C189.273 56.2107 188.858 56.572 188.326 56.82C187.794 57.068 187.212 57.192 186.58 57.192ZM186.812 55.272C187.284 55.272 187.702 55.16 188.066 54.936C188.43 54.712 188.716 54.402 188.924 54.006C189.132 53.61 189.236 53.1587 189.236 52.652C189.236 52.1453 189.132 51.694 188.924 51.298C188.716 50.902 188.43 50.592 188.066 50.368C187.702 50.144 187.284 50.032 186.812 50.032C186.343 50.032 185.921 50.146 185.546 50.374C185.171 50.602 184.879 50.9113 184.67 51.302C184.461 51.6927 184.356 52.1427 184.356 52.652C184.356 53.1587 184.461 53.61 184.67 54.006C184.879 54.402 185.171 54.712 185.544 54.936C185.917 55.16 186.34 55.272 186.812 55.272ZM196.392 57.192C195.715 57.192 195.129 57.0427 194.634 56.744C194.139 56.4453 193.761 56.0287 193.498 55.494C193.235 54.9593 193.104 54.3373 193.104 53.628V48.304H195.204V53.448C195.204 53.8107 195.277 54.1293 195.424 54.404C195.571 54.6787 195.778 54.892 196.046 55.044C196.314 55.196 196.619 55.272 196.96 55.272C197.309 55.272 197.617 55.1953 197.882 55.042C198.147 54.8887 198.354 54.672 198.502 54.392C198.65 54.112 198.724 53.784 198.724 53.408V48.304H200.824V57H198.844V55.288L199.008 55.592C198.805 56.1227 198.473 56.522 198.01 56.79C197.547 57.058 197.008 57.192 196.392 57.192ZM202.768 57V44.888H204.868V57H202.768ZM210.932 57.192C210.036 57.192 209.251 56.9893 208.578 56.584C207.905 56.1787 207.381 55.6307 207.008 54.94C206.635 54.2493 206.448 53.48 206.448 52.632C206.448 51.76 206.639 50.9847 207.022 50.306C207.405 49.6273 207.922 49.092 208.574 48.7C209.226 48.308 209.961 48.112 210.78 48.112C211.455 48.112 212.053 48.2227 212.574 48.444C213.095 48.6653 213.537 48.9727 213.898 49.366C214.259 49.7593 214.535 50.2107 214.724 50.72C214.913 51.2293 215.008 51.776 215.008 52.36C215.008 52.5147 215.001 52.6707 214.986 52.828C214.971 52.9853 214.945 53.1253 214.908 53.248H208.188V51.648H213.716L212.72 52.392C212.824 51.9013 212.803 51.464 212.658 51.08C212.513 50.696 212.277 50.392 211.95 50.168C211.623 49.944 211.233 49.832 210.78 49.832C210.335 49.832 209.943 49.9427 209.606 50.164C209.269 50.3853 209.012 50.706 208.836 51.126C208.66 51.546 208.591 52.0533 208.628 52.648C208.583 53.1867 208.654 53.6593 208.842 54.066C209.03 54.4727 209.307 54.7887 209.674 55.014C210.041 55.2393 210.468 55.352 210.956 55.352C211.433 55.352 211.839 55.2507 212.174 55.048C212.509 54.8453 212.773 54.576 212.968 54.24L214.664 55.06C214.493 55.476 214.226 55.8447 213.862 56.166C213.498 56.4873 213.067 56.7387 212.57 56.92C212.073 57.1013 211.527 57.192 210.932 57.192Z" fill="#0F172A"/>
<path d="M436 60C435.45 60 434.979 59.8042 434.587 59.4125C434.196 59.0208 434 58.55 434 58V44C434 43.45 434.196 42.9792 434.587 42.5875C434.979 42.1958 435.45 42 436 42H437V40H439V42H447V40H449V42H450C450.55 42 451.021 42.1958 451.413 42.5875C451.804 42.9792 452 43.45 452 44V58C452 58.55 451.804 59.0208 451.413 59.4125C451.021 59.8042 450.55 60 450 60H436ZM436 58H450V48H436V58ZM436 46H450V44H436V46ZM436 46V44V46ZM443 52C442.717 52 442.479 51.9042 442.288 51.7125C442.096 51.5208 442 51.2833 442 51C442 50.7167 442.096 50.4792 442.288 50.2875C442.479 50.0958 442.717 50 443 50C443.283 50 443.521 50.0958 443.712 50.2875C443.904 50.4792 444 50.7167 444 51C444 51.2833 443.904 51.5208 443.712 51.7125C443.521 51.9042 443.283 52 443 52ZM439 52C438.717 52 438.479 51.9042 438.287 51.7125C438.096 51.5208 438 51.2833 438 51C438 50.7167 438.096 50.4792 438.287 50.2875C438.479 50.0958 438.717 50 439 50C439.283 50 439.521 50.0958 439.713 50.2875C439.904 50.4792 440 50.7167 440 51C440 51.2833 439.904 51.5208 439.713 51.7125C439.521 51.9042 439.283 52 439 52ZM447 52C446.717 52 446.479 51.9042 446.288 51.7125C446.096 51.5208 446 51.2833 446 51C446 50.7167 446.096 50.4792 446.288 50.2875C446.479 50.0958 446.717 50 447 50C447.283 50 447.521 50.0958 447.712 50.2875C447.904 50.4792 448 50.7167 448 51C448 51.2833 447.904 51.5208 447.712 51.7125C447.521 51.9042 447.283 52 447 52ZM443 56C442.717 56 442.479 55.9042 442.288 55.7125C442.096 55.5208 442 55.2833 442 55C442 54.7167 442.096 54.4792 442.288 54.2875C442.479 54.0958 442.717 54 443 54C443.283 54 443.521 54.0958 443.712 54.2875C443.904 54.4792 444 54.7167 444 55C444 55.2833 443.904 55.5208 443.712 55.7125C443.521 55.9042 443.283 56 443 56ZM439 56C438.717 56 438.479 55.9042 438.287 55.7125C438.096 55.5208 438 55.2833 438 55C438 54.7167 438.096 54.4792 438.287 54.2875C438.479 54.0958 438.717 54 439 54C439.283 54 439.521 54.0958 439.713 54.2875C439.904 54.4792 440 54.7167 440 55C440 55.2833 439.904 55.5208 439.713 55.7125C439.521 55.9042 439.283 56 439 56ZM447 56C446.717 56 446.479 55.9042 446.288 55.7125C446.096 55.5208 446 55.2833 446 55C446 54.7167 446.096 54.4792 446.288 54.2875C446.479 54.0958 446.717 54 447 54C447.283 54 447.521 54.0958 447.712 54.2875C447.904 54.4792 448 54.7167 448 55C448 55.2833 447.904 55.5208 447.712 55.7125C447.521 55.9042 447.283 56 447 56Z" fill="url(#paint0_linear_553_3588)"/>
<path d="M83.6 98V90.55H84.9L87.6925 94.34H87.07L89.8 90.55H91.1V98H89.7375V92.1025L90.2675 92.2325L87.43 96H87.27L84.51 92.2325L84.9625 92.1025V98H83.6Z" fill="#94A3B8"/>
<path d="M143.393 98V91.75H141.46V90.55H146.66V91.75H144.755V98H143.393Z" fill="#94A3B8"/>
<path d="M197.787 98L195.79 90.55H197.252L198.817 96.8975H198.437L200.075 90.55H201.487L203.122 96.8975H202.74L204.307 90.55H205.77L203.772 98H202.21L200.562 91.825H200.997L199.35 98H197.787Z" fill="#94A3B8"/>
<path d="M256.823 98V91.75H254.89V90.55H260.09V91.75H258.185V98H256.823Z" fill="#94A3B8"/>
<path d="M311.985 98V90.55H316.96V91.75H313.347V93.815H316.51V95.015H313.347V98H311.985Z" fill="#94A3B8"/>
<path d="M371.06 98.12C370.592 98.12 370.155 98.0338 369.751 97.8612C369.347 97.6888 369 97.4471 368.711 97.1363C368.422 96.8254 368.208 96.4642 368.07 96.0525L369.202 95.5575C369.386 95.9892 369.647 96.3254 369.986 96.5663C370.325 96.8071 370.708 96.9275 371.135 96.9275C371.375 96.9275 371.583 96.8896 371.759 96.8137C371.935 96.7379 372.072 96.6329 372.17 96.4988C372.268 96.3646 372.317 96.2067 372.317 96.025C372.317 95.8033 372.252 95.6213 372.122 95.4788C371.992 95.3363 371.796 95.2242 371.532 95.1425L370.102 94.6825C369.526 94.4992 369.09 94.2287 368.794 93.8713C368.498 93.5137 368.35 93.09 368.35 92.6C368.35 92.1717 368.455 91.7946 368.666 91.4688C368.877 91.1429 369.171 90.8883 369.547 90.705C369.924 90.5217 370.356 90.43 370.842 90.43C371.289 90.43 371.7 90.5079 372.074 90.6638C372.448 90.8196 372.77 91.0358 373.039 91.3125C373.308 91.5892 373.508 91.9158 373.64 92.2925L372.52 92.79C372.375 92.42 372.155 92.1329 371.861 91.9288C371.567 91.7246 371.228 91.6225 370.845 91.6225C370.618 91.6225 370.418 91.66 370.244 91.735C370.07 91.81 369.935 91.9171 369.84 92.0562C369.745 92.1954 369.697 92.3567 369.697 92.54C369.697 92.7467 369.764 92.9292 369.897 93.0875C370.031 93.2458 370.232 93.3675 370.502 93.4525L371.87 93.885C372.467 94.0733 372.914 94.3383 373.211 94.68C373.509 95.0217 373.657 95.4417 373.657 95.94C373.657 96.365 373.547 96.7417 373.326 97.07C373.105 97.3983 372.801 97.6554 372.412 97.8412C372.024 98.0271 371.573 98.12 371.06 98.12Z" fill="#94A3B8"/>
<path d="M427.78 98.12C427.312 98.12 426.875 98.0338 426.471 97.8612C426.067 97.6888 425.72 97.4471 425.431 97.1363C425.142 96.8254 424.928 96.4642 424.79 96.0525L425.923 95.5575C426.106 95.9892 426.367 96.3254 426.706 96.5663C427.045 96.8071 427.428 96.9275 427.855 96.9275C428.095 96.9275 428.303 96.8896 428.479 96.8137C428.655 96.7379 428.792 96.6329 428.89 96.4988C428.988 96.3646 429.038 96.2067 429.038 96.025C429.038 95.8033 428.973 95.6213 428.843 95.4788C428.713 95.3363 428.516 95.2242 428.253 95.1425L426.823 94.6825C426.246 94.4992 425.81 94.2287 425.514 93.8713C425.218 93.5137 425.07 93.09 425.07 92.6C425.07 92.1717 425.175 91.7946 425.386 91.4688C425.597 91.1429 425.891 90.8883 426.268 90.705C426.644 90.5217 427.076 90.43 427.563 90.43C428.009 90.43 428.42 90.5079 428.794 90.6638C429.168 90.8196 429.49 91.0358 429.759 91.3125C430.028 91.5892 430.228 91.9158 430.36 92.2925L429.24 92.79C429.095 92.42 428.875 92.1329 428.581 91.9288C428.287 91.7246 427.948 91.6225 427.565 91.6225C427.338 91.6225 427.138 91.66 426.964 91.735C426.79 91.81 426.655 91.9171 426.56 92.0562C426.465 92.1954 426.418 92.3567 426.418 92.54C426.418 92.7467 426.484 92.9292 426.618 93.0875C426.751 93.2458 426.953 93.3675 427.223 93.4525L428.59 93.885C429.187 94.0733 429.634 94.3383 429.931 94.68C430.229 95.0217 430.378 95.4417 430.378 95.94C430.378 96.365 430.267 96.7417 430.046 97.07C429.825 97.3983 429.521 97.6554 429.133 97.8412C428.744 98.0271 428.293 98.12 427.78 98.12Z" fill="#94A3B8"/>
<rect x="62.98" y="109" width="48.72" height="48.72" rx="16" fill="#C41717" fill-opacity="0.1"/>
<path d="M86.9961 137.85V130.302H85.2681V128.91H88.6281V137.85H86.9961Z" fill="url(#paint1_linear_553_3588)"/>
<rect x="119.7" y="109" width="48.72" height="48.72" rx="16" fill="#C41717" fill-opacity="0.1"/>
<path d="M141.032 137.86V136.624L143.456 134.092C143.936 133.588 144.304 133.188 144.56 132.892C144.824 132.588 145.008 132.328 145.112 132.112C145.216 131.896 145.268 131.676 145.268 131.452C145.268 131.076 145.148 130.78 144.908 130.564C144.676 130.348 144.376 130.24 144.008 130.24C143.624 130.24 143.292 130.352 143.012 130.576C142.732 130.792 142.528 131.112 142.4 131.536L140.972 131.092C141.068 130.62 141.264 130.212 141.56 129.868C141.856 129.516 142.216 129.248 142.64 129.064C143.072 128.872 143.528 128.776 144.008 128.776C144.584 128.776 145.088 128.88 145.52 129.088C145.96 129.296 146.3 129.588 146.54 129.964C146.788 130.34 146.912 130.78 146.912 131.284C146.912 131.604 146.852 131.92 146.732 132.232C146.612 132.544 146.432 132.864 146.192 133.192C145.952 133.512 145.64 133.872 145.256 134.272L143.156 136.48H147.032V137.86H141.032Z" fill="url(#paint2_linear_553_3588)"/>
<rect x="176.42" y="109" width="48.72" height="48.72" rx="16" fill="url(#paint3_linear_553_3588)"/>
<g filter="url(#filter1_dd_553_3588)">
<rect x="176.42" y="109" width="48.72" height="48.72" rx="16" fill="white" fill-opacity="0.01" shape-rendering="crispEdges"/>
</g>
<path d="M200.624 138.004C200.136 138.004 199.675 137.913 199.241 137.732C198.807 137.551 198.436 137.295 198.129 136.963C197.822 136.631 197.611 136.24 197.495 135.79L198.92 135.286C199.068 135.69 199.29 135.999 199.586 136.213C199.882 136.427 200.228 136.534 200.624 136.534C200.946 136.534 201.225 136.472 201.462 136.349C201.699 136.226 201.885 136.051 202.019 135.824C202.153 135.597 202.22 135.329 202.22 135.019C202.22 134.709 202.154 134.443 202.022 134.222C201.89 134.001 201.705 133.831 201.468 133.712C201.231 133.593 200.949 133.534 200.621 133.534C200.463 133.534 200.302 133.55 200.139 133.582C199.976 133.614 199.831 133.659 199.703 133.717L199.331 132.937L201.653 130.3H198.005V128.92H203.489V130.21L201.161 132.928L201.176 132.322C201.712 132.326 202.18 132.44 202.581 132.664C202.982 132.888 203.295 133.197 203.519 133.591C203.743 133.985 203.855 134.443 203.855 134.965C203.855 135.541 203.715 136.059 203.435 136.52C203.155 136.981 202.772 137.344 202.286 137.608C201.8 137.872 201.246 138.004 200.624 138.004Z" fill="white"/>
<rect x="233.14" y="109" width="48.72" height="48.72" rx="16" fill="#F8FAFC"/>
<path d="M258.583 137.85V135.786H254.182V134.811L258.553 128.91H259.678V134.811H260.842V135.786H259.678V137.85H258.583ZM255.07 135.24L254.902 134.811H258.583V129.891L258.925 129.99L255.07 135.24Z" fill="#94A3B8"/>
<rect x="289.86" y="109" width="48.72" height="48.72" rx="16" fill="#F8FAFC"/>
<path d="M314.127 138.004C313.661 138.004 313.225 137.921 312.818 137.756C312.411 137.591 312.057 137.356 311.757 137.051C311.457 136.746 311.238 136.383 311.1 135.961L312.06 135.553C312.228 135.997 312.503 136.341 312.884 136.586C313.265 136.831 313.679 136.954 314.127 136.954C314.491 136.954 314.815 136.87 315.098 136.703C315.381 136.536 315.603 136.308 315.764 136.018C315.925 135.728 316.005 135.401 316.005 135.037C316.005 134.661 315.923 134.33 315.759 134.044C315.595 133.758 315.373 133.533 315.093 133.369C314.813 133.205 314.494 133.123 314.136 133.123C313.77 133.123 313.435 133.206 313.13 133.372C312.825 133.538 312.602 133.749 312.462 134.005L311.514 133.807L312.198 128.92H316.839V129.94H312.648L313.101 129.487L312.573 133.279L312.168 133.042C312.428 132.702 312.738 132.457 313.097 132.308C313.456 132.159 313.843 132.085 314.259 132.085C314.841 132.085 315.351 132.217 315.789 132.481C316.227 132.745 316.57 133.098 316.818 133.541C317.066 133.984 317.19 134.483 317.19 135.037C317.19 135.597 317.057 136.102 316.791 136.552C316.525 137.002 316.162 137.356 315.701 137.615C315.24 137.874 314.715 138.004 314.127 138.004Z" fill="#94A3B8"/>
<rect x="346.58" y="109" width="48.72" height="48.72" rx="16" fill="#F8FAFC"/>
<path d="M370.952 138.004C370.378 138.004 369.869 137.877 369.425 137.623C368.981 137.369 368.632 137.019 368.378 136.574C368.124 136.129 367.997 135.621 367.997 135.049C367.997 134.739 368.033 134.432 368.104 134.128C368.175 133.824 368.29 133.516 368.449 133.204C368.608 132.892 368.813 132.568 369.065 132.232L371.576 128.92H372.995L369.911 132.934L369.701 132.91C369.819 132.746 369.951 132.619 370.097 132.53C370.243 132.441 370.402 132.377 370.574 132.337C370.746 132.297 370.93 132.277 371.126 132.277C371.654 132.277 372.128 132.399 372.547 132.644C372.966 132.889 373.297 133.224 373.541 133.649C373.785 134.074 373.907 134.564 373.907 135.118C373.907 135.666 373.779 136.158 373.522 136.594C373.265 137.03 372.915 137.374 372.472 137.626C372.029 137.878 371.522 138.004 370.952 138.004ZM370.952 136.954C371.29 136.954 371.592 136.875 371.857 136.718C372.122 136.561 372.332 136.343 372.488 136.064C372.644 135.785 372.722 135.472 372.722 135.124C372.722 134.768 372.646 134.454 372.493 134.183C372.34 133.912 372.131 133.698 371.866 133.541C371.601 133.384 371.296 133.306 370.952 133.306C370.616 133.306 370.314 133.384 370.045 133.541C369.776 133.698 369.565 133.912 369.412 134.183C369.259 134.454 369.182 134.768 369.182 135.124C369.182 135.472 369.26 135.785 369.416 136.064C369.572 136.343 369.783 136.561 370.049 136.718C370.315 136.875 370.616 136.954 370.952 136.954Z" fill="#94A3B8"/>
<rect x="403.3" y="109" width="48.72" height="48.72" rx="16" fill="#F8FAFC"/>
<path d="M425.293 137.86L429.22 129.94H424.84V128.92H430.456V129.94L426.565 137.86H425.293Z" fill="#94A3B8"/>
<rect x="63" y="181.72" width="389" height="66" rx="24" fill="#C41717" fill-opacity="0.05"/>
<rect x="63.5" y="182.22" width="388" height="65" rx="23.5" stroke="#C41717" stroke-opacity="0.1"/>
<g filter="url(#filter2_d_553_3588)">
<rect x="76" y="194.72" width="40" height="40" rx="16" fill="white" shape-rendering="crispEdges"/>
<path d="M103 211.72L101.75 208.97L99 207.72L101.75 206.47L103 203.72L104.25 206.47L107 207.72L104.25 208.97L103 211.72ZM103 225.72L101.75 222.97L99 221.72L101.75 220.47L103 217.72L104.25 220.47L107 221.72L104.25 222.97L103 225.72ZM93 222.72L90.5 217.22L85 214.72L90.5 212.22L93 206.72L95.5 212.22L101 214.72L95.5 217.22L93 222.72ZM93 217.87L94 215.72L96.15 214.72L94 213.72L93 211.57L92 213.72L89.85 214.72L92 215.72L93 217.87Z" fill="url(#paint4_linear_553_3588)"/>
</g>
<path d="M128.132 212.22L131.216 203.28H133.328L136.412 212.22H134.639L133.997 210.306H130.541L129.896 212.22H128.132ZM131.006 208.866H133.526L132.047 204.414H132.497L131.006 208.866ZM137.402 212.22V203.28H139.037V212.22H137.402ZM146.078 212.364C145.516 212.364 144.992 212.261 144.507 212.054C144.022 211.847 143.606 211.557 143.259 211.184C142.912 210.811 142.656 210.377 142.49 209.883L143.849 209.289C144.069 209.807 144.382 210.211 144.789 210.5C145.196 210.789 145.656 210.933 146.168 210.933C146.456 210.933 146.706 210.888 146.916 210.797C147.127 210.706 147.292 210.58 147.41 210.419C147.528 210.258 147.587 210.068 147.587 209.85C147.587 209.584 147.509 209.366 147.353 209.195C147.197 209.024 146.961 208.889 146.645 208.791L144.929 208.239C144.237 208.019 143.713 207.695 143.358 207.266C143.003 206.837 142.826 206.328 142.826 205.74C142.826 205.226 142.952 204.774 143.205 204.383C143.458 203.992 143.811 203.686 144.263 203.466C144.715 203.246 145.233 203.136 145.817 203.136C146.353 203.136 146.845 203.23 147.294 203.417C147.743 203.604 148.129 203.863 148.452 204.195C148.775 204.527 149.016 204.919 149.174 205.371L147.83 205.968C147.656 205.524 147.392 205.18 147.039 204.935C146.686 204.69 146.28 204.567 145.82 204.567C145.548 204.567 145.307 204.612 145.098 204.702C144.889 204.792 144.728 204.921 144.614 205.088C144.5 205.255 144.443 205.448 144.443 205.668C144.443 205.916 144.523 206.135 144.683 206.325C144.843 206.515 145.085 206.661 145.409 206.763L147.05 207.282C147.766 207.508 148.303 207.826 148.659 208.236C149.016 208.646 149.195 209.15 149.195 209.748C149.195 210.258 149.062 210.71 148.797 211.104C148.533 211.498 148.167 211.807 147.701 212.03C147.235 212.253 146.694 212.364 146.078 212.364ZM152.852 212.364C152.344 212.364 151.904 212.252 151.533 212.028C151.162 211.804 150.878 211.492 150.681 211.091C150.484 210.69 150.386 210.223 150.386 209.691V205.698H151.961V209.556C151.961 209.828 152.016 210.067 152.126 210.273C152.236 210.479 152.391 210.639 152.592 210.753C152.793 210.867 153.022 210.924 153.278 210.924C153.54 210.924 153.77 210.867 153.969 210.752C154.168 210.637 154.323 210.474 154.434 210.264C154.545 210.054 154.601 209.808 154.601 209.526V205.698H156.176V212.22H154.691V210.936L154.814 211.164C154.662 211.562 154.412 211.862 154.065 212.063C153.718 212.264 153.314 212.364 152.852 212.364ZM160.808 214.86C160.32 214.86 159.868 214.78 159.451 214.62C159.034 214.46 158.676 214.238 158.378 213.954C158.08 213.67 157.862 213.336 157.724 212.952L159.182 212.4C159.28 212.704 159.472 212.95 159.758 213.138C160.044 213.326 160.392 213.42 160.802 213.42C161.122 213.42 161.404 213.361 161.648 213.242C161.892 213.123 162.083 212.948 162.22 212.718C162.357 212.488 162.425 212.214 162.425 211.896V210.414L162.722 210.771C162.498 211.163 162.199 211.458 161.825 211.656C161.451 211.854 161.022 211.953 160.538 211.953C159.932 211.953 159.389 211.814 158.909 211.535C158.429 211.256 158.053 210.873 157.78 210.387C157.507 209.901 157.37 209.352 157.37 208.74C157.37 208.126 157.507 207.58 157.78 207.101C158.053 206.622 158.426 206.244 158.899 205.968C159.372 205.692 159.909 205.554 160.511 205.554C160.995 205.554 161.423 205.655 161.794 205.856C162.165 206.057 162.474 206.352 162.722 206.742L162.515 207.129V205.698H164V211.896C164 212.466 163.863 212.975 163.588 213.423C163.313 213.871 162.936 214.223 162.458 214.478C161.98 214.733 161.43 214.86 160.808 214.86ZM160.739 210.504C161.071 210.504 161.363 210.43 161.615 210.281C161.867 210.132 162.065 209.926 162.209 209.663C162.353 209.4 162.425 209.098 162.425 208.758C162.425 208.418 162.352 208.115 162.205 207.849C162.058 207.583 161.858 207.374 161.606 207.222C161.354 207.07 161.065 206.994 160.739 206.994C160.405 206.994 160.107 207.07 159.844 207.222C159.581 207.374 159.375 207.583 159.227 207.848C159.079 208.113 159.005 208.416 159.005 208.758C159.005 209.092 159.079 209.391 159.227 209.654C159.375 209.917 159.58 210.124 159.842 210.276C160.104 210.428 160.403 210.504 160.739 210.504ZM168.632 214.86C168.144 214.86 167.691 214.78 167.274 214.62C166.857 214.46 166.5 214.238 166.202 213.954C165.904 213.67 165.686 213.336 165.548 212.952L167.006 212.4C167.104 212.704 167.296 212.95 167.582 213.138C167.868 213.326 168.216 213.42 168.626 213.42C168.946 213.42 169.228 213.361 169.472 213.242C169.716 213.123 169.906 212.948 170.043 212.718C170.18 212.488 170.249 212.214 170.249 211.896V210.414L170.546 210.771C170.322 211.163 170.023 211.458 169.649 211.656C169.275 211.854 168.846 211.953 168.362 211.953C167.756 211.953 167.213 211.814 166.733 211.535C166.253 211.256 165.876 210.873 165.603 210.387C165.33 209.901 165.194 209.352 165.194 208.74C165.194 208.126 165.33 207.58 165.603 207.101C165.876 206.622 166.249 206.244 166.722 205.968C167.195 205.692 167.733 205.554 168.335 205.554C168.819 205.554 169.246 205.655 169.617 205.856C169.988 206.057 170.298 206.352 170.546 206.742L170.339 207.129V205.698H171.824V211.896C171.824 212.466 171.686 212.975 171.411 213.423C171.136 213.871 170.76 214.223 170.282 214.478C169.804 214.733 169.254 214.86 168.632 214.86ZM168.563 210.504C168.895 210.504 169.187 210.43 169.439 210.281C169.691 210.132 169.889 209.926 170.033 209.663C170.177 209.4 170.249 209.098 170.249 208.758C170.249 208.418 170.175 208.115 170.028 207.849C169.881 207.583 169.682 207.374 169.43 207.222C169.178 207.07 168.889 206.994 168.563 206.994C168.229 206.994 167.93 207.07 167.667 207.222C167.404 207.374 167.199 207.583 167.051 207.848C166.903 208.113 166.829 208.416 166.829 208.758C166.829 209.092 166.903 209.391 167.051 209.654C167.199 209.917 167.404 210.124 167.666 210.276C167.928 210.428 168.227 210.504 168.563 210.504ZM176.381 212.364C175.709 212.364 175.12 212.212 174.615 211.908C174.11 211.604 173.718 211.193 173.438 210.675C173.158 210.157 173.018 209.58 173.018 208.944C173.018 208.29 173.161 207.709 173.448 207.2C173.735 206.691 174.123 206.289 174.612 205.995C175.101 205.701 175.653 205.554 176.267 205.554C176.773 205.554 177.221 205.637 177.612 205.803C178.003 205.969 178.334 206.2 178.605 206.495C178.876 206.79 179.083 207.128 179.225 207.51C179.367 207.892 179.438 208.302 179.438 208.74C179.438 208.856 179.432 208.973 179.421 209.091C179.41 209.209 179.391 209.314 179.363 209.406H174.323V208.206H178.469L177.722 208.764C177.8 208.396 177.784 208.068 177.675 207.78C177.566 207.492 177.389 207.264 177.144 207.096C176.899 206.928 176.607 206.844 176.267 206.844C175.933 206.844 175.639 206.927 175.386 207.093C175.133 207.259 174.941 207.5 174.809 207.815C174.677 208.13 174.625 208.51 174.653 208.956C174.619 209.36 174.672 209.715 174.813 210.02C174.954 210.325 175.162 210.562 175.437 210.731C175.712 210.9 176.033 210.984 176.399 210.984C176.757 210.984 177.061 210.908 177.312 210.756C177.563 210.604 177.762 210.402 177.908 210.15L179.18 210.765C179.052 211.077 178.851 211.354 178.578 211.595C178.305 211.836 177.982 212.024 177.609 212.16C177.236 212.296 176.827 212.364 176.381 212.364ZM183.11 212.364C182.416 212.364 181.812 212.198 181.297 211.865C180.782 211.532 180.426 211.082 180.23 210.516L181.409 209.958C181.581 210.32 181.817 210.605 182.116 210.813C182.415 211.021 182.746 211.125 183.11 211.125C183.398 211.125 183.626 211.063 183.794 210.938C183.962 210.813 184.046 210.643 184.046 210.429C184.046 210.301 184.012 210.195 183.944 210.111C183.876 210.027 183.785 209.955 183.671 209.895C183.557 209.835 183.43 209.786 183.29 209.748L182.222 209.448C181.672 209.292 181.256 209.049 180.974 208.718C180.692 208.387 180.551 207.997 180.551 207.549C180.551 207.149 180.653 206.8 180.857 206.502C181.061 206.204 181.345 205.972 181.709 205.805C182.073 205.638 182.488 205.554 182.954 205.554C183.57 205.554 184.115 205.702 184.589 205.998C185.063 206.294 185.398 206.709 185.594 207.243L184.403 207.801C184.291 207.507 184.103 207.273 183.839 207.099C183.575 206.925 183.277 206.838 182.945 206.838C182.681 206.838 182.473 206.897 182.32 207.015C182.167 207.133 182.09 207.29 182.09 207.486C182.09 207.606 182.122 207.709 182.186 207.795C182.25 207.881 182.341 207.953 182.459 208.011C182.577 208.069 182.71 208.12 182.858 208.164L183.908 208.476C184.446 208.634 184.86 208.875 185.149 209.198C185.438 209.521 185.582 209.913 185.582 210.375C185.582 210.769 185.478 211.115 185.27 211.413C185.062 211.711 184.774 211.944 184.406 212.112C184.038 212.28 183.606 212.364 183.11 212.364ZM189.776 212.292C189.038 212.292 188.467 212.09 188.062 211.685C187.657 211.28 187.454 210.711 187.454 209.979V207.093H186.329V205.698H186.449C186.769 205.698 187.017 205.613 187.192 205.442C187.367 205.271 187.454 205.025 187.454 204.705V204.21H189.029V205.698H190.535V207.093H189.029V209.889C189.029 210.111 189.067 210.298 189.143 210.45C189.219 210.602 189.34 210.717 189.505 210.795C189.67 210.873 189.878 210.912 190.13 210.912C190.188 210.912 190.255 210.908 190.331 210.9C190.407 210.892 190.483 210.884 190.559 210.876V212.22C190.445 212.238 190.316 212.255 190.172 212.27C190.028 212.285 189.896 212.292 189.776 212.292ZM194.789 212.364C194.117 212.364 193.529 212.212 193.024 211.908C192.519 211.604 192.126 211.193 191.846 210.675C191.566 210.157 191.426 209.58 191.426 208.944C191.426 208.29 191.57 207.709 191.857 207.2C192.144 206.691 192.532 206.289 193.021 205.995C193.51 205.701 194.061 205.554 194.675 205.554C195.181 205.554 195.63 205.637 196.021 205.803C196.412 205.969 196.743 206.2 197.014 206.495C197.285 206.79 197.491 207.128 197.633 207.51C197.775 207.892 197.846 208.302 197.846 208.74C197.846 208.856 197.841 208.973 197.83 209.091C197.819 209.209 197.799 209.314 197.771 209.406H192.731V208.206H196.877L196.13 208.764C196.208 208.396 196.193 208.068 196.084 207.78C195.975 207.492 195.798 207.264 195.553 207.096C195.308 206.928 195.015 206.844 194.675 206.844C194.341 206.844 194.048 206.927 193.795 207.093C193.542 207.259 193.349 207.5 193.217 207.815C193.085 208.13 193.033 208.51 193.061 208.956C193.027 209.36 193.081 209.715 193.222 210.02C193.363 210.325 193.571 210.562 193.846 210.731C194.121 210.9 194.441 210.984 194.807 210.984C195.165 210.984 195.47 210.908 195.721 210.756C195.972 210.604 196.17 210.402 196.316 210.15L197.588 210.765C197.46 211.077 197.26 211.354 196.987 211.595C196.714 211.836 196.391 212.024 196.018 212.16C195.645 212.296 195.235 212.364 194.789 212.364ZM202.073 212.364C201.443 212.364 200.879 212.214 200.381 211.913C199.883 211.612 199.49 211.203 199.202 210.686C198.914 210.169 198.77 209.593 198.77 208.959C198.77 208.317 198.915 207.74 199.206 207.227C199.497 206.714 199.891 206.307 200.388 206.006C200.885 205.705 201.444 205.554 202.064 205.554C202.562 205.554 203.004 205.652 203.391 205.847C203.778 206.042 204.084 206.313 204.308 206.661L204.065 206.994V203.136H205.64V212.22H204.155V210.96L204.317 211.272C204.093 211.628 203.781 211.899 203.382 212.085C202.983 212.271 202.547 212.364 202.073 212.364ZM202.247 210.924C202.601 210.924 202.914 210.84 203.187 210.672C203.46 210.504 203.675 210.272 203.831 209.975C203.987 209.678 204.065 209.339 204.065 208.959C204.065 208.579 203.987 208.241 203.831 207.944C203.675 207.647 203.46 207.414 203.187 207.246C202.914 207.078 202.601 206.994 202.247 206.994C201.895 206.994 201.578 207.08 201.297 207.251C201.016 207.422 200.797 207.654 200.64 207.947C200.483 208.24 200.405 208.577 200.405 208.959C200.405 209.339 200.483 209.678 200.64 209.975C200.797 210.272 201.016 210.504 201.296 210.672C201.576 210.84 201.893 210.924 202.247 210.924ZM209.366 212.22V203.28H210.926L214.277 207.828H213.53L216.806 203.28H218.366V212.22H216.731V205.143L217.367 205.299L213.962 209.82H213.77L210.458 205.299L211.001 205.143V212.22H209.366ZM223.049 212.364C222.377 212.364 221.788 212.212 221.283 211.908C220.778 211.604 220.386 211.193 220.106 210.675C219.826 210.157 219.686 209.58 219.686 208.944C219.686 208.29 219.829 207.709 220.116 207.2C220.403 206.691 220.791 206.289 221.28 205.995C221.769 205.701 222.321 205.554 222.935 205.554C223.441 205.554 223.889 205.637 224.28 205.803C224.671 205.969 225.002 206.2 225.273 206.495C225.544 206.79 225.751 207.128 225.893 207.51C226.035 207.892 226.106 208.302 226.106 208.74C226.106 208.856 226.1 208.973 226.089 209.091C226.078 209.209 226.059 209.314 226.031 209.406H220.991V208.206H225.137L224.39 208.764C224.468 208.396 224.452 208.068 224.343 207.78C224.234 207.492 224.057 207.264 223.812 207.096C223.567 206.928 223.275 206.844 222.935 206.844C222.601 206.844 222.307 206.927 222.054 207.093C221.801 207.259 221.609 207.5 221.477 207.815C221.345 208.13 221.293 208.51 221.321 208.956C221.287 209.36 221.34 209.715 221.481 210.02C221.622 210.325 221.83 210.562 222.105 210.731C222.38 210.9 222.701 210.984 223.067 210.984C223.425 210.984 223.729 210.908 223.98 210.756C224.231 210.604 224.43 210.402 224.576 210.15L225.848 210.765C225.72 211.077 225.519 211.354 225.246 211.595C224.973 211.836 224.65 212.024 224.277 212.16C223.904 212.296 223.495 212.364 223.049 212.364ZM229.256 212.364C228.8 212.364 228.403 212.288 228.065 212.135C227.727 211.982 227.466 211.765 227.282 211.484C227.098 211.203 227.006 210.871 227.006 210.489C227.006 210.129 227.087 209.808 227.249 209.526C227.411 209.244 227.66 209.007 227.997 208.815C228.334 208.623 228.757 208.487 229.265 208.407L231.398 208.059V209.253L229.562 209.574C229.254 209.63 229.023 209.729 228.87 209.87C228.717 210.011 228.641 210.199 228.641 210.435C228.641 210.657 228.726 210.835 228.897 210.969C229.068 211.103 229.283 211.17 229.541 211.17C229.873 211.17 230.164 211.099 230.414 210.956C230.664 210.813 230.858 210.619 230.997 210.374C231.136 210.129 231.206 209.858 231.206 209.562V207.876C231.206 207.594 231.097 207.36 230.88 207.174C230.663 206.988 230.373 206.895 230.009 206.895C229.671 206.895 229.373 206.986 229.116 207.167C228.859 207.348 228.671 207.585 228.551 207.879L227.267 207.255C227.393 206.911 227.593 206.612 227.868 206.358C228.143 206.104 228.47 205.907 228.848 205.766C229.226 205.625 229.634 205.554 230.072 205.554C230.604 205.554 231.074 205.652 231.483 205.848C231.892 206.044 232.211 206.316 232.439 206.664C232.667 207.012 232.781 207.416 232.781 207.876V212.22H231.296V211.107L231.635 211.086C231.463 211.362 231.26 211.595 231.027 211.785C230.794 211.975 230.53 212.119 230.235 212.217C229.94 212.315 229.614 212.364 229.256 212.364ZM234.23 212.22V203.136H235.805V212.22H234.23Z" fill="#0F172A"/>
<path d="M128.88 227.22V219.77H131.44C131.927 219.77 132.353 219.865 132.72 220.055C133.087 220.245 133.372 220.512 133.575 220.855C133.778 221.199 133.88 221.597 133.88 222.05C133.88 222.504 133.778 222.9 133.575 223.24C133.372 223.58 133.088 223.845 132.725 224.035C132.362 224.225 131.933 224.32 131.44 224.32H129.68V227.22H128.88ZM129.68 223.57H131.48C131.8 223.57 132.08 223.509 132.32 223.385C132.56 223.262 132.747 223.085 132.88 222.855C133.013 222.625 133.08 222.354 133.08 222.04C133.08 221.727 133.013 221.457 132.88 221.23C132.747 221.004 132.56 220.829 132.32 220.705C132.08 220.582 131.8 220.52 131.48 220.52H129.68V223.57ZM136.35 227.34C136.01 227.34 135.707 227.275 135.44 227.145C135.173 227.015 134.963 226.837 134.81 226.61C134.657 226.384 134.58 226.124 134.58 225.83C134.58 225.55 134.64 225.295 134.76 225.065C134.88 224.835 135.067 224.64 135.32 224.48C135.573 224.32 135.897 224.207 136.29 224.14L138.39 223.79V224.47L136.47 224.79C136.083 224.857 135.805 224.98 135.635 225.16C135.465 225.34 135.38 225.554 135.38 225.8C135.38 226.04 135.475 226.244 135.665 226.41C135.855 226.577 136.1 226.66 136.4 226.66C136.767 226.66 137.087 226.582 137.36 226.425C137.633 226.269 137.847 226.057 138 225.79C138.153 225.524 138.23 225.227 138.23 224.9V223.54C138.23 223.22 138.113 222.96 137.88 222.76C137.647 222.56 137.343 222.46 136.97 222.46C136.643 222.46 136.357 222.542 136.11 222.705C135.863 222.869 135.68 223.08 135.56 223.34L134.88 222.97C134.98 222.744 135.138 222.537 135.355 222.35C135.572 222.164 135.82 222.015 136.1 221.905C136.38 221.795 136.67 221.74 136.97 221.74C137.363 221.74 137.712 221.817 138.015 221.97C138.318 222.124 138.555 222.335 138.725 222.605C138.895 222.875 138.98 223.187 138.98 223.54V227.22H138.23V226.15L138.34 226.26C138.247 226.46 138.102 226.642 137.905 226.805C137.708 226.969 137.478 227.099 137.215 227.195C136.952 227.292 136.663 227.34 136.35 227.34ZM140.52 227.22V221.86H141.27V222.9L141.1 222.86C141.233 222.514 141.452 222.24 141.755 222.04C142.058 221.84 142.41 221.74 142.81 221.74C143.19 221.74 143.532 221.827 143.835 222C144.138 222.174 144.378 222.412 144.555 222.715C144.732 223.019 144.82 223.36 144.82 223.74V227.22H144.07V224.03C144.07 223.704 144.012 223.427 143.895 223.2C143.778 222.974 143.615 222.799 143.405 222.675C143.195 222.552 142.953 222.49 142.68 222.49C142.407 222.49 142.163 222.552 141.95 222.675C141.737 222.799 141.57 222.975 141.45 223.205C141.33 223.435 141.27 223.71 141.27 224.03V227.22H140.52ZM148.69 227.34C148.19 227.34 147.738 227.219 147.335 226.975C146.932 226.732 146.613 226.397 146.38 225.97C146.147 225.544 146.03 225.06 146.03 224.52C146.03 223.98 146.143 223.502 146.37 223.085C146.597 222.669 146.905 222.34 147.295 222.1C147.685 221.86 148.123 221.74 148.61 221.74C148.997 221.74 149.342 221.812 149.645 221.955C149.948 222.099 150.207 222.292 150.42 222.535C150.633 222.779 150.797 223.052 150.91 223.355C151.023 223.659 151.08 223.97 151.08 224.29C151.08 224.357 151.077 224.432 151.07 224.515C151.063 224.599 151.053 224.684 151.04 224.77H146.51V224.07H150.61L150.25 224.37C150.31 224.004 150.268 223.675 150.125 223.385C149.982 223.095 149.777 222.865 149.51 222.695C149.243 222.525 148.943 222.44 148.61 222.44C148.277 222.44 147.968 222.527 147.685 222.7C147.402 222.874 147.18 223.115 147.02 223.425C146.86 223.735 146.797 224.104 146.83 224.53C146.797 224.957 146.865 225.329 147.035 225.645C147.205 225.962 147.438 226.207 147.735 226.38C148.032 226.554 148.35 226.64 148.69 226.64C149.083 226.64 149.413 226.547 149.68 226.36C149.947 226.174 150.163 225.94 150.33 225.66L150.97 226C150.863 226.24 150.7 226.462 150.48 226.665C150.26 226.869 149.998 227.032 149.695 227.155C149.392 227.279 149.057 227.34 148.69 227.34ZM154.84 227.34C154.34 227.34 153.888 227.219 153.485 226.975C153.082 226.732 152.763 226.397 152.53 225.97C152.297 225.544 152.18 225.06 152.18 224.52C152.18 223.98 152.293 223.502 152.52 223.085C152.747 222.669 153.055 222.34 153.445 222.1C153.835 221.86 154.273 221.74 154.76 221.74C155.147 221.74 155.492 221.812 155.795 221.955C156.098 222.099 156.357 222.292 156.57 222.535C156.783 222.779 156.947 223.052 157.06 223.355C157.173 223.659 157.23 223.97 157.23 224.29C157.23 224.357 157.227 224.432 157.22 224.515C157.213 224.599 157.203 224.684 157.19 224.77H152.66V224.07H156.76L156.4 224.37C156.46 224.004 156.418 223.675 156.275 223.385C156.132 223.095 155.927 222.865 155.66 222.695C155.393 222.525 155.093 222.44 154.76 222.44C154.427 222.44 154.118 222.527 153.835 222.7C153.552 222.874 153.33 223.115 153.17 223.425C153.01 223.735 152.947 224.104 152.98 224.53C152.947 224.957 153.015 225.329 153.185 225.645C153.355 225.962 153.588 226.207 153.885 226.38C154.182 226.554 154.5 226.64 154.84 226.64C155.233 226.64 155.563 226.547 155.83 226.36C156.097 226.174 156.313 225.94 156.48 225.66L157.12 226C157.013 226.24 156.85 226.462 156.63 226.665C156.41 226.869 156.148 227.032 155.845 227.155C155.542 227.279 155.207 227.34 154.84 227.34ZM158.55 227.22V221.86H159.3V222.74L159.2 222.61C159.327 222.357 159.518 222.157 159.775 222.01C160.032 221.864 160.343 221.79 160.71 221.79H161.05V222.54H160.58C160.193 222.54 159.883 222.66 159.65 222.9C159.417 223.14 159.3 223.48 159.3 223.92V227.22H158.55ZM165.03 227.22V220.52H162.97V219.77H167.87V220.52H165.83V227.22H165.03ZM168.75 227.22V221.86H169.5V227.22H168.75ZM168.75 220.87V219.77H169.5V220.87H168.75ZM171.04 227.22V219.65H171.79V224.95L171.47 224.9L174.48 221.86H175.45L173.35 224.01L175.64 227.22H174.74L172.59 224.25L173.07 224.29L171.54 225.87L171.79 225.25V227.22H171.04ZM176.52 227.22V219.65H177.27V224.95L176.95 224.9L179.96 221.86H180.93L178.83 224.01L181.12 227.22H180.22L178.07 224.25L178.55 224.29L177.02 225.87L177.27 225.25V227.22H176.52ZM183.55 227.34C183.21 227.34 182.907 227.275 182.64 227.145C182.373 227.015 182.163 226.837 182.01 226.61C181.857 226.384 181.78 226.124 181.78 225.83C181.78 225.55 181.84 225.295 181.96 225.065C182.08 224.835 182.267 224.64 182.52 224.48C182.773 224.32 183.097 224.207 183.49 224.14L185.59 223.79V224.47L183.67 224.79C183.283 224.857 183.005 224.98 182.835 225.16C182.665 225.34 182.58 225.554 182.58 225.8C182.58 226.04 182.675 226.244 182.865 226.41C183.055 226.577 183.3 226.66 183.6 226.66C183.967 226.66 184.287 226.582 184.56 226.425C184.833 226.269 185.047 226.057 185.2 225.79C185.353 225.524 185.43 225.227 185.43 224.9V223.54C185.43 223.22 185.313 222.96 185.08 222.76C184.847 222.56 184.543 222.46 184.17 222.46C183.843 222.46 183.557 222.542 183.31 222.705C183.063 222.869 182.88 223.08 182.76 223.34L182.08 222.97C182.18 222.744 182.338 222.537 182.555 222.35C182.772 222.164 183.02 222.015 183.3 221.905C183.58 221.795 183.87 221.74 184.17 221.74C184.563 221.74 184.912 221.817 185.215 221.97C185.518 222.124 185.755 222.335 185.925 222.605C186.095 222.875 186.18 223.187 186.18 223.54V227.22H185.43V226.15L185.54 226.26C185.447 226.46 185.302 226.642 185.105 226.805C184.908 226.969 184.678 227.099 184.415 227.195C184.152 227.292 183.863 227.34 183.55 227.34ZM190.82 227.22V220.52H188.76V219.77H193.66V220.52H191.62V227.22H190.82ZM194.54 227.22V221.86H195.29V227.22H194.54ZM194.54 220.87V219.77H195.29V220.87H194.54ZM197.38 227.22V222.61H196.31V221.86H197.38V221.38C197.38 221.007 197.463 220.692 197.63 220.435C197.797 220.179 198.017 219.984 198.29 219.85C198.563 219.717 198.857 219.65 199.17 219.65C199.237 219.65 199.313 219.655 199.4 219.665C199.487 219.675 199.557 219.687 199.61 219.7V220.38C199.563 220.367 199.5 220.359 199.42 220.355C199.34 220.352 199.283 220.35 199.25 220.35C198.93 220.35 198.663 220.427 198.45 220.58C198.237 220.734 198.13 221 198.13 221.38V221.86H201.14V222.61H198.13V227.22H197.38ZM204.34 227.22V221.86H205.09V227.22H204.34ZM201.21 227.22V222.61H200.14V221.86H201.21V221.38C201.21 221.007 201.293 220.692 201.46 220.435C201.627 220.179 201.847 219.984 202.12 219.85C202.393 219.717 202.687 219.65 203 219.65C203.067 219.65 203.143 219.655 203.23 219.665C203.317 219.675 203.387 219.687 203.44 219.7V220.38C203.393 220.367 203.33 220.359 203.25 220.355C203.17 220.352 203.113 220.35 203.08 220.35C202.76 220.35 202.493 220.427 202.28 220.58C202.067 220.734 201.96 221 201.96 221.38V221.86H204.97V222.61H201.96V227.22H201.21ZM206.48 227.22V221.86H207.23V222.9L207.06 222.86C207.193 222.514 207.412 222.24 207.715 222.04C208.018 221.84 208.37 221.74 208.77 221.74C209.15 221.74 209.492 221.827 209.795 222C210.098 222.174 210.338 222.412 210.515 222.715C210.692 223.019 210.78 223.36 210.78 223.74V227.22H210.03V224.03C210.03 223.704 209.972 223.427 209.855 223.2C209.738 222.974 209.575 222.799 209.365 222.675C209.155 222.552 208.913 222.49 208.64 222.49C208.367 222.49 208.123 222.552 207.91 222.675C207.697 222.799 207.53 222.975 207.41 223.205C207.29 223.435 207.23 223.71 207.23 224.03V227.22H206.48ZM215.85 226.19C215.53 226.19 215.243 226.117 214.99 225.97C214.737 225.824 214.537 225.624 214.39 225.37C214.243 225.117 214.17 224.83 214.17 224.51C214.17 224.204 214.242 223.929 214.385 223.685C214.528 223.442 214.727 223.249 214.98 223.105C215.233 222.962 215.523 222.89 215.85 222.89C216.157 222.89 216.43 222.962 216.67 223.105C216.91 223.249 217.102 223.444 217.245 223.69C217.388 223.937 217.463 224.21 217.47 224.51C217.47 224.83 217.398 225.117 217.255 225.37C217.112 225.624 216.918 225.824 216.675 225.97C216.432 226.117 216.157 226.19 215.85 226.19ZM221.08 227.22V219.77H221.88V226.47H225.18V227.22H221.08ZM228.79 227.34C228.283 227.34 227.823 227.219 227.41 226.975C226.997 226.732 226.668 226.399 226.425 225.975C226.182 225.552 226.06 225.07 226.06 224.53C226.06 223.997 226.18 223.52 226.42 223.1C226.66 222.68 226.985 222.349 227.395 222.105C227.805 221.862 228.27 221.74 228.79 221.74C229.31 221.74 229.775 221.86 230.185 222.1C230.595 222.34 230.918 222.67 231.155 223.09C231.392 223.51 231.51 223.99 231.51 224.53C231.51 225.077 231.387 225.562 231.14 225.985C230.893 226.409 230.565 226.74 230.155 226.98C229.745 227.22 229.29 227.34 228.79 227.34ZM228.79 226.59C229.15 226.59 229.475 226.5 229.765 226.32C230.055 226.14 230.285 225.894 230.455 225.58C230.625 225.267 230.71 224.917 230.71 224.53C230.71 224.144 230.625 223.797 230.455 223.49C230.285 223.184 230.055 222.94 229.765 222.76C229.475 222.58 229.15 222.49 228.79 222.49C228.43 222.49 228.105 222.58 227.815 222.76C227.525 222.94 227.293 223.184 227.12 223.49C226.947 223.797 226.86 224.144 226.86 224.53C226.86 224.917 226.947 225.267 227.12 225.58C227.293 225.894 227.525 226.14 227.815 226.32C228.105 226.5 228.43 226.59 228.79 226.59ZM233.91 227.22L232.07 221.86H232.92L234.44 226.55H234.14L235.57 221.86H236.32L237.75 226.55H237.45L238.98 221.86H239.82L237.98 227.22H237.23L235.84 222.63H236.05L234.66 227.22H233.91ZM245.91 227.34C245.383 227.34 244.9 227.245 244.46 227.055C244.02 226.865 243.638 226.599 243.315 226.255C242.992 225.912 242.74 225.507 242.56 225.04C242.38 224.574 242.29 224.06 242.29 223.5C242.29 222.94 242.38 222.427 242.56 221.96C242.74 221.494 242.992 221.087 243.315 220.74C243.638 220.394 244.02 220.125 244.46 219.935C244.9 219.745 245.383 219.65 245.91 219.65C246.417 219.65 246.872 219.74 247.275 219.92C247.678 220.1 248.018 220.332 248.295 220.615C248.572 220.899 248.77 221.197 248.89 221.51L248.14 221.84C247.953 221.407 247.668 221.059 247.285 220.795C246.902 220.532 246.443 220.4 245.91 220.4C245.363 220.4 244.877 220.53 244.45 220.79C244.023 221.05 243.69 221.412 243.45 221.875C243.21 222.339 243.09 222.88 243.09 223.5C243.09 224.114 243.21 224.654 243.45 225.12C243.69 225.587 244.023 225.949 244.45 226.205C244.877 226.462 245.363 226.59 245.91 226.59C246.443 226.59 246.902 226.46 247.285 226.2C247.668 225.94 247.953 225.594 248.14 225.16L248.89 225.49C248.77 225.797 248.572 226.092 248.295 226.375C248.018 226.659 247.678 226.89 247.275 227.07C246.872 227.25 246.417 227.34 245.91 227.34ZM251.66 227.34C251.32 227.34 251.017 227.275 250.75 227.145C250.483 227.015 250.273 226.837 250.12 226.61C249.967 226.384 249.89 226.124 249.89 225.83C249.89 225.55 249.95 225.295 250.07 225.065C250.19 224.835 250.377 224.64 250.63 224.48C250.883 224.32 251.207 224.207 251.6 224.14L253.7 223.79V224.47L251.78 224.79C251.393 224.857 251.115 224.98 250.945 225.16C250.775 225.34 250.69 225.554 250.69 225.8C250.69 226.04 250.785 226.244 250.975 226.41C251.165 226.577 251.41 226.66 251.71 226.66C252.077 226.66 252.397 226.582 252.67 226.425C252.943 226.269 253.157 226.057 253.31 225.79C253.463 225.524 253.54 225.227 253.54 224.9V223.54C253.54 223.22 253.423 222.96 253.19 222.76C252.957 222.56 252.653 222.46 252.28 222.46C251.953 222.46 251.667 222.542 251.42 222.705C251.173 222.869 250.99 223.08 250.87 223.34L250.19 222.97C250.29 222.744 250.448 222.537 250.665 222.35C250.882 222.164 251.13 222.015 251.41 221.905C251.69 221.795 251.98 221.74 252.28 221.74C252.673 221.74 253.022 221.817 253.325 221.97C253.628 222.124 253.865 222.335 254.035 222.605C254.205 222.875 254.29 223.187 254.29 223.54V227.22H253.54V226.15L253.65 226.26C253.557 226.46 253.412 226.642 253.215 226.805C253.018 226.969 252.788 227.099 252.525 227.195C252.262 227.292 251.973 227.34 251.66 227.34ZM255.83 227.22V221.86H256.58V222.74L256.48 222.61C256.607 222.357 256.798 222.157 257.055 222.01C257.312 221.864 257.623 221.79 257.99 221.79H258.33V222.54H257.86C257.473 222.54 257.163 222.66 256.93 222.9C256.697 223.14 256.58 223.48 256.58 223.92V227.22H255.83ZM261.92 227.34C261.46 227.34 261.045 227.235 260.675 227.025C260.305 226.815 260.027 226.517 259.84 226.13L259.96 226.02V227.22H259.21V219.65H259.96V223.06L259.84 222.85C260.053 222.51 260.338 222.24 260.695 222.04C261.052 221.84 261.46 221.74 261.92 221.74C262.427 221.74 262.878 221.862 263.275 222.105C263.672 222.349 263.985 222.68 264.215 223.1C264.445 223.52 264.56 224 264.56 224.54C264.56 225.074 264.445 225.552 264.215 225.975C263.985 226.399 263.672 226.732 263.275 226.975C262.878 227.219 262.427 227.34 261.92 227.34ZM261.88 226.59C262.24 226.59 262.562 226.5 262.845 226.32C263.128 226.14 263.352 225.895 263.515 225.585C263.678 225.275 263.76 224.927 263.76 224.54C263.76 224.147 263.678 223.797 263.515 223.49C263.352 223.184 263.128 222.94 262.845 222.76C262.562 222.58 262.24 222.49 261.88 222.49C261.52 222.49 261.195 222.58 260.905 222.76C260.615 222.94 260.385 223.185 260.215 223.495C260.045 223.805 259.96 224.154 259.96 224.54C259.96 224.927 260.045 225.275 260.215 225.585C260.385 225.895 260.615 226.14 260.905 226.32C261.195 226.5 261.52 226.59 261.88 226.59Z" fill="#64748B"/>
<defs>
<filter id="filter0_d_553_3588" x="0" y="0" width="515" height="335.72" filterUnits="userSpaceOnUse" color-interpolation-filters="sRGB">
<feFlood flood-opacity="0" result="BackgroundImageFix"/>
<feColorMatrix in="SourceAlpha" type="matrix" values="0 0 0 0 0 0 0 0 0 0 0 0 0 0 0 0 0 0 127 0" result="hardAlpha"/>
<feMorphology radius="12" operator="erode" in="SourceAlpha" result="effect1_dropShadow_553_3588"/>
<feOffset dy="25"/>
<feGaussianBlur stdDeviation="25"/>
<feComposite in2="hardAlpha" operator="out"/>
<feColorMatrix type="matrix" values="0 0 0 0 0 0 0 0 0 0 0 0 0 0 0 0 0 0 0.25 0"/>
<feBlend mode="normal" in2="BackgroundImageFix" result="effect1_dropShadow_553_3588"/>
<feBlend mode="normal" in="SourceGraphic" in2="effect1_dropShadow_553_3588" result="shape"/>
</filter>
<filter id="filter1_dd_553_3588" x="164.42" y="107" width="72.72" height="72.7202" filterUnits="userSpaceOnUse" color-interpolation-filters="sRGB">
<feFlood flood-opacity="0" result="BackgroundImageFix"/>
<feColorMatrix in="SourceAlpha" type="matrix" values="0 0 0 0 0 0 0 0 0 0 0 0 0 0 0 0 0 0 127 0" result="hardAlpha"/>
<feMorphology radius="4" operator="erode" in="SourceAlpha" result="effect1_dropShadow_553_3588"/>
<feOffset dy="4"/>
<feGaussianBlur stdDeviation="3"/>
<feComposite in2="hardAlpha" operator="out"/>
<feColorMatrix type="matrix" values="0 0 0 0 0.768627 0 0 0 0 0.0901961 0 0 0 0 0.0901961 0 0 0 0.3 0"/>
<feBlend mode="normal" in2="BackgroundImageFix" result="effect1_dropShadow_553_3588"/>
<feColorMatrix in="SourceAlpha" type="matrix" values="0 0 0 0 0 0 0 0 0 0 0 0 0 0 0 0 0 0 127 0" result="hardAlpha"/>
<feMorphology radius="3" operator="erode" in="SourceAlpha" result="effect2_dropShadow_553_3588"/>
<feOffset dy="10"/>
<feGaussianBlur stdDeviation="7.5"/>
<feComposite in2="hardAlpha" operator="out"/>
<feColorMatrix type="matrix" values="0 0 0 0 0.768627 0 0 0 0 0.0901961 0 0 0 0 0.0901961 0 0 0 0.3 0"/>
<feBlend mode="normal" in2="effect1_dropShadow_553_3588" result="effect2_dropShadow_553_3588"/>
<feBlend mode="normal" in="SourceGraphic" in2="effect2_dropShadow_553_3588" result="shape"/>
</filter>
<filter id="filter2_d_553_3588" x="74" y="193.72" width="44" height="44" filterUnits="userSpaceOnUse" color-interpolation-filters="sRGB">
<feFlood flood-opacity="0" result="BackgroundImageFix"/>
<feColorMatrix in="SourceAlpha" type="matrix" values="0 0 0 0 0 0 0 0 0 0 0 0 0 0 0 0 0 0 127 0" result="hardAlpha"/>
<feOffset dy="1"/>
<feGaussianBlur stdDeviation="1"/>
<feComposite in2="hardAlpha" operator="out"/>
<feColorMatrix type="matrix" values="0 0 0 0 0 0 0 0 0 0 0 0 0 0 0 0 0 0 0.05 0"/>
<feBlend mode="normal" in2="BackgroundImageFix" result="effect1_dropShadow_553_3588"/>
<feBlend mode="normal" in="SourceGraphic" in2="effect1_dropShadow_553_3588" result="shape"/>
</filter>
<linearGradient id="paint0_linear_553_3588" x1="434" y1="40" x2="438.824" y2="62.7891" gradientUnits="userSpaceOnUse">
<stop offset="0.0865384" stop-color="#FF6B6B"/>
<stop offset="0.774038" stop-color="#BA2121"/>
<stop offset="1" stop-color="#670000"/>
</linearGradient>
<linearGradient id="paint1_linear_553_3588" x1="84.92" y1="124.85" x2="93.5096" y2="138.489" gradientUnits="userSpaceOnUse">
<stop offset="0.0865384" stop-color="#FF6B6B"/>
<stop offset="0.774038" stop-color="#BA2121"/>
<stop offset="1" stop-color="#670000"/>
</linearGradient>
<linearGradient id="paint2_linear_553_3588" x1="140.475" y1="124.86" x2="147.334" y2="140.992" gradientUnits="userSpaceOnUse">
<stop offset="0.0865384" stop-color="#FF6B6B"/>
<stop offset="0.774038" stop-color="#BA2121"/>
<stop offset="1" stop-color="#670000"/>
</linearGradient>
<linearGradient id="paint3_linear_553_3588" x1="176.42" y1="109" x2="187.083" y2="164.97" gradientUnits="userSpaceOnUse">
<stop offset="0.0865384" stop-color="#FF6B6B"/>
<stop offset="0.774038" stop-color="#BA2121"/>
<stop offset="1" stop-color="#670000"/>
</linearGradient>
<linearGradient id="paint4_linear_553_3588" x1="85" y1="203.72" x2="89.8151" y2="228.994" gradientUnits="userSpaceOnUse">
<stop offset="0.0865384" stop-color="#FF6B6B"/>
<stop offset="0.774038" stop-color="#BA2121"/>
<stop offset="1" stop-color="#670000"/>
</linearGradient>
</defs>
</svg>
