<svg width="48" height="48" viewBox="0 0 48 48" fill="none" xmlns="http://www.w3.org/2000/svg">
<rect width="48" height="48" rx="24" fill="#EC1313" fill-opacity="0.1"/>
<path d="M25.0127 29.5L28.5127 26C28.696 25.8167 28.8419 25.6 28.9502 25.35C29.0585 25.1 29.1127 24.8333 29.1127 24.55C29.1127 23.9833 28.9127 23.5 28.5127 23.1C28.1127 22.7 27.6294 22.5 27.0627 22.5C26.746 22.5 26.4335 22.5917 26.1252 22.775C25.8169 22.9583 25.446 23.2667 25.0127 23.7C24.5127 23.2333 24.121 22.9167 23.8377 22.75C23.5544 22.5833 23.2627 22.5 22.9627 22.5C22.396 22.5 21.9127 22.7 21.5127 23.1C21.1127 23.5 20.9127 23.9833 20.9127 24.55C20.9127 24.8333 20.9669 25.1 21.0752 25.35C21.1835 25.6 21.3294 25.8167 21.5127 26L25.0127 29.5ZM33.4127 26.25L26.2627 33.4C26.0627 33.6 25.8377 33.75 25.5877 33.85C25.3377 33.95 25.0877 34 24.8377 34C24.5877 34 24.3377 33.95 24.0877 33.85C23.8377 33.75 23.6127 33.6 23.4127 33.4L14.5877 24.575C14.4044 24.3917 14.2627 24.1792 14.1627 23.9375C14.0627 23.6958 14.0127 23.4417 14.0127 23.175V16C14.0127 15.45 14.2085 14.9792 14.6002 14.5875C14.9919 14.1958 15.4627 14 16.0127 14H23.1877C23.4544 14 23.7127 14.0542 23.9627 14.1625C24.2127 14.2708 24.4294 14.4167 24.6127 14.6L33.4127 23.425C33.6127 23.625 33.7585 23.85 33.8502 24.1C33.9419 24.35 33.9877 24.6 33.9877 24.85C33.9877 25.1 33.9419 25.3458 33.8502 25.5875C33.7585 25.8292 33.6127 26.05 33.4127 26.25ZM24.8377 32L31.9877 24.85L23.1627 16H16.0127V23.15L24.8377 32ZM18.5127 20C18.9294 20 19.2835 19.8542 19.5752 19.5625C19.8669 19.2708 20.0127 18.9167 20.0127 18.5C20.0127 18.0833 19.8669 17.7292 19.5752 17.4375C19.2835 17.1458 18.9294 17 18.5127 17C18.096 17 17.7419 17.1458 17.4502 17.4375C17.1585 17.7292 17.0127 18.0833 17.0127 18.5C17.0127 18.9167 17.1585 19.2708 17.4502 19.5625C17.7419 19.8542 18.096 20 18.5127 20Z" fill="url(#paint0_linear_553_5360)"/>
<defs>
<linearGradient id="paint0_linear_553_5360" x1="14.0127" y1="14" x2="18.3952" y2="36.9744" gradientUnits="userSpaceOnUse">
<stop offset="0.0865384" stop-color="#FF6B6B"/>
<stop offset="0.774038" stop-color="#BA2121"/>
<stop offset="1" stop-color="#670000"/>
</linearGradient>
</defs>
</svg>
